<svg width="64" height="64" viewBox="0 0 64 64" fill="none" xmlns="http://www.w3.org/2000/svg">
<path d="M40.5319 20.9053C40.5017 20.8498 40.166 20.2272 39.4778 19.2941C38.6337 18.1459 37.2556 16.5262 35.2666 14.9065C33.1559 13.1894 30.7825 11.8214 28.2137 10.8396C25.0137 9.6177 21.5023 9 17.777 9C13.7252 9 9.35781 9.73522 4.79833 11.1854C4.25625 11.3582 3.92302 11.9021 4.0153 12.4628C4.10758 13.025 4.59776 13.4312 5.16583 13.4228C5.17174 13.4228 5.22878 13.4228 5.33288 13.4228C6.26115 13.4228 11.1748 13.495 16.7658 14.9385C19.9297 15.7543 22.7571 16.8654 25.1674 18.24C28.0887 19.9068 30.4151 21.9746 32.0819 24.3865C32.3 24.7038 34.8035 24.7524 37.4706 23.4801C40.1374 22.2095 40.6897 21.1991 40.5319 20.9053Z" fill="#FFCE54"/>
<path d="M58.7013 34.7738L50.3679 25.6387C50.3477 25.6169 50.3276 25.5967 50.3075 25.5783L42.6 18.3005C42.3331 18.0487 41.9621 17.9397 41.6013 18.0084C41.6013 18.0084 34.9378 18.9249 31.7176 21.8084C31.1754 22.2952 29.9972 23.1177 26.8619 27.6596C25.0457 30.2897 22.7438 33.8305 20.0197 38.1811C15.3888 45.5796 11.0776 52.871 11.0339 52.9449C10.825 53.3007 10.8216 53.7372 11.0255 54.0962C11.2294 54.452 11.6097 54.6736 12.0209 54.6736H30.3538C30.786 54.6736 31.1814 54.4319 31.376 54.0459L37.8062 41.3465C40.6158 41.8568 49.5354 43.4279 53.1793 43.4279C53.8355 43.4279 54.3072 43.3775 54.6614 43.2734C57.3537 42.4879 58.7551 40.3797 58.8138 40.2891C58.9347 40.1045 59.0001 39.8863 59.0001 39.6648V35.5458C59.0001 35.2604 58.8944 34.9852 58.7013 34.7738Z" fill="#E6E9ED"/>
<path d="M35.97 30.3484L34.9276 25.909C34.8588 25.6118 34.6725 25.3533 34.4107 25.1939C34.1505 25.0345 33.8366 24.9857 33.5396 25.0579L20.0759 28.3528C19.6285 28.4619 19.2895 28.8294 19.2173 29.2843C19.1443 29.7391 19.3516 30.1941 19.7435 30.4374C19.9198 30.5481 24.1268 33.128 29.2083 33.128C31.454 33.128 33.5361 32.621 35.3976 31.6208C35.8542 31.3739 36.0892 30.8537 35.97 30.3484Z" fill="#E6E9ED"/>
<path d="M40.5319 20.9053C40.5017 20.8498 40.166 20.2272 39.4778 19.2941C38.6337 18.1459 37.2556 16.5262 35.2666 14.9065C33.1559 13.1894 30.7825 11.8214 28.2137 10.8396C25.0137 9.6177 21.5023 9 17.777 9C13.7252 9 9.35781 9.73522 4.79833 11.1854C4.25625 11.3582 3.92302 11.9021 4.0153 12.4628C4.10758 13.025 4.59776 13.4312 5.16583 13.4228C5.17174 13.4228 5.22878 13.4228 5.33288 13.4228C6.26115 13.4228 11.1748 13.495 16.7658 14.9385C19.9297 15.7543 22.7571 16.8654 25.1674 18.24C28.0887 19.9068 30.4151 21.9746 32.0819 24.3865C32.3 24.7038 34.8035 24.7524 37.4706 23.4801C40.1374 22.2095 40.6897 21.1991 40.5319 20.9053Z" stroke="white" stroke-width="8"/>
<path d="M58.7013 34.7738L50.3679 25.6387C50.3477 25.6169 50.3276 25.5967 50.3075 25.5783L42.6 18.3005C42.3331 18.0487 41.9621 17.9397 41.6013 18.0084C41.6013 18.0084 34.9378 18.9249 31.7176 21.8084C31.1754 22.2952 29.9972 23.1177 26.8619 27.6596C25.0457 30.2897 22.7438 33.8305 20.0197 38.1811C15.3888 45.5796 11.0776 52.871 11.0339 52.9449C10.825 53.3007 10.8216 53.7372 11.0255 54.0962C11.2294 54.452 11.6097 54.6736 12.0209 54.6736H30.3538C30.786 54.6736 31.1814 54.4319 31.376 54.0459L37.8062 41.3465C40.6158 41.8568 49.5354 43.4279 53.1793 43.4279C53.8355 43.4279 54.3072 43.3775 54.6614 43.2734C57.3537 42.4879 58.7551 40.3797 58.8138 40.2891C58.9347 40.1045 59.0001 39.8863 59.0001 39.6648V35.5458C59.0001 35.2604 58.8944 34.9852 58.7013 34.7738Z" stroke="white" stroke-width="8"/>
<path d="M35.97 30.3484L34.9276 25.909C34.8588 25.6118 34.6725 25.3533 34.4107 25.1939C34.1505 25.0345 33.8366 24.9857 33.5396 25.0579L20.0759 28.3528C19.6285 28.4619 19.2895 28.8294 19.2173 29.2843C19.1443 29.7391 19.3516 30.1941 19.7435 30.4374C19.9198 30.5481 24.1268 33.128 29.2083 33.128C31.454 33.128 33.5361 32.621 35.3976 31.6208C35.8542 31.3739 36.0892 30.8537 35.97 30.3484Z" stroke="white" stroke-width="8"/>
<path d="M40.5319 20.9053C40.5017 20.8498 40.166 20.2272 39.4778 19.2941C38.6337 18.1459 37.2556 16.5262 35.2666 14.9065C33.1559 13.1894 30.7825 11.8214 28.2137 10.8396C25.0137 9.6177 21.5023 9 17.777 9C13.7252 9 9.35781 9.73522 4.79833 11.1854C4.25625 11.3582 3.92302 11.9021 4.0153 12.4628C4.10758 13.025 4.59776 13.4312 5.16583 13.4228C5.17174 13.4228 5.22878 13.4228 5.33288 13.4228C6.26115 13.4228 11.1748 13.495 16.7658 14.9385C19.9297 15.7543 22.7571 16.8654 25.1674 18.24C28.0887 19.9068 30.4151 21.9746 32.0819 24.3865C32.3 24.7038 34.8035 24.7524 37.4706 23.4801C40.1374 22.2095 40.6897 21.1991 40.5319 20.9053Z" fill="#FFCE54"/>
<path d="M58.7013 34.7738L50.3678 25.6387C50.3476 25.6169 50.3275 25.5967 50.3074 25.5783L42.6 18.3005C42.3331 18.0487 41.9621 17.9397 41.6012 18.0084C41.6012 18.0084 34.9378 18.9249 31.7176 21.8084C31.1754 22.2952 29.9972 23.1177 26.8618 27.6596C25.0457 30.2897 22.7437 33.8305 20.0196 38.1811C15.3887 45.5796 11.0776 52.871 11.0339 52.9449C10.8249 53.3007 10.8216 53.7372 11.0255 54.0962C11.2294 54.452 11.6097 54.6736 12.0209 54.6736H30.3538C30.786 54.6736 31.1813 54.4319 31.376 54.0459L37.8062 41.3465C40.6158 41.8568 49.5354 43.4279 53.1793 43.4279C53.8354 43.4279 54.3071 43.3775 54.6613 43.2734C57.3536 42.4879 58.755 40.3797 58.8138 40.2891C58.9346 40.1045 59 39.8863 59 39.6648V35.5458C59 35.2604 58.8943 34.9852 58.7013 34.7738Z" fill="#E6E9ED"/>
<path d="M40.5319 20.9053C40.5017 20.8498 40.166 20.2272 39.4778 19.2941C38.6337 18.1459 37.2556 16.5262 35.2666 14.9065C33.1559 13.1894 30.7825 11.8214 28.2137 10.8396C25.0137 9.6177 21.5023 9 17.777 9C13.7252 9 9.35781 9.73522 4.79833 11.1854C4.25625 11.3582 3.92302 11.9021 4.0153 12.4628C4.10758 13.025 4.59776 13.4312 5.16583 13.4228C5.17174 13.4228 5.22878 13.4228 5.33288 13.4228C6.26115 13.4228 11.1748 13.495 16.7658 14.9385C19.9297 15.7543 22.7571 16.8654 25.1674 18.24C28.0887 19.9068 30.4151 21.9746 32.0819 24.3865C32.3 24.7038 34.8035 24.7524 37.4706 23.4801C40.1374 22.2095 40.6897 21.1991 40.5319 20.9053Z" fill="#FFCE54"/>
<path d="M58.7013 34.7738L50.3678 25.6387C50.3476 25.6169 50.3275 25.5967 50.3074 25.5783L42.6 18.3005C42.3331 18.0487 41.9621 17.9397 41.6012 18.0084C41.6012 18.0084 34.9378 18.9249 31.7176 21.8084C31.1754 22.2952 29.9972 23.1177 26.8618 27.6596C25.0457 30.2897 22.7437 33.8305 20.0196 38.1811C15.3887 45.5796 11.0776 52.871 11.0339 52.9449C10.8249 53.3007 10.8216 53.7372 11.0255 54.0962C11.2294 54.452 11.6097 54.6736 12.0209 54.6736H30.3538C30.786 54.6736 31.1813 54.4319 31.376 54.0459L37.8062 41.3465C40.6158 41.8568 49.5354 43.4279 53.1793 43.4279C53.8354 43.4279 54.3071 43.3775 54.6613 43.2734C57.3536 42.4879 58.755 40.3797 58.8138 40.2891C58.9346 40.1045 59 39.8863 59 39.6648V35.5458C59 35.2604 58.8943 34.9852 58.7013 34.7738Z" fill="#E6E9ED"/>
<path d="M42.9591 29.4655C42.9591 30.0984 42.4455 30.6103 41.8126 30.6103C41.1798 30.6103 40.6662 30.0983 40.6662 29.4655C40.6662 28.8328 41.1798 28.3192 41.8126 28.3192C42.4455 28.3192 42.9591 28.8327 42.9591 29.4655Z" fill="#656D78"/>
<path d="M59 36.0628L56.4739 35.5089C55.8546 35.3713 55.2437 35.764 55.1077 36.3817C54.9734 36.9994 55.3645 37.6105 55.9821 37.7447L59 38.4095V36.0628Z" fill="#EC87C0"/>
<path d="M22.4524 34.3373C34.1824 34.2097 35.3976 31.6207 35.3976 31.6207L24.5303 31.1289C23.8783 32.121 23.185 33.1901 22.4524 34.3373Z" fill="#CFD1D5"/>
<path d="M35.9699 30.3485L34.9276 25.909C34.8587 25.6118 34.6724 25.3534 34.4106 25.1939C34.1505 25.0345 33.8366 24.9858 33.5395 25.0579L20.0758 28.3528C19.6285 28.462 19.2895 28.8295 19.2173 29.2843C19.1442 29.7391 19.3516 30.1941 19.7434 30.4374C19.9197 30.5482 24.1267 33.128 29.2082 33.128C31.454 33.128 33.5361 32.621 35.3976 31.6207C35.8541 31.3738 36.0892 30.8537 35.9699 30.3485Z" fill="#E6E9ED"/>
<path d="M32.6063 39.6043L36.7656 43.4044L37.8062 41.3465L32.6063 39.6043Z" fill="#CFD1D5"/>
<path d="M16.1237 14.7773L18.1739 9.00334C18.0421 9.00162 17.9096 9 17.777 9C17.1007 9 16.4149 9.02021 15.7217 9.06038L13.8654 14.2905C14.5963 14.4299 15.3525 14.591 16.1237 14.7773Z" fill="#F6BB42"/>
<path d="M19.1953 15.6451C19.9372 15.8851 20.6564 16.1452 21.3521 16.4205L23.6701 9.55218C22.9156 9.40447 22.1485 9.28866 21.3706 9.19972L19.1953 15.6451Z" fill="#F6BB42"/>
<path d="M25.1674 18.24C25.5551 18.4616 25.931 18.6899 26.297 18.9249L29.5757 11.4053C29.1284 11.2056 28.6744 11.0159 28.2137 10.8396C27.9595 10.7423 27.7026 10.6517 27.4442 10.561L24.3021 17.7683C24.5958 17.9211 24.8846 18.0789 25.1674 18.24Z" fill="#F6BB42"/>
</svg>

