<svg width="64" height="64" viewBox="0 0 64 64" fill="none" xmlns="http://www.w3.org/2000/svg">
<path d="M30.8205 57.881L31.5001 58.1265L32.1796 57.881C37.7691 55.8617 44.2683 51.2724 49.6222 45.5872C54.9497 39.9302 59.3914 32.9243 60.5506 25.8941C60.8339 24.6788 61 23.4044 61 22.0779C61 12.6342 53.2997 5 43.8285 5C38.9829 5 34.6171 7.00272 31.5 10.2073C28.383 7.00277 24.0174 5 19.1731 5C9.70057 5 2 12.6324 2 22.0779C2 23.4039 2.16636 24.6776 2.44592 25.8902C3.60602 32.9218 8.04841 39.929 13.3768 45.587C18.731 51.2724 25.2302 55.8617 30.8205 57.881Z" fill="#FF5959" stroke="white" stroke-width="4"/>
</svg>
