<svg width="64" height="64" viewBox="0 0 64 64" fill="none" xmlns="http://www.w3.org/2000/svg">
<path d="M30.3833 16.0013L32 18.2213L33.6167 16.0013C36.2589 12.3733 40.564 10 45.4493 10C53.5127 10 60 16.4339 60 24.3087C60 25.4134 59.858 26.4929 59.6054 27.5486L59.5883 27.6198L59.5765 27.6921C58.5198 34.1708 54.2698 41.0455 48.7312 46.8767C43.434 52.4539 37.1893 56.8324 32 58.8642C26.8099 56.8324 20.5652 52.4539 15.2677 46.8765C9.72901 41.0452 5.47842 34.1699 4.42003 27.69L4.40869 27.6206L4.3925 27.5521C4.142 26.4929 4 25.4117 4 24.3087C4 16.4325 10.487 10 18.5524 10C23.4359 10 27.741 12.3732 30.3833 16.0013Z" fill="#FF5959" stroke="white" stroke-width="4"/>
</svg>
