<svg width="64" height="64" viewBox="0 0 64 64" fill="none" xmlns="http://www.w3.org/2000/svg">
<mask id="path-1-outside-1_2_79" maskUnits="userSpaceOnUse" x="3" y="3" width="57" height="57" fill="black">
<rect fill="white" x="3" y="3" width="57" height="57"/>
<path d="M56 31.5C56 45.0308 45.0308 56 31.5 56C17.9706 56 7 45.0308 7 31.5C7 17.9706 17.9706 7 31.5 7C45.0308 7 56 17.9706 56 31.5Z"/>
<path d="M45.7331 31.2237C45.6515 31.0399 43.6928 26.7361 39.6667 26.7361C35.6419 26.7361 33.6819 31.0399 33.6002 31.2237C33.475 31.5054 33.5566 31.8348 33.7976 32.0281C34.0358 32.2214 34.3774 32.2282 34.6278 32.0472C34.6442 32.0349 36.3456 30.8194 39.6667 30.8194C42.9687 30.8194 44.6674 32.0186 44.7055 32.0458C44.8253 32.1356 44.9696 32.1806 45.1111 32.1806C45.2608 32.1806 45.4119 32.1302 45.5358 32.0322C45.7767 31.8389 45.8597 31.5068 45.7331 31.2237ZM29.3998 31.2237C29.3181 31.0399 27.3595 26.7361 23.3333 26.7361C19.3085 26.7361 17.3485 31.0399 17.2669 31.2237C17.1416 31.5054 17.2233 31.8348 17.4629 32.0281C17.7024 32.2214 18.0441 32.2282 18.2931 32.0472C18.3108 32.0349 20.0109 30.8194 23.3333 30.8194C26.6354 30.8194 28.3341 32.0186 28.3722 32.0458C28.4919 32.1356 28.6362 32.1806 28.7778 32.1806C28.9275 32.1806 29.0786 32.1302 29.2024 32.0322C29.4447 31.8389 29.525 31.5068 29.3998 31.2237ZM49.1944 28.7778C48.6554 28.7778 48.1437 28.4538 47.93 27.9216C45.5099 21.8715 39.4598 20.5975 39.3985 20.5839C38.6622 20.4369 38.1831 19.7196 38.3314 18.9819C38.4784 18.2441 39.1957 17.7691 39.9334 17.9148C40.2411 17.976 47.4958 19.5045 50.4576 26.909C50.7366 27.6072 50.3963 28.3994 49.6981 28.6784C49.5347 28.7465 49.3632 28.7778 49.1944 28.7778ZM13.8056 28.7778C13.6368 28.7778 13.4666 28.7465 13.3006 28.6798C12.6023 28.4008 12.2634 27.6086 12.5424 26.9103C15.5042 19.5059 22.7589 17.9774 23.0666 17.9161C23.8056 17.7718 24.5202 18.2469 24.6686 18.9832C24.8156 19.7182 24.3392 20.4342 23.6056 20.5839C23.3538 20.6356 17.4724 21.9178 15.07 27.9216C14.8563 28.4538 14.3446 28.7778 13.8056 28.7778ZM31.5 36.9444C26.5687 36.9444 23.2966 36.3701 19.25 35.5833C18.3258 35.405 16.5278 35.5833 16.5278 38.3056C16.5278 43.75 22.7821 50.5556 31.5 50.5556C40.2166 50.5556 46.4722 43.75 46.4722 38.3056C46.4722 35.5833 44.6742 35.4037 43.75 35.5833C39.7034 36.3701 36.4313 36.9444 31.5 36.9444Z"/>
<path d="M19.25 38.3056C19.25 38.3056 23.3333 39.6667 31.5 39.6667C39.6667 39.6667 43.75 38.3056 43.75 38.3056C43.75 38.3056 41.0278 43.75 31.5 43.75C21.9722 43.75 19.25 38.3056 19.25 38.3056Z"/>
<path d="M21.764 45.4228C20.8384 49.0665 17.1362 51.2688 13.4925 50.3432C9.85017 49.419 7.64653 45.7168 8.57072 42.0731C9.49492 38.4294 17.1961 30.2206 18.5164 30.5554C19.8366 30.8916 22.6882 41.7805 21.764 45.4228ZM41.2088 45.4228C42.1344 49.0665 45.8366 51.2688 49.4803 50.3432C53.124 49.419 55.3276 45.7168 54.4021 42.0731C53.4765 38.4294 45.7753 30.2206 44.4551 30.5554C43.1375 30.8916 40.2846 41.7805 41.2088 45.4228Z"/>
</mask>
<path d="M56 31.5C56 45.0308 45.0308 56 31.5 56C17.9706 56 7 45.0308 7 31.5C7 17.9706 17.9706 7 31.5 7C45.0308 7 56 17.9706 56 31.5Z" fill="#FFCC4D"/>
<path d="M45.7331 31.2237C45.6515 31.0399 43.6928 26.7361 39.6667 26.7361C35.6419 26.7361 33.6819 31.0399 33.6002 31.2237C33.475 31.5054 33.5566 31.8348 33.7976 32.0281C34.0358 32.2214 34.3774 32.2282 34.6278 32.0472C34.6442 32.0349 36.3456 30.8194 39.6667 30.8194C42.9687 30.8194 44.6674 32.0186 44.7055 32.0458C44.8253 32.1356 44.9696 32.1806 45.1111 32.1806C45.2608 32.1806 45.4119 32.1302 45.5358 32.0322C45.7767 31.8389 45.8597 31.5068 45.7331 31.2237ZM29.3998 31.2237C29.3181 31.0399 27.3595 26.7361 23.3333 26.7361C19.3085 26.7361 17.3485 31.0399 17.2669 31.2237C17.1416 31.5054 17.2233 31.8348 17.4629 32.0281C17.7024 32.2214 18.0441 32.2282 18.2931 32.0472C18.3108 32.0349 20.0109 30.8194 23.3333 30.8194C26.6354 30.8194 28.3341 32.0186 28.3722 32.0458C28.4919 32.1356 28.6362 32.1806 28.7778 32.1806C28.9275 32.1806 29.0786 32.1302 29.2024 32.0322C29.4447 31.8389 29.525 31.5068 29.3998 31.2237ZM49.1944 28.7778C48.6554 28.7778 48.1437 28.4538 47.93 27.9216C45.5099 21.8715 39.4598 20.5975 39.3985 20.5839C38.6622 20.4369 38.1831 19.7196 38.3314 18.9819C38.4784 18.2441 39.1957 17.7691 39.9334 17.9148C40.2411 17.976 47.4958 19.5045 50.4576 26.909C50.7366 27.6072 50.3963 28.3994 49.6981 28.6784C49.5347 28.7465 49.3632 28.7778 49.1944 28.7778ZM13.8056 28.7778C13.6368 28.7778 13.4666 28.7465 13.3006 28.6798C12.6023 28.4008 12.2634 27.6086 12.5424 26.9103C15.5042 19.5059 22.7589 17.9774 23.0666 17.9161C23.8056 17.7718 24.5202 18.2469 24.6686 18.9832C24.8156 19.7182 24.3392 20.4342 23.6056 20.5839C23.3538 20.6356 17.4724 21.9178 15.07 27.9216C14.8563 28.4538 14.3446 28.7778 13.8056 28.7778ZM31.5 36.9444C26.5687 36.9444 23.2966 36.3701 19.25 35.5833C18.3258 35.405 16.5278 35.5833 16.5278 38.3056C16.5278 43.75 22.7821 50.5556 31.5 50.5556C40.2166 50.5556 46.4722 43.75 46.4722 38.3056C46.4722 35.5833 44.6742 35.4037 43.75 35.5833C39.7034 36.3701 36.4313 36.9444 31.5 36.9444Z" fill="#664500"/>
<path d="M19.25 38.3056C19.25 38.3056 23.3333 39.6667 31.5 39.6667C39.6667 39.6667 43.75 38.3056 43.75 38.3056C43.75 38.3056 41.0278 43.75 31.5 43.75C21.9722 43.75 19.25 38.3056 19.25 38.3056Z" fill="white"/>
<path d="M21.764 45.4228C20.8384 49.0665 17.1362 51.2688 13.4925 50.3432C9.85017 49.419 7.64653 45.7168 8.57072 42.0731C9.49492 38.4294 17.1961 30.2206 18.5164 30.5554C19.8366 30.8916 22.6882 41.7805 21.764 45.4228ZM41.2088 45.4228C42.1344 49.0665 45.8366 51.2688 49.4803 50.3432C53.124 49.419 55.3276 45.7168 54.4021 42.0731C53.4765 38.4294 45.7753 30.2206 44.4551 30.5554C43.1375 30.8916 40.2846 41.7805 41.2088 45.4228Z" fill="#5DADEC"/>
<path d="M45.7331 31.2237L42.0779 32.8483L42.0815 32.8564L45.7331 31.2237ZM33.6002 31.2237L37.2554 32.8483L37.2554 32.8483L33.6002 31.2237ZM33.7976 32.0281L36.3179 28.922L36.3093 28.915L36.3006 28.9081L33.7976 32.0281ZM34.6278 32.0472L36.9711 35.289L36.9996 35.2683L37.0278 35.2472L34.6278 32.0472ZM44.7055 32.0458L47.1055 28.8458L47.0683 28.8179L47.0305 28.7909L44.7055 32.0458ZM45.5358 32.0322L48.0177 35.1691L48.0283 35.1607L48.0389 35.1522L45.5358 32.0322ZM29.3998 31.2237L33.058 29.6057L33.0551 29.5991L29.3998 31.2237ZM17.2669 31.2237L20.9221 32.8483L17.2669 31.2237ZM18.2931 32.0472L16.0163 28.7584L15.9786 28.7845L15.9415 28.8115L18.2931 32.0472ZM28.3722 32.0458L30.7722 28.8458L30.735 28.8179L30.6971 28.7909L28.3722 32.0458ZM29.2024 32.0322L31.6844 35.1691L31.6907 35.1641L31.6969 35.1591L29.2024 32.0322ZM47.93 27.9216L44.2161 29.4072L44.218 29.4121L47.93 27.9216ZM39.3985 20.5839L40.2663 16.6791L40.224 16.6698L40.1816 16.6613L39.3985 20.5839ZM38.3314 18.9819L42.2529 19.7705L42.2543 19.7635L38.3314 18.9819ZM39.9334 17.9148L40.7146 13.9918L40.7082 13.9905L39.9334 17.9148ZM50.4576 26.909L54.172 25.4247L54.1715 25.4234L50.4576 26.909ZM49.6981 28.6784L48.2137 24.964L48.1866 24.9749L48.1596 24.9861L49.6981 28.6784ZM13.3006 28.6798L14.7914 24.968L14.7849 24.9654L13.3006 28.6798ZM12.5424 26.9103L8.82854 25.4248L8.82804 25.426L12.5424 26.9103ZM23.0666 17.9161L22.3002 13.9902L22.2928 13.9917L22.2854 13.9931L23.0666 17.9161ZM24.6686 18.9832L28.5909 18.1988L28.5898 18.1932L24.6686 18.9832ZM23.6056 20.5839L22.8057 16.6647L22.8007 16.6657L23.6056 20.5839ZM15.07 27.9216L18.782 29.4121L18.7838 29.4076L15.07 27.9216ZM19.25 35.5833L20.0134 31.6568L20.0077 31.6558L19.25 35.5833ZM43.75 35.5833L42.9867 31.6568L42.9866 31.6569L43.75 35.5833ZM19.25 38.3056L20.5149 34.5108L11.3536 31.4571L15.6723 40.0944L19.25 38.3056ZM43.75 38.3056L47.3277 40.0944L51.6464 31.4571L42.4851 34.5108L43.75 38.3056ZM21.764 45.4228L25.6409 46.4076L25.6411 46.4066L21.764 45.4228ZM13.4925 50.3432L14.4773 46.4663L14.4763 46.4661L13.4925 50.3432ZM18.5164 30.5554L19.5034 26.6791L19.4997 26.6781L18.5164 30.5554ZM41.2088 45.4228L37.3317 46.4066L37.3319 46.4076L41.2088 45.4228ZM49.4803 50.3432L48.4969 46.466L48.4955 46.4663L49.4803 50.3432ZM44.4551 30.5554L43.4718 26.6781L43.4661 26.6796L44.4551 30.5554ZM52 31.5C52 42.8217 42.8217 52 31.5 52V60C47.2399 60 60 47.2399 60 31.5H52ZM31.5 52C20.1796 52 11 42.8215 11 31.5H3C3 47.2401 15.7616 60 31.5 60V52ZM11 31.5C11 20.1797 20.1797 11 31.5 11V3C15.7614 3 3 15.7614 3 31.5H11ZM31.5 11C42.8215 11 52 20.1796 52 31.5H60C60 15.7616 47.2401 3 31.5 3V11ZM49.3884 29.5991C49.2659 29.3235 48.5481 27.7641 47.1333 26.2143C45.717 24.6627 43.2297 22.7361 39.6667 22.7361V30.7361C40.1298 30.7361 40.6349 30.9614 41.2248 31.6077C41.8163 32.2557 42.1187 32.9402 42.0779 32.8483L49.3884 29.5991ZM39.6667 22.7361C36.1041 22.7361 33.6168 24.663 32.2007 26.214C30.786 27.7635 30.0679 29.3225 29.9449 29.5991L37.2554 32.8483C37.2142 32.9411 37.5168 32.2563 38.1088 31.608C38.6993 30.9612 39.2044 30.7361 39.6667 30.7361V22.7361ZM29.9449 29.5991C29.0737 31.5595 29.6531 33.8313 31.2945 35.1481L36.3006 28.9081C37.4602 29.8384 37.8763 31.4514 37.2554 32.8483L29.9449 29.5991ZM31.2772 35.1342C32.9499 36.4914 35.287 36.5063 36.9711 35.289L32.2846 28.8054C33.4678 27.9501 35.1216 27.9513 36.3179 28.922L31.2772 35.1342ZM37.0278 35.2472C36.4733 35.6631 37.3515 34.8194 39.6667 34.8194V26.8194C35.3396 26.8194 32.8151 28.4067 32.2278 28.8472L37.0278 35.2472ZM39.6667 34.8194C41.9476 34.8194 42.8505 35.6364 42.3805 35.3007L47.0305 28.7909C46.4843 28.4008 43.9898 26.8194 39.6667 26.8194V34.8194ZM42.3055 35.2458C43.1442 35.8748 44.1378 36.1806 45.1111 36.1806V28.1806C45.8013 28.1806 46.5064 28.3965 47.1055 28.8458L42.3055 35.2458ZM45.1111 36.1806C46.1485 36.1806 47.1771 35.8342 48.0177 35.1691L43.0539 28.8953C43.6468 28.4262 44.3731 28.1806 45.1111 28.1806V36.1806ZM48.0389 35.1522C49.6783 33.837 50.2648 31.5593 49.3848 29.591L42.0815 32.8564C41.4546 31.4543 41.8751 29.8409 43.0327 28.9122L48.0389 35.1522ZM33.0551 29.5991C32.9325 29.3235 32.2148 27.7641 30.8 26.2143C29.3837 24.6627 26.8963 22.7361 23.3333 22.7361V30.7361C23.7965 30.7361 24.3015 30.9614 24.8915 31.6077C25.483 32.2557 25.7854 32.9402 25.7446 32.8483L33.0551 29.5991ZM23.3333 22.7361C19.7708 22.7361 17.2835 24.663 15.8674 26.214C14.4527 27.7635 13.7346 29.3225 13.6116 29.5991L20.9221 32.8483C20.8808 32.9411 21.1835 32.2563 21.7754 31.608C22.366 30.9612 22.8711 30.7361 23.3333 30.7361V22.7361ZM13.6116 29.5991C12.7414 31.5572 13.3187 33.8241 14.9512 35.1412L19.9746 28.915C21.1279 29.8455 21.5419 31.4537 20.9221 32.8483L13.6116 29.5991ZM14.9512 35.1412C16.6142 36.483 18.9503 36.5144 20.6448 35.2829L15.9415 28.8115C17.1378 27.942 18.7906 27.9598 19.9746 28.915L14.9512 35.1412ZM20.57 35.3359C20.6047 35.3119 20.5641 35.34 20.5488 35.3503C20.5306 35.3626 20.5174 35.371 20.5092 35.3762C20.493 35.3864 20.4981 35.3824 20.5245 35.3682C20.5772 35.3397 20.7149 35.2698 20.9371 35.1893C21.3749 35.0306 22.1701 34.8194 23.3333 34.8194V26.8194C21.1741 26.8194 19.4581 27.216 18.2108 27.6681C17.5904 27.893 17.0922 28.1293 16.7174 28.3321C16.5299 28.4336 16.3734 28.5266 16.2478 28.6056C16.185 28.6452 16.1302 28.681 16.0836 28.7124C16.0398 28.7419 15.9838 28.7809 16.0163 28.7584L20.57 35.3359ZM23.3333 34.8194C25.6143 34.8194 26.5171 35.6364 26.0472 35.3007L30.6971 28.7909C30.151 28.4008 27.6565 26.8194 23.3333 26.8194V34.8194ZM25.9722 35.2458C26.8108 35.8748 27.8045 36.1806 28.7778 36.1806V28.1806C29.468 28.1806 30.173 28.3965 30.7722 28.8458L25.9722 35.2458ZM28.7778 36.1806C29.8152 36.1806 30.8437 35.8342 31.6844 35.1691L26.7205 28.8953C27.3135 28.4262 28.0398 28.1806 28.7778 28.1806V36.1806ZM31.6969 35.1591C33.3691 33.8251 33.9138 31.5406 33.0579 29.6057L25.7417 32.8417C25.1363 31.473 25.5204 29.8527 26.708 28.9053L31.6969 35.1591ZM49.1944 24.7778C50.2368 24.7778 51.2276 25.3994 51.6419 26.4312L44.218 29.4121C45.0597 31.5083 47.0741 32.7778 49.1944 32.7778V24.7778ZM51.6439 26.4361C50.0204 22.3775 47.1729 19.9381 44.8138 18.5449C43.6361 17.8493 42.553 17.3965 41.7446 17.1121C41.3381 16.9691 40.9946 16.8664 40.7349 16.7956C40.6048 16.7602 40.4953 16.7326 40.4092 16.712C40.3206 16.6908 40.2516 16.6759 40.2663 16.6791L38.5308 24.4886C38.5531 24.4936 38.5386 24.4902 38.5465 24.4921C38.5569 24.4946 38.5861 24.5018 38.632 24.5143C38.7243 24.5394 38.8824 24.5858 39.0896 24.6586C39.5085 24.806 40.1006 25.0524 40.7456 25.4333C42.0319 26.1929 43.4195 27.4157 44.2161 29.4072L51.6439 26.4361ZM40.1816 16.6613C41.6112 16.9467 42.5411 18.3376 42.2529 19.7705L34.4099 18.1932C33.8251 21.1015 35.7132 23.9271 38.6155 24.5065L40.1816 16.6613ZM42.2543 19.7635C41.966 21.2104 40.5647 22.1166 39.1587 21.839L40.7082 13.9905C37.8267 13.4216 34.9908 15.2778 34.4085 18.2002L42.2543 19.7635ZM39.1523 21.8377C39.0418 21.8157 40.4598 22.0924 42.1628 23.1004C43.8322 24.0885 45.6696 25.7095 46.7436 28.3945L54.1715 25.4234C50.4029 16.002 41.2686 14.1021 40.7146 13.9918L39.1523 21.8377ZM46.7432 28.3933C46.2016 27.038 46.8627 25.5039 48.2137 24.964L51.1824 32.3928C53.9299 31.2949 55.2716 28.1764 54.172 25.4247L46.7432 28.3933ZM48.1596 24.9861C48.5144 24.8383 48.8694 24.7778 49.1944 24.7778V32.7778C49.857 32.7778 50.555 32.6547 51.2365 32.3707L48.1596 24.9861ZM13.8056 24.7778C14.1382 24.7778 14.4748 24.8408 14.7914 24.968L11.8098 32.3916C12.4584 32.6521 13.1354 32.7778 13.8056 32.7778V24.7778ZM14.7849 24.9654C16.1422 25.5078 16.7959 27.0456 16.2569 28.3946L8.82804 25.426C7.73091 28.1715 9.06246 31.2937 11.8163 32.3942L14.7849 24.9654ZM16.2564 28.3959C17.3304 25.7108 19.1678 24.0898 20.8372 23.1018C22.5402 22.0938 23.9582 21.8171 23.8477 21.8391L22.2854 13.9931C21.7314 14.1034 12.5971 16.0033 8.82854 25.4248L16.2564 28.3959ZM23.8329 21.842C22.4298 22.1159 21.0369 21.21 20.7474 19.7733L28.5898 18.1932C28.0036 15.2837 25.1814 13.4278 22.3002 13.9902L23.8329 21.842ZM20.7463 19.7677C20.4605 18.339 21.3843 16.9548 22.8057 16.6647L24.4054 24.5031C27.2941 23.9136 29.1706 21.0974 28.5909 18.1988L20.7463 19.7677ZM22.8007 16.6657C22.2993 16.7687 14.5592 18.431 11.3563 26.4356L18.7838 29.4076C19.5802 27.4172 20.9404 26.2051 22.1969 25.4539C23.4859 24.6832 24.5511 24.4732 24.4104 24.5021L22.8007 16.6657ZM11.3581 26.4312C11.7724 25.3994 12.7632 24.7778 13.8056 24.7778V32.7778C15.926 32.7778 17.9403 31.5083 18.782 29.4121L11.3581 26.4312ZM31.5 32.9444C26.9533 32.9444 23.9774 32.4275 20.0134 31.6569L18.4866 39.5098C22.6158 40.3126 26.1841 40.9444 31.5 40.9444V32.9444ZM20.0077 31.6558C19.0058 31.4625 17.1437 31.3598 15.3821 32.4902C13.3448 33.7975 12.5278 36.0206 12.5278 38.3056H20.5278C20.5278 38.0525 20.5708 38.1318 20.4554 38.3821C20.3234 38.6683 20.0707 38.987 19.7025 39.2233C19.3661 39.4391 19.0619 39.505 18.8897 39.5247C18.7242 39.5436 18.597 39.5311 18.4923 39.5109L20.0077 31.6558ZM12.5278 38.3056C12.5278 42.4687 14.8315 46.5392 18.0726 49.4488C21.4 52.4358 26.0769 54.5556 31.5 54.5556V46.5556C28.2052 46.5556 25.396 45.2725 23.4168 43.4957C21.3512 41.6413 20.5278 39.5869 20.5278 38.3056H12.5278ZM31.5 54.5556C36.9225 54.5556 41.5994 52.4358 44.9268 49.4489C48.1679 46.5395 50.4722 42.469 50.4722 38.3056H42.4722C42.4722 39.5866 41.6487 41.6411 39.5828 43.4956C37.6033 45.2726 34.794 46.5556 31.5 46.5556V54.5556ZM50.4722 38.3056C50.4722 36.0209 49.6554 33.7977 47.6186 32.4902C45.8566 31.359 43.9933 31.4612 42.9867 31.6568L44.5133 39.5098C44.4063 39.5306 44.2776 39.5432 44.1111 39.5242C43.9378 39.5044 43.6333 39.4383 43.2968 39.2223C42.9286 38.986 42.6762 38.6673 42.5445 38.3816C42.4292 38.1316 42.4722 38.0525 42.4722 38.3056H50.4722ZM42.9866 31.6569C39.0226 32.4275 36.0467 32.9444 31.5 32.9444V40.9444C36.8159 40.9444 40.3842 40.3126 44.5134 39.5098L42.9866 31.6569ZM19.25 38.3056C17.9851 42.1003 17.9862 42.1007 17.9874 42.101C17.9878 42.1012 17.9889 42.1016 17.9897 42.1018C17.9913 42.1024 17.993 42.1029 17.9947 42.1035C17.9982 42.1046 18.0019 42.1059 18.0059 42.1072C18.0139 42.1098 18.0228 42.1127 18.0328 42.1159C18.0527 42.1224 18.0767 42.13 18.1048 42.1388C18.1608 42.1563 18.233 42.1783 18.3214 42.204C18.4982 42.2556 18.7395 42.3223 19.0455 42.3988C19.6575 42.5518 20.5273 42.7438 21.6549 42.9317C23.9109 43.3077 27.1933 43.6667 31.5 43.6667V35.6667C27.64 35.6667 24.7974 35.3451 22.9701 35.0405C22.056 34.8882 21.3946 34.7399 20.9858 34.6377C20.7813 34.5865 20.6398 34.5469 20.5614 34.524C20.5222 34.5126 20.4987 34.5053 20.491 34.5029C20.4871 34.5017 20.4871 34.5017 20.4911 34.503C20.4931 34.5036 20.4961 34.5046 20.5001 34.5059C20.5021 34.5066 20.5043 34.5073 20.5068 34.5081C20.508 34.5085 20.5093 34.509 20.5106 34.5094C20.5113 34.5096 20.5124 34.51 20.5127 34.5101C20.5138 34.5105 20.5149 34.5108 19.25 38.3056ZM31.5 43.6667C35.8067 43.6667 39.0891 43.3077 41.3451 42.9317C42.4727 42.7438 43.3426 42.5518 43.9545 42.3988C44.2605 42.3223 44.5018 42.2556 44.6786 42.204C44.767 42.1783 44.8392 42.1563 44.8952 42.1388C44.9233 42.13 44.9473 42.1224 44.9672 42.1159C44.9772 42.1127 44.9861 42.1098 44.9941 42.1072C44.9981 42.1059 45.0018 42.1046 45.0053 42.1035C45.007 42.1029 45.0087 42.1024 45.0103 42.1018C45.0111 42.1016 45.0122 42.1012 45.0126 42.101C45.0138 42.1007 45.0149 42.1003 43.75 38.3056C42.4851 34.5108 42.4862 34.5105 42.4873 34.5101C42.4876 34.51 42.4887 34.5096 42.4894 34.5094C42.4907 34.509 42.492 34.5085 42.4932 34.5081C42.4957 34.5073 42.4979 34.5066 42.4999 34.5059C42.5039 34.5046 42.5069 34.5036 42.5089 34.503C42.5129 34.5017 42.5129 34.5017 42.509 34.5029C42.5013 34.5053 42.4778 34.5126 42.4386 34.524C42.3602 34.5469 42.2187 34.5865 42.0142 34.6377C41.6054 34.7399 40.944 34.8882 40.0299 35.0405C38.2026 35.3451 35.36 35.6667 31.5 35.6667V43.6667ZM43.75 38.3056C40.1723 36.5167 40.1735 36.5143 40.1747 36.5119C40.1751 36.5111 40.1763 36.5087 40.1771 36.5072C40.1786 36.504 40.1802 36.501 40.1817 36.4981C40.1847 36.4921 40.1875 36.4865 40.1903 36.4812C40.1957 36.4706 40.2006 36.4612 40.205 36.4529C40.2138 36.4364 40.2203 36.4244 40.2246 36.4167C40.2331 36.4014 40.2327 36.4031 40.2224 36.4195C40.2018 36.4525 40.1429 36.543 40.0396 36.6734C39.8335 36.9338 39.4527 37.351 38.8452 37.7928C37.6785 38.6413 35.445 39.75 31.5 39.75V47.75C37.0827 47.75 40.9743 46.1364 43.5506 44.2627C44.8146 43.3434 45.7099 42.3996 46.312 41.6391C46.6128 41.2591 46.841 40.9242 47.0064 40.6595C47.0892 40.527 47.1565 40.4117 47.2096 40.3167C47.2362 40.2691 47.2592 40.2266 47.2788 40.1894C47.2886 40.1709 47.2976 40.1536 47.3057 40.1378C47.3098 40.1299 47.3137 40.1223 47.3173 40.115C47.3192 40.1114 47.3209 40.1079 47.3227 40.1045C47.3235 40.1027 47.3248 40.1002 47.3252 40.0994C47.3265 40.0969 47.3277 40.0944 43.75 38.3056ZM31.5 39.75C27.555 39.75 25.3215 38.6413 24.1548 37.7928C23.5473 37.351 23.1665 36.9338 22.9604 36.6734C22.8571 36.543 22.7982 36.4525 22.7776 36.4195C22.7673 36.4031 22.7669 36.4014 22.7754 36.4167C22.7797 36.4244 22.7862 36.4364 22.795 36.4529C22.7994 36.4612 22.8043 36.4706 22.8097 36.4812C22.8125 36.4865 22.8153 36.4921 22.8183 36.4981C22.8198 36.501 22.8214 36.504 22.8229 36.5072C22.8237 36.5087 22.8249 36.5111 22.8253 36.5119C22.8265 36.5143 22.8277 36.5167 19.25 38.3056C15.6723 40.0944 15.6735 40.0969 15.6748 40.0994C15.6752 40.1002 15.6765 40.1027 15.6773 40.1045C15.6791 40.1079 15.6808 40.1114 15.6827 40.115C15.6863 40.1223 15.6902 40.1299 15.6943 40.1378C15.7024 40.1536 15.7114 40.1709 15.7212 40.1894C15.7408 40.2266 15.7639 40.2691 15.7904 40.3167C15.8435 40.4117 15.9108 40.527 15.9936 40.6595C16.1591 40.9242 16.3872 41.2591 16.688 41.6391C17.2901 42.3996 18.1854 43.3434 19.4494 44.2627C22.0257 46.1364 25.9173 47.75 31.5 47.75V39.75ZM17.8871 44.438C17.5054 45.9405 15.9799 46.848 14.4773 46.4663L12.5077 54.2201C18.2925 55.6895 24.1714 52.1925 25.6409 46.4076L17.8871 44.438ZM14.4763 46.4661C12.9758 46.0854 12.0667 44.5598 12.4479 43.0565L4.6935 41.0897C3.22639 46.8739 6.72452 52.7527 12.5087 54.2204L14.4763 46.4661ZM12.4479 43.0565C12.4474 43.0586 12.4513 43.0432 12.4629 43.0091C12.4744 42.9753 12.4919 42.9281 12.5171 42.8669C12.5685 42.7426 12.6435 42.5814 12.7482 42.3827C12.9598 41.981 13.2552 41.4966 13.6314 40.9462C14.3848 39.8438 15.3612 38.6238 16.3762 37.4892C17.3974 36.3477 18.3785 35.3809 19.1175 34.7562C19.5003 34.4327 19.7175 34.2869 19.778 34.2512C19.8127 34.2308 19.6919 34.3085 19.4507 34.3881C19.2939 34.4398 18.5344 34.6866 17.5331 34.4326L19.4997 26.6781C18.3333 26.3823 17.3589 26.654 16.9438 26.791C16.4442 26.9558 16.0218 27.1791 15.7177 27.3582C15.1008 27.7216 14.4924 28.1907 13.9531 28.6465C12.848 29.5807 11.5985 30.8311 10.4138 32.1554C9.22295 33.4866 8.01827 34.9811 7.02655 36.4322C6.10706 37.7776 5.10707 39.4591 4.6935 41.0897L12.4479 43.0565ZM17.5293 34.4317C16.5288 34.1769 15.9794 33.5979 15.8664 33.4777C15.6925 33.2928 15.6235 33.1671 15.6443 33.2016C15.6805 33.262 15.8018 33.4938 15.9839 33.9608C16.3354 34.8626 16.7365 36.1804 17.0895 37.671C17.4403 39.1525 17.7166 40.6907 17.853 42.0191C17.9211 42.6823 17.9498 43.2492 17.9442 43.7032C17.9415 43.9278 17.9306 44.1054 17.9164 44.2392C17.9095 44.305 17.9023 44.3549 17.8963 44.3901C17.8903 44.4257 17.8863 44.4411 17.8868 44.439L25.6411 46.4066C26.0546 44.7769 25.9776 42.8226 25.8112 41.2018C25.6316 39.4536 25.2858 37.5656 24.8742 35.8276C24.4648 34.0986 23.9632 32.4035 23.4376 31.0553C23.1811 30.3973 22.8703 29.6948 22.5015 29.0811C22.3197 28.7786 22.055 28.3809 21.6948 27.9978C21.3954 27.6793 20.669 26.9759 19.5034 26.6791L17.5293 34.4317ZM37.3319 46.4076C38.8014 52.1925 44.6803 55.6895 50.4651 54.2201L48.4955 46.4663C46.9929 46.848 45.4673 45.9405 45.0857 44.438L37.3319 46.4076ZM50.4637 54.2204C56.249 52.753 59.7486 46.8739 58.2789 41.0883L50.5252 43.0579C50.9067 44.5597 49.9989 46.085 48.4969 46.466L50.4637 54.2204ZM58.2789 41.0883C57.8649 39.4584 56.8649 37.7772 55.9452 36.4319C54.9533 34.9809 53.7486 33.4864 52.5577 32.1553C51.373 30.8311 50.1234 29.5806 49.0183 28.6465C48.479 28.1906 47.8706 27.7216 47.2537 27.3582C46.9496 27.1791 46.5272 26.9558 46.0276 26.791C45.6125 26.654 44.6381 26.3823 43.4718 26.6781L45.4384 34.4326C44.4371 34.6866 43.6775 34.4398 43.5207 34.3881C43.2795 34.3085 43.1588 34.2308 43.1934 34.2512C43.254 34.2869 43.4711 34.4327 43.8539 34.7563C44.593 35.381 45.5742 36.3477 46.5955 37.4893C47.6106 38.624 48.5872 39.844 49.3409 40.9465C49.7171 41.497 50.0127 41.9815 50.2244 42.3833C50.3292 42.5821 50.4043 42.7434 50.4558 42.8678C50.4811 42.929 50.4986 42.9763 50.5101 43.0102C50.5218 43.0444 50.5257 43.0599 50.5252 43.0579L58.2789 41.0883ZM43.4661 26.6796C42.2996 26.9772 41.5735 27.6821 41.2751 27.9999C40.9155 28.383 40.6512 28.7805 40.4698 29.0828C40.1016 29.6961 39.7912 30.3982 39.5349 31.056C39.0098 32.4039 38.5083 34.0987 38.0989 35.8276C37.6874 37.5655 37.3415 39.4534 37.1618 41.2015C36.9953 42.8223 36.9181 44.7768 37.3317 46.4066L45.0859 44.439C45.0865 44.4411 45.0825 44.4257 45.0765 44.3902C45.0705 44.355 45.0633 44.3052 45.0564 44.2393C45.0423 44.1055 45.0313 43.928 45.0286 43.7034C45.0231 43.2494 45.0517 42.6826 45.1199 42.0193C45.2564 40.6909 45.5328 39.1527 45.8836 37.671C46.2366 36.1804 46.6377 34.8623 46.9892 33.9601C47.1712 33.4929 47.2925 33.2607 47.329 33.1999C47.3499 33.1652 47.2811 33.2907 47.1076 33.4755C46.9953 33.5952 46.4458 34.1756 45.444 34.4312L43.4661 26.6796Z" fill="white" mask="url(#path-1-outside-1_2_79)"/>
</svg>
