<svg width="64" height="64" viewBox="0 0 64 64" fill="none" xmlns="http://www.w3.org/2000/svg">
<mask id="path-1-outside-1_2_4" maskUnits="userSpaceOnUse" x="1" y="0" width="63" height="64" fill="black">
<rect fill="white" x="1" width="63" height="64"/>
<path d="M22.4389 15.3507C22.2709 15.5186 22.1434 15.7209 22.0369 15.9428L21.7999 16.4181L5.20096 53.7987L5.21746 53.8152C4.90547 54.4192 5.42746 55.6482 6.49696 56.7184C7.56495 57.7856 9.19548 59.2696 9.79998 58.9578L20.5999 53.8152L47.3148 41.201L47.3028 41.1875C47.5248 41.0826 47.7258 40.9552 47.8953 40.7859C50.2382 38.4447 46.4388 30.8531 39.4098 23.8296C32.3808 16.8046 24.7819 13.0096 22.4389 15.3507Z"/>
<path d="M24.4999 22.113L5.62396 52.848L5.20096 53.7987L5.21746 53.8152C4.90547 54.4207 5.42746 55.6482 6.49696 56.7184C6.84496 57.0661 6.91691 57.2343 7.27241 57.4576L30.4998 29.6071L24.4999 22.113Z"/>
<path d="M39.5174 23.7106C46.5224 30.7131 50.4119 38.1773 48.2009 40.3836C45.9914 42.5928 38.5214 38.7079 31.512 31.7084C24.5055 24.7058 20.6175 17.2402 22.827 15.0324C25.038 12.8231 32.5079 16.7096 39.5174 23.7106Z"/>
<path d="M32.8845 24.5252C32.586 24.7665 32.1961 24.8924 31.7836 24.8475C30.4816 24.7066 29.3881 24.2539 28.6201 23.539C27.8086 22.7821 27.4081 21.7674 27.5176 20.7482C27.7096 18.9616 29.5036 17.3219 32.562 17.6516C33.7515 17.779 34.2825 17.3983 34.299 17.2154C34.32 17.0341 33.8835 16.547 32.6955 16.4181C31.3921 16.2772 30.2986 15.8245 29.5306 15.1096C28.7191 14.3527 28.3171 13.3365 28.4281 12.3188C28.6231 10.5307 30.4156 8.89245 33.471 9.22219C34.338 9.31662 34.794 9.13676 34.9875 9.02135C35.1435 8.92692 35.205 8.83699 35.211 8.78453C35.2275 8.60467 34.797 8.11756 33.6045 7.98866C32.7825 7.89873 32.1855 7.1598 32.2755 6.33695C32.364 5.51409 33.102 4.91906 33.927 5.00899C36.9825 5.33723 38.3865 7.32018 38.193 9.10828C37.9995 10.8949 36.207 12.5331 33.1485 12.2034C32.2816 12.1089 31.8286 12.2888 31.6336 12.4042C31.4791 12.4986 31.4161 12.5901 31.4101 12.6395C31.3906 12.8224 31.8256 13.3095 33.0165 13.4369C36.072 13.7666 37.476 15.7496 37.2825 17.5377C37.089 19.3243 35.295 20.964 32.2395 20.6328C31.3726 20.5398 30.9166 20.7182 30.7216 20.8336C30.5671 20.928 30.5071 21.0195 30.5011 21.0704C30.4816 21.2518 30.9151 21.7389 32.1061 21.8663C32.928 21.9562 33.5265 22.6952 33.435 23.518C33.3915 23.9302 33.183 24.2839 32.8845 24.5252Z"/>
<path d="M50.9914 38.3864C53.9509 37.5515 55.9924 38.8705 56.4784 40.6016C56.9644 42.3313 55.9114 44.5211 52.9549 45.3514C51.7999 45.6752 51.4534 46.2267 51.4999 46.4036C51.5509 46.5805 52.1374 46.8712 53.2894 46.5445C56.2474 45.7141 58.2889 47.0331 58.7749 48.7628C59.2654 50.4939 58.2094 52.6807 55.2499 53.5141C54.0964 53.8378 53.7484 54.3909 53.7994 54.5662C53.8489 54.7416 54.4339 55.0309 55.5874 54.7086C56.3839 54.4838 57.2134 54.9484 57.4384 55.7443C57.6604 56.5417 57.1969 57.369 56.3974 57.5939C53.4424 58.4257 51.3979 57.1097 50.9089 55.3771C50.4229 53.6474 51.4774 51.4607 54.4384 50.6273C55.5919 50.3021 55.9399 49.752 55.8889 49.5751C55.8394 49.3998 55.2559 49.1075 54.1024 49.4312C51.1429 50.2646 49.1014 48.9486 48.6139 47.216C48.1264 45.4848 49.1809 43.298 52.1419 42.4647C53.2924 42.1424 53.6404 41.5879 53.5909 41.414C53.5399 41.2356 52.9579 40.9449 51.8029 41.2701C51.0049 41.4949 50.1784 41.0303 49.9534 40.2329C49.7284 39.4371 50.1934 38.6097 50.9914 38.3864Z"/>
<path d="M39.5013 34.3438C39.0603 34.3438 38.6253 34.1504 38.3283 33.7817C37.8108 33.1342 37.9158 32.1914 38.5623 31.6743C38.8893 31.412 46.6893 25.2908 57.7127 26.8661C58.5332 26.983 59.1017 27.7414 58.9847 28.5613C58.8677 29.3796 58.1147 29.9552 57.2867 29.8323C47.5473 28.4504 40.5063 33.9601 40.4373 34.0155C40.1598 34.2373 39.8298 34.3438 39.5013 34.3438Z"/>
<path d="M13.6315 28.1083C13.489 28.1083 13.3435 28.0873 13.1995 28.0454C12.406 27.8071 11.956 26.9707 12.1945 26.1778C13.894 20.5227 15.4345 11.4998 13.5415 9.14663C13.3285 8.87984 13.0105 8.61755 12.2785 8.67301C10.87 8.77942 11.005 11.7471 11.0065 11.7771C11.0695 12.6029 10.4486 13.3224 9.62356 13.3838C8.78506 13.4348 8.07556 12.8263 8.01556 12.0004C7.85956 9.93352 8.50456 5.95263 12.052 5.68434C13.636 5.56444 14.9515 6.11451 15.8815 7.2686C19.438 11.6916 15.8275 24.5141 15.067 27.0411C14.872 27.6901 14.2765 28.1083 13.6315 28.1083Z"/>
<path d="M45.4998 18.3659C45.4998 19.607 44.4918 20.6142 43.2498 20.6142C42.0078 20.6142 40.9998 19.607 40.9998 18.3659C40.9998 17.1249 42.0078 16.1177 43.2498 16.1177C44.4918 16.1177 45.4998 17.1249 45.4998 18.3659Z"/>
<path d="M11 31.106C11 32.7607 9.65598 34.1036 7.99999 34.1036C6.34399 34.1036 5 32.7607 5 31.106C5 29.4498 6.34399 28.1083 7.99999 28.1083C9.65598 28.1083 11 29.4498 11 31.106Z"/>
<path d="M55.9997 33.3542C55.9997 34.5952 54.9918 35.6025 53.7498 35.6025C52.5078 35.6025 51.4998 34.5952 51.4998 33.3542C51.4998 32.1132 52.5078 31.106 53.7498 31.106C54.9918 31.106 55.9997 32.1132 55.9997 33.3542ZM42.4998 51.3402C42.4998 52.5812 41.4918 53.5884 40.2498 53.5884C39.0078 53.5884 37.9998 52.5812 37.9998 51.3402C37.9998 50.0991 39.0078 49.0919 40.2498 49.0919C41.4918 49.0919 42.4998 50.0991 42.4998 51.3402Z"/>
<path d="M49.9998 10.1224C49.9998 11.7771 48.6573 13.12 46.9998 13.12C45.3438 13.12 43.9998 11.7771 43.9998 10.1224C43.9998 8.46617 45.3438 7.12472 46.9998 7.12472C48.6573 7.12472 49.9998 8.46617 49.9998 10.1224ZM55.9997 16.8671C55.9997 18.1081 54.9918 19.1153 53.7498 19.1153C52.5078 19.1153 51.4998 18.1081 51.4998 16.8671C51.4998 15.6261 52.5078 14.6189 53.7498 14.6189C54.9918 14.6189 55.9997 15.6261 55.9997 16.8671ZM51.4998 22.8624C51.4998 24.1034 50.4918 25.1107 49.2498 25.1107C48.0078 25.1107 46.9998 24.1034 46.9998 22.8624C46.9998 21.6214 48.0078 20.6142 49.2498 20.6142C50.4918 20.6142 51.4998 21.6214 51.4998 22.8624ZM18.4999 39.3495C18.4999 40.5906 17.4919 41.5978 16.2499 41.5978C15.008 41.5978 14 40.5906 14 39.3495C14 38.1085 15.008 37.1013 16.2499 37.1013C17.4919 37.1013 18.4999 38.1085 18.4999 39.3495Z"/>
</mask>
<path d="M22.4389 15.3507C22.2709 15.5186 22.1434 15.7209 22.0369 15.9428L21.7999 16.4181L5.20096 53.7987L5.21746 53.8152C4.90547 54.4192 5.42746 55.6482 6.49696 56.7184C7.56495 57.7856 9.19548 59.2696 9.79998 58.9578L20.5999 53.8152L47.3148 41.201L47.3028 41.1875C47.5248 41.0826 47.7258 40.9552 47.8953 40.7859C50.2382 38.4447 46.4388 30.8531 39.4098 23.8296C32.3808 16.8046 24.7819 13.0096 22.4389 15.3507Z" fill="#DD2E44"/>
<path d="M24.4999 22.113L5.62396 52.848L5.20096 53.7987L5.21746 53.8152C4.90547 54.4207 5.42746 55.6482 6.49696 56.7184C6.84496 57.0661 6.91691 57.2343 7.27241 57.4576L30.4998 29.6071L24.4999 22.113Z" fill="#EA596E"/>
<path d="M39.5174 23.7106C46.5224 30.7131 50.4119 38.1773 48.2009 40.3836C45.9914 42.5928 38.5214 38.7079 31.512 31.7084C24.5055 24.7058 20.6175 17.2402 22.827 15.0324C25.038 12.8231 32.5079 16.7096 39.5174 23.7106Z" fill="#A0041E"/>
<path d="M32.8845 24.5252C32.586 24.7665 32.1961 24.8924 31.7836 24.8475C30.4816 24.7066 29.3881 24.2539 28.6201 23.539C27.8086 22.7821 27.4081 21.7674 27.5176 20.7482C27.7096 18.9616 29.5036 17.3219 32.562 17.6516C33.7515 17.779 34.2825 17.3983 34.299 17.2154C34.32 17.0341 33.8835 16.547 32.6955 16.4181C31.3921 16.2772 30.2986 15.8245 29.5306 15.1096C28.7191 14.3527 28.3171 13.3365 28.4281 12.3188C28.6231 10.5307 30.4156 8.89245 33.471 9.22219C34.338 9.31662 34.794 9.13676 34.9875 9.02135C35.1435 8.92692 35.205 8.83699 35.211 8.78453C35.2275 8.60467 34.797 8.11756 33.6045 7.98866C32.7825 7.89873 32.1855 7.1598 32.2755 6.33695C32.364 5.51409 33.102 4.91906 33.927 5.00899C36.9825 5.33723 38.3865 7.32018 38.193 9.10828C37.9995 10.8949 36.207 12.5331 33.1485 12.2034C32.2816 12.1089 31.8286 12.2888 31.6336 12.4042C31.4791 12.4986 31.4161 12.5901 31.4101 12.6395C31.3906 12.8224 31.8256 13.3095 33.0165 13.4369C36.072 13.7666 37.476 15.7496 37.2825 17.5377C37.089 19.3243 35.295 20.964 32.2395 20.6328C31.3726 20.5398 30.9166 20.7182 30.7216 20.8336C30.5671 20.928 30.5071 21.0195 30.5011 21.0704C30.4816 21.2518 30.9151 21.7389 32.1061 21.8663C32.928 21.9562 33.5265 22.6952 33.435 23.518C33.3915 23.9302 33.183 24.2839 32.8845 24.5252Z" fill="#AA8DD8"/>
<path d="M50.9914 38.3864C53.9509 37.5515 55.9924 38.8705 56.4784 40.6016C56.9644 42.3313 55.9114 44.5211 52.9549 45.3514C51.7999 45.6752 51.4534 46.2267 51.4999 46.4036C51.5509 46.5805 52.1374 46.8712 53.2894 46.5445C56.2474 45.7141 58.2889 47.0331 58.7749 48.7628C59.2654 50.4939 58.2094 52.6807 55.2499 53.5141C54.0964 53.8378 53.7484 54.3909 53.7994 54.5662C53.8489 54.7416 54.4339 55.0309 55.5874 54.7086C56.3839 54.4838 57.2134 54.9484 57.4384 55.7443C57.6604 56.5417 57.1969 57.369 56.3974 57.5939C53.4424 58.4257 51.3979 57.1097 50.9089 55.3771C50.4229 53.6474 51.4774 51.4607 54.4384 50.6273C55.5919 50.3021 55.9399 49.752 55.8889 49.5751C55.8394 49.3998 55.2559 49.1075 54.1024 49.4312C51.1429 50.2646 49.1014 48.9486 48.6139 47.216C48.1264 45.4848 49.1809 43.298 52.1419 42.4647C53.2924 42.1424 53.6404 41.5879 53.5909 41.414C53.5399 41.2356 52.9579 40.9449 51.8029 41.2701C51.0049 41.4949 50.1784 41.0303 49.9534 40.2329C49.7284 39.4371 50.1934 38.6097 50.9914 38.3864Z" fill="#77B255"/>
<path d="M39.5013 34.3438C39.0603 34.3438 38.6253 34.1504 38.3283 33.7817C37.8108 33.1342 37.9158 32.1914 38.5623 31.6743C38.8893 31.412 46.6893 25.2908 57.7127 26.8661C58.5332 26.983 59.1017 27.7414 58.9847 28.5613C58.8677 29.3796 58.1147 29.9552 57.2867 29.8323C47.5473 28.4504 40.5063 33.9601 40.4373 34.0155C40.1598 34.2373 39.8298 34.3438 39.5013 34.3438Z" fill="#AA8DD8"/>
<path d="M13.6315 28.1083C13.489 28.1083 13.3435 28.0873 13.1995 28.0454C12.406 27.8071 11.956 26.9707 12.1945 26.1778C13.894 20.5227 15.4345 11.4998 13.5415 9.14663C13.3285 8.87984 13.0105 8.61755 12.2785 8.67301C10.87 8.77942 11.005 11.7471 11.0065 11.7771C11.0695 12.6029 10.4486 13.3224 9.62356 13.3838C8.78506 13.4348 8.07556 12.8263 8.01556 12.0004C7.85956 9.93352 8.50456 5.95263 12.052 5.68434C13.636 5.56444 14.9515 6.11451 15.8815 7.2686C19.438 11.6916 15.8275 24.5141 15.067 27.0411C14.872 27.6901 14.2765 28.1083 13.6315 28.1083Z" fill="#77B255"/>
<path d="M45.4998 18.3659C45.4998 19.607 44.4918 20.6142 43.2498 20.6142C42.0078 20.6142 40.9998 19.607 40.9998 18.3659C40.9998 17.1249 42.0078 16.1177 43.2498 16.1177C44.4918 16.1177 45.4998 17.1249 45.4998 18.3659Z" fill="#5C913B"/>
<path d="M11 31.106C11 32.7607 9.65598 34.1036 7.99999 34.1036C6.34399 34.1036 5 32.7607 5 31.106C5 29.4498 6.34399 28.1083 7.99999 28.1083C9.65598 28.1083 11 29.4498 11 31.106Z" fill="#9266CC"/>
<path d="M55.9997 33.3542C55.9997 34.5952 54.9918 35.6025 53.7498 35.6025C52.5078 35.6025 51.4998 34.5952 51.4998 33.3542C51.4998 32.1132 52.5078 31.106 53.7498 31.106C54.9918 31.106 55.9997 32.1132 55.9997 33.3542ZM42.4998 51.3402C42.4998 52.5812 41.4918 53.5884 40.2498 53.5884C39.0078 53.5884 37.9998 52.5812 37.9998 51.3402C37.9998 50.0991 39.0078 49.0919 40.2498 49.0919C41.4918 49.0919 42.4998 50.0991 42.4998 51.3402Z" fill="#5C913B"/>
<path d="M49.9998 10.1224C49.9998 11.7771 48.6573 13.12 46.9998 13.12C45.3438 13.12 43.9998 11.7771 43.9998 10.1224C43.9998 8.46617 45.3438 7.12472 46.9998 7.12472C48.6573 7.12472 49.9998 8.46617 49.9998 10.1224ZM55.9997 16.8671C55.9997 18.1081 54.9918 19.1153 53.7498 19.1153C52.5078 19.1153 51.4998 18.1081 51.4998 16.8671C51.4998 15.6261 52.5078 14.6189 53.7498 14.6189C54.9918 14.6189 55.9997 15.6261 55.9997 16.8671ZM51.4998 22.8624C51.4998 24.1034 50.4918 25.1107 49.2498 25.1107C48.0078 25.1107 46.9998 24.1034 46.9998 22.8624C46.9998 21.6214 48.0078 20.6142 49.2498 20.6142C50.4918 20.6142 51.4998 21.6214 51.4998 22.8624ZM18.4999 39.3495C18.4999 40.5906 17.4919 41.5978 16.2499 41.5978C15.008 41.5978 14 40.5906 14 39.3495C14 38.1085 15.008 37.1013 16.2499 37.1013C17.4919 37.1013 18.4999 38.1085 18.4999 39.3495Z" fill="#FFCC4D"/>
<path d="M3.7872 55.2133L3.8037 55.2298L6.63123 52.4005L6.61473 52.384L3.7872 55.2133ZM22.4389 15.3507L25.2662 18.1803L22.4389 15.3507ZM22.0369 15.9428L25.6167 17.7275L25.6299 17.7008L25.6428 17.674L22.0369 15.9428ZM21.7999 16.4181L18.2201 14.6334L18.1803 14.7132L18.1441 14.7947L21.7999 16.4181ZM5.20096 53.7987L1.54519 52.1753L8.85555 55.4247L5.20096 53.7987ZM5.21746 53.8152L8.77322 55.6473L1.66356 51.9795L5.21746 53.8152ZM6.49696 56.7184L3.66765 59.5459L3.66963 59.5479L6.49696 56.7184ZM9.79998 58.9578L8.08029 55.3464L8.02296 55.3737L7.96653 55.4028L9.79998 58.9578ZM20.5999 53.8152L18.892 50.1981L18.8802 50.2037L20.5999 53.8152ZM47.3148 41.201L49.0226 44.8181L53.8552 42.5363L50.3038 38.5429L47.3148 41.201ZM47.3028 41.1875L45.5936 37.5711L40.7636 39.8537L44.3138 43.8457L47.3028 41.1875ZM47.8953 40.7859L45.0679 37.9563L47.8953 40.7859ZM39.4098 23.8296L36.5822 26.6588L36.5825 26.6591L39.4098 23.8296ZM24.4999 22.113L27.6224 19.613L24.0678 15.1732L21.0914 20.0197L24.4999 22.113ZM5.62396 52.848L2.21545 50.7546L2.07696 50.9801L1.96938 51.2219L5.62396 52.848ZM7.27241 57.4576L5.14462 60.8447L8.10505 62.7045L10.3443 60.0195L7.27241 57.4576ZM30.4998 29.6071L33.5717 32.1691L35.6653 29.6588L33.6224 27.1072L30.4998 29.6071ZM39.5174 23.7106L42.3453 20.8817L42.3441 20.8805L39.5174 23.7106ZM48.2009 40.3836L45.3755 37.5521L45.3726 37.555L48.2009 40.3836ZM31.512 31.7084L28.6843 34.5376L28.6855 34.5388L31.512 31.7084ZM22.827 15.0324L25.6543 17.8619L22.827 15.0324ZM31.7836 24.8475L32.217 20.871L32.2139 20.8707L31.7836 24.8475ZM28.6201 23.539L25.8917 26.4641L25.8946 26.4668L28.6201 23.539ZM27.5176 20.7482L23.5405 20.3208L23.5405 20.3209L27.5176 20.7482ZM32.562 17.6516L32.1333 21.6286L32.1361 21.6289L32.562 17.6516ZM34.299 17.2154L30.3256 16.7554L30.3198 16.8056L30.3152 16.856L34.299 17.2154ZM32.6955 16.4181L33.127 12.4414L33.1254 12.4412L32.6955 16.4181ZM29.5306 15.1096L26.8022 18.0347L26.8051 18.0373L29.5306 15.1096ZM28.4281 12.3188L32.4045 12.7525L32.4045 12.7524L28.4281 12.3188ZM33.471 9.22219L33.9041 5.2457L33.9002 5.24528L33.471 9.22219ZM34.9875 9.02135L37.0365 12.4567L37.0477 12.45L37.0588 12.4433L34.9875 9.02135ZM35.211 8.78453L39.1851 9.23907L39.1902 9.19456L39.1943 9.14995L35.211 8.78453ZM33.6045 7.98866L33.1695 11.9649L33.1747 11.9655L33.6045 7.98866ZM32.2755 6.33695L36.2518 6.77185L36.2526 6.76469L32.2755 6.33695ZM33.927 5.00899L33.4936 8.98544L33.4998 8.98611L33.927 5.00899ZM38.193 9.10828L42.1698 9.53898L42.1698 9.53863L38.193 9.10828ZM33.1485 12.2034L32.7155 16.1799L32.7198 16.1803L33.1485 12.2034ZM31.6336 12.4042L29.5962 8.96192L29.5718 8.97638L29.5476 8.99118L31.6336 12.4042ZM31.4101 12.6395L27.4392 12.1578L27.4357 12.1866L27.4326 12.2154L31.4101 12.6395ZM33.0165 13.4369L33.4457 9.45999L33.442 9.45959L33.0165 13.4369ZM37.2825 17.5377L41.2593 17.9684L41.2593 17.968L37.2825 17.5377ZM32.2395 20.6328L32.6707 16.6561L32.6658 16.6556L32.2395 20.6328ZM30.7216 20.8336L28.6842 17.3913L28.6598 17.4058L28.6356 17.4206L30.7216 20.8336ZM30.5011 21.0704L26.5285 20.6027L26.5261 20.6227L26.524 20.6428L30.5011 21.0704ZM32.1061 21.8663L32.5411 17.89L32.5315 17.889L32.1061 21.8663ZM33.435 23.518L29.4595 23.076L29.4583 23.0871L29.4571 23.0982L33.435 23.518ZM50.9914 38.3864L52.0694 42.2384L52.0774 42.2361L50.9914 38.3864ZM56.4784 40.6016L52.6272 41.6828L52.6275 41.6837L56.4784 40.6016ZM52.9549 45.3514L54.0345 49.203L54.0365 49.2024L52.9549 45.3514ZM51.4999 46.4036L47.6314 47.4207L47.6434 47.4664L47.6565 47.5119L51.4999 46.4036ZM53.2894 46.5445L52.2083 42.6933L52.1979 42.6963L53.2894 46.5445ZM58.7749 48.7628L54.924 49.8448L54.9264 49.8532L58.7749 48.7628ZM55.2499 53.5141L56.3308 57.3652L56.3341 57.3643L55.2499 53.5141ZM53.7994 54.5662L57.649 53.4796L57.6447 53.4644L57.6402 53.4492L53.7994 54.5662ZM55.5874 54.7086L56.6636 58.5611L56.674 58.5582L55.5874 54.7086ZM57.4384 55.7443L61.2918 54.6715L61.2897 54.6638L61.2875 54.6561L57.4384 55.7443ZM56.3974 57.5939L55.3145 53.7432L55.3135 53.7435L56.3974 57.5939ZM50.9089 55.3771L47.058 56.4591L47.0593 56.4636L50.9089 55.3771ZM54.4384 50.6273L55.522 54.4777L55.5239 54.4772L54.4384 50.6273ZM55.8889 49.5751L52.0393 50.6618L52.0424 50.6726L52.0455 50.6834L55.8889 49.5751ZM54.1024 49.4312L53.0215 45.5801L53.0182 45.581L54.1024 49.4312ZM48.6139 47.216L52.4644 46.1326L52.4641 46.1317L48.6139 47.216ZM52.1419 42.4647L51.063 38.6129L51.0582 38.6143L52.1419 42.4647ZM53.5909 41.414L57.438 40.3187L57.4368 40.3143L53.5909 41.414ZM51.8029 41.2701L50.7187 37.4199L50.7182 37.42L51.8029 41.2701ZM49.9534 40.2329L53.8031 39.1467L53.8025 39.1448L49.9534 40.2329ZM38.3283 33.7817L35.2037 36.279L35.2085 36.285L35.2132 36.2909L38.3283 33.7817ZM38.5623 31.6743L41.0608 34.7981L41.0652 34.7946L38.5623 31.6743ZM57.7127 26.8661L57.1469 30.8259L57.1485 30.8261L57.7127 26.8661ZM58.9847 28.5613L62.9445 29.1274L62.9446 29.1264L58.9847 28.5613ZM57.2867 29.8323L57.8741 25.8756L57.8614 25.8737L57.8487 25.8719L57.2867 29.8323ZM40.4373 34.0155L42.9349 37.1399L42.9432 37.1333L40.4373 34.0155ZM13.1995 28.0454L12.049 31.8763L12.0646 31.881L12.0803 31.8856L13.1995 28.0454ZM12.1945 26.1778L16.025 27.33L16.0253 27.3291L12.1945 26.1778ZM13.5415 9.14663L10.4156 11.6423L10.4202 11.6481L10.4248 11.6539L13.5415 9.14663ZM12.2785 8.67301L12.5799 12.6616L12.5807 12.6616L12.2785 8.67301ZM11.0065 11.7771L7.01155 11.977L7.01416 12.0292L7.01814 12.0813L11.0065 11.7771ZM9.62356 13.3838L9.86621 17.3765L9.89346 17.3748L9.92068 17.3728L9.62356 13.3838ZM8.01556 12.0004L12.0051 11.7106L12.0042 11.6994L8.01556 12.0004ZM12.052 5.68434L12.3537 9.67295L12.354 9.67293L12.052 5.68434ZM15.8815 7.2686L18.9988 4.76207L18.9961 4.75879L15.8815 7.2686ZM15.067 27.0411L11.2367 25.8884L11.2362 25.8901L15.067 27.0411ZM19.6115 12.5212C19.023 13.1093 18.66 13.7344 18.4309 14.2115L25.6428 17.674C25.6267 17.7075 25.5187 17.9279 25.2662 18.1803L19.6115 12.5212ZM18.4571 14.1581L18.2201 14.6334L25.3797 18.2028L25.6167 17.7275L18.4571 14.1581ZM18.1441 14.7947L1.54519 52.1753L8.85674 55.422L25.4557 18.0414L18.1441 14.7947ZM1.66356 51.9795C0.646283 53.9489 1.3227 55.8882 1.67245 56.6905C2.13296 57.7468 2.84811 58.7259 3.66765 59.5459L9.32627 53.8909C9.07632 53.6407 8.99571 53.4702 9.00586 53.4935C9.01106 53.5054 9.08506 53.6718 9.11536 53.9736C9.14405 54.2594 9.15495 54.9082 8.77137 55.6509L1.66356 51.9795ZM3.66963 59.5479C4.23555 60.1134 5.06814 60.9106 5.91264 61.548C6.31705 61.8532 6.89779 62.256 7.56862 62.551C7.97151 62.7282 9.73734 63.4908 11.6334 62.5129L7.96653 55.4028C8.81527 54.965 9.59448 54.973 10.0155 55.0247C10.4297 55.0755 10.7049 55.1908 10.7895 55.228C10.9512 55.2991 10.9442 55.3227 10.7319 55.1625C10.343 54.869 9.82636 54.3906 9.32429 53.8889L3.66963 59.5479ZM11.5197 62.5693L22.3196 57.4266L18.8802 50.2037L8.08029 55.3464L11.5197 62.5693ZM22.3078 57.4322L49.0226 44.8181L45.6069 37.584L18.892 50.1981L22.3078 57.4322ZM50.3038 38.5429L50.2918 38.5294L44.3138 43.8457L44.3258 43.8592L50.3038 38.5429ZM49.0119 44.804C49.5169 44.5653 50.1389 44.1986 50.7226 43.6154L45.0679 37.9563C45.3126 37.7118 45.5326 37.5999 45.5936 37.5711L49.0119 44.804ZM50.7226 43.6154C52.5475 41.7919 52.7235 39.393 52.5184 37.6651C52.3067 35.8805 51.6218 34.0273 50.7441 32.2735C48.9689 28.7263 45.971 24.7311 42.2371 21.0001L36.5825 26.6591C39.8775 29.9516 42.2939 33.264 43.5899 35.8537C44.2479 37.1684 44.5128 38.091 44.5742 38.6078C44.6422 39.1813 44.4145 38.6092 45.0679 37.9563L50.7226 43.6154ZM42.2374 21.0004C38.5032 17.2683 34.5046 14.2729 30.9547 12.4995C29.1994 11.6226 27.3454 10.939 25.5608 10.7277C23.8336 10.5233 21.4354 10.6988 19.6115 12.5212L25.2662 18.1803C24.6139 18.8321 24.0442 18.604 24.6204 18.6723C25.1392 18.7337 26.0636 18.9988 27.3795 19.6562C29.9721 20.9513 33.2874 23.3659 36.5822 26.6588L42.2374 21.0004ZM21.0914 20.0197L2.21545 50.7546L9.03247 54.9413L27.9084 24.2063L21.0914 20.0197ZM1.96938 51.2219L1.54638 52.1726L8.85555 55.4247L9.27855 54.474L1.96938 51.2219ZM1.66171 51.9831C0.647963 53.9505 1.32153 55.8864 1.67266 56.6916C2.13344 57.7481 2.84879 58.7266 3.66765 59.5459L9.32627 53.8909C9.07563 53.6401 8.99524 53.4697 9.00564 53.4935C9.01101 53.5058 9.08508 53.6725 9.11537 53.9743C9.14412 54.2608 9.1545 54.9073 8.77322 55.6473L1.66171 51.9831ZM3.66963 59.5479C3.68857 59.5668 3.70651 59.5858 3.73963 59.6227C3.74162 59.6249 3.87254 59.7728 3.95858 59.8649C4.08109 59.9961 4.24954 60.1668 4.46669 60.3505C4.68505 60.5353 4.91044 60.6976 5.14462 60.8447L9.4002 54.0705C9.42611 54.0868 9.46122 54.1099 9.50287 54.1402C9.54507 54.1709 9.58914 54.2053 9.63372 54.243C9.72652 54.3215 9.78858 54.3866 9.80517 54.4044C9.80984 54.4094 9.80719 54.4067 9.78543 54.3823C9.77384 54.3693 9.76436 54.3587 9.74663 54.3388C9.73093 54.3211 9.71152 54.2994 9.69025 54.2757C9.6009 54.1763 9.47935 54.0438 9.32429 53.8889L3.66963 59.5479ZM10.3443 60.0195L33.5717 32.1691L27.428 27.0452L4.20054 54.8956L10.3443 60.0195ZM33.6224 27.1072L27.6224 19.613L21.3773 24.613L27.3773 32.1071L33.6224 27.1072ZM36.6895 26.5395C39.9856 29.8345 42.4314 33.1285 43.7676 35.6936C44.447 36.998 44.7306 37.9075 44.8037 38.4093C44.8899 39.0008 44.6183 38.3077 45.3755 37.5521L51.0263 43.215C52.8889 41.3564 52.9602 38.9029 52.7201 37.2554C52.4669 35.5184 51.7548 33.7105 50.8627 31.9978C49.0556 28.5286 46.0542 24.5893 42.3453 20.8817L36.6895 26.5395ZM45.3726 37.555C46.1268 36.8009 46.8162 37.0724 46.2223 36.986C45.7185 36.9128 44.8072 36.6291 43.5015 35.9503C40.9337 34.6152 37.6366 32.1714 34.3384 28.8779L28.6855 34.5388C32.3968 38.2448 36.3394 41.2433 39.8113 43.0483C41.5254 43.9395 43.3341 44.6502 45.0713 44.9028C46.7185 45.1423 49.1702 45.0709 51.0292 43.2121L45.3726 37.555ZM34.3396 28.8791C31.0431 25.5845 28.5973 22.2902 27.2612 19.7247C26.5818 18.4201 26.298 17.5101 26.2248 17.0076C26.1384 16.4152 26.4101 17.1067 25.6543 17.8619L19.9997 12.2029C18.1392 14.0619 18.0683 16.5146 18.3085 18.1618C18.5617 19.8989 19.2736 21.7069 20.1658 23.42C21.9729 26.8899 24.9744 30.8297 28.6843 34.5376L34.3396 28.8791ZM25.6543 17.8619C24.9005 18.6151 24.212 18.3437 24.806 18.4301C25.31 18.5035 26.2214 18.7873 27.5272 19.4664C30.0953 20.802 33.3924 23.2464 36.6907 26.5407L42.3441 20.8805C38.6329 17.1737 34.6904 14.1745 31.2183 12.3688C29.5041 11.4773 27.6953 10.7663 25.9579 10.5135C24.3103 10.2738 21.859 10.345 19.9997 12.2029L25.6543 17.8619ZM30.3698 21.4146C30.8709 21.0095 31.5346 20.7966 32.217 20.871L31.3501 28.8239C32.8575 28.9882 34.3012 28.5236 35.3993 27.6359L30.3698 21.4146ZM32.2139 20.8707C31.5553 20.7994 31.34 20.6061 31.3456 20.6113L25.8946 26.4668C27.4361 27.9018 29.4078 28.6138 31.3532 28.8243L32.2139 20.8707ZM31.3484 20.6139C31.3554 20.6204 31.4025 20.668 31.4438 20.7726C31.4862 20.8799 31.5112 21.0213 31.4947 21.1755L23.5405 20.3209C23.2843 22.7055 24.2466 24.9296 25.8917 26.4641L31.3484 20.6139ZM31.4947 21.1756C31.4603 21.4953 31.2939 21.6589 31.2424 21.6946C31.1815 21.7367 31.3959 21.5491 32.1333 21.6286L32.9908 13.6747C28.2978 13.1687 24.0248 15.814 23.5405 20.3208L31.4947 21.1756ZM32.1361 21.6289C33.1907 21.7418 34.2514 21.6642 35.2259 21.3132C35.7022 21.1416 36.2499 20.8709 36.7617 20.4407C37.1099 20.148 38.1358 19.2045 38.2829 17.5749L30.3152 16.856C30.3911 16.0156 30.7175 15.4076 30.9392 15.0747C31.1765 14.7184 31.4288 14.4725 31.6142 14.3166C31.9847 14.0053 32.3221 13.856 32.515 13.7865C32.9224 13.6398 33.1229 13.6888 32.988 13.6744L32.1361 21.6289ZM38.2725 17.6755C38.4586 16.068 37.6645 14.9426 37.39 14.5873C36.9846 14.0624 36.5108 13.6822 36.082 13.4122C35.2051 12.8601 34.1847 12.5562 33.127 12.4414L32.2641 20.3947C32.3944 20.4089 32.1862 20.413 31.8193 20.182C31.6455 20.0725 31.3512 19.8562 31.0588 19.4777C30.9126 19.2884 30.721 18.999 30.5658 18.607C30.4215 18.2425 30.2293 17.5869 30.3256 16.7554L38.2725 17.6755ZM33.1254 12.4412C32.4651 12.3699 32.2502 12.1764 32.2561 12.1818L26.8051 18.0373C28.3469 19.4727 30.319 20.1845 32.2657 20.3949L33.1254 12.4412ZM32.2589 12.1845C32.2656 12.1908 32.3123 12.2377 32.3534 12.3419C32.3957 12.4488 32.4219 12.5927 32.4045 12.7525L24.4517 11.8851C24.1909 14.276 25.1601 16.503 26.8022 18.0347L32.2589 12.1845ZM32.4045 12.7524C32.3702 13.0666 32.2065 13.2285 32.1545 13.2645C32.0933 13.3069 32.3063 13.1197 33.0419 13.1991L33.9002 5.24528C29.205 4.73858 24.9423 7.38621 24.4516 11.8851L32.4045 12.7524ZM33.038 13.1987C34.6302 13.3721 35.9847 13.0841 37.0365 12.4567L32.9386 5.58599C33.251 5.39966 33.5271 5.31091 33.7238 5.27294C33.9158 5.2359 33.99 5.25505 33.9041 5.24571L33.038 13.1987ZM37.0588 12.4433C37.4033 12.2348 37.8032 11.937 38.17 11.5165C38.4677 11.1751 39.0523 10.4007 39.1851 9.23907L31.2369 8.33C31.3055 7.73094 31.4977 7.26956 31.6517 6.97538C31.8134 6.66635 31.9919 6.42892 32.1411 6.25791C32.4366 5.91912 32.7277 5.7135 32.9162 5.59941L37.0588 12.4433ZM39.1943 9.14995C39.3375 7.58913 38.5688 6.50296 38.2939 6.14898C37.8921 5.63158 37.4229 5.25372 36.9929 4.98289C36.1152 4.43003 35.0941 4.12636 34.0344 4.01182L33.1747 11.9655C33.3075 11.9799 33.0979 11.9842 32.7294 11.7521C32.554 11.6416 32.2639 11.4273 31.9755 11.0559C31.8313 10.8702 31.6444 10.5896 31.4904 10.2111C31.3481 9.86121 31.1535 9.22868 31.2278 8.41912L39.1943 9.14995ZM34.0396 4.01238C35.4006 4.16129 36.4034 5.38577 36.2518 6.77185L28.2993 5.90204C27.9677 8.93384 30.1645 11.6362 33.1695 11.9649L34.0396 4.01238ZM36.2526 6.76469C36.1047 8.13975 34.8677 9.13522 33.4936 8.98543L34.3605 1.03254C31.3364 0.702894 28.6234 2.88843 28.2985 5.90921L36.2526 6.76469ZM33.4998 8.98611C34.2353 9.06512 34.4036 9.29349 34.3526 9.23872C34.3091 9.19207 34.1818 8.99648 34.2162 8.67793L42.1698 9.53863C42.6577 5.0304 39.0456 1.53585 34.3543 1.03187L33.4998 8.98611ZM34.2163 8.67758C34.2507 8.36015 34.4161 8.19683 34.4683 8.16069C34.5296 8.11826 34.3155 8.306 33.5773 8.22641L32.7198 16.1803C37.4135 16.6864 41.682 14.0425 42.1698 9.53898L34.2163 8.67758ZM33.5816 8.22688C31.9813 8.05258 30.6376 8.34556 29.5962 8.96192L33.6709 15.8465C33.3709 16.024 33.1004 16.1133 32.8988 16.1523C32.7049 16.1898 32.6293 16.1705 32.7155 16.1798L33.5816 8.22688ZM29.5476 8.99118C29.2001 9.20355 28.8126 9.49783 28.4585 9.90161C28.197 10.1999 27.5829 10.9733 27.4392 12.1578L35.3809 13.1212C35.3045 13.751 35.0931 14.2217 34.9469 14.493C34.7877 14.7884 34.6152 15.0144 34.4737 15.1758C34.1913 15.4979 33.9125 15.6993 33.7195 15.8172L29.5476 8.99118ZM27.4326 12.2154C27.2639 13.7977 28.0395 14.9055 28.3192 15.2678C28.7245 15.7927 29.1984 16.1736 29.6292 16.4446C30.5091 16.9982 31.5322 17.3009 32.5911 17.4142L33.442 9.45959C33.3099 9.44546 33.52 9.4409 33.8896 9.67341C34.0651 9.78386 34.3595 10.0007 34.6515 10.3789C34.7976 10.5681 34.9874 10.8553 35.1415 11.243C35.2852 11.6042 35.4746 12.2473 35.3875 13.0637L27.4326 12.2154ZM32.5874 17.4138C33.3234 17.4932 33.4923 17.7219 33.4417 17.6676C33.3986 17.6214 33.2713 17.426 33.3057 17.1073L41.2593 17.968C41.7472 13.4599 38.1354 9.96609 33.4457 9.45999L32.5874 17.4138ZM33.3058 17.107C33.3402 16.7891 33.5056 16.6266 33.5569 16.591C33.6181 16.5487 33.4051 16.7357 32.6707 16.6561L31.8084 24.6095C36.5033 25.1184 40.7717 22.4699 41.2593 17.9684L33.3058 17.107ZM32.6658 16.6556C31.0805 16.4856 29.7333 16.7705 28.6842 17.3913L32.7589 24.2759C32.4496 24.4589 32.1768 24.546 31.9832 24.5832C31.7947 24.6194 31.724 24.6004 31.8133 24.61L32.6658 16.6556ZM28.6356 17.4206C28.2778 17.6392 27.8773 17.9454 27.5147 18.3697C27.222 18.7122 26.6616 19.4725 26.5285 20.6027L34.4736 21.5382C34.4045 22.1253 34.2173 22.5759 34.0709 22.8596C33.9155 23.1607 33.7435 23.3949 33.5965 23.567C33.304 23.9092 33.0108 24.1224 32.8075 24.2466L28.6356 17.4206ZM26.524 20.6428C26.3534 22.2296 27.1334 23.3397 27.4104 23.6985C27.8152 24.2225 28.2885 24.603 28.719 24.8739C29.5985 25.4275 30.6214 25.7303 31.6806 25.8436L32.5315 17.889C32.3997 17.8749 32.6104 17.8705 32.9803 18.1033C33.156 18.2139 33.4501 18.4306 33.7418 18.8083C33.8877 18.9972 34.0775 19.2842 34.2318 19.6718C34.3752 20.032 34.5664 20.6775 34.4781 21.4981L26.524 20.6428ZM31.671 25.8426C30.3169 25.6944 29.3041 24.474 29.4595 23.076L37.4105 23.9601C37.749 20.9163 35.5392 18.218 32.5411 17.89L31.671 25.8426ZM29.4571 23.0982C29.5314 22.3942 29.8915 21.8012 30.3698 21.4146L35.3993 27.6359C36.4746 26.7666 37.2517 25.4662 37.413 23.9378L29.4571 23.0982ZM52.0774 42.2361C52.7897 42.0352 53.0308 42.1846 52.9626 42.1526C52.9048 42.1255 52.7139 41.9914 52.6272 41.6828L60.3295 39.5205C59.1041 35.1555 54.4503 33.2545 49.9054 34.5366L52.0774 42.2361ZM52.6275 41.6837C52.5411 41.3762 52.6338 41.164 52.6683 41.1116C52.7096 41.0491 52.5826 41.3012 51.8733 41.5004L54.0365 49.2024C58.5829 47.9255 61.5534 43.8762 60.3292 39.5196L52.6275 41.6837ZM51.8753 41.4999C50.8498 41.7873 49.8923 42.2548 49.1171 42.945C48.7373 43.2831 48.3357 43.7341 48.0239 44.3126C47.8079 44.7134 47.2339 45.9092 47.6314 47.4207L55.3684 45.3865C55.5738 46.1678 55.4885 46.8207 55.4058 47.1917C55.3166 47.5913 55.1785 47.8998 55.0665 48.1076C54.8427 48.5229 54.5911 48.7826 54.4365 48.9202C54.1117 49.2094 53.9049 49.2393 54.0345 49.203L51.8753 41.4999ZM47.6565 47.5119C48.0949 49.0323 49.2215 49.7655 49.6149 49.9963C50.1851 50.3308 50.7656 50.5074 51.2668 50.5985C52.2905 50.7845 53.3541 50.6839 54.3809 50.3927L52.1979 42.6963C52.0727 42.7318 52.267 42.6493 52.6968 42.7273C52.9009 42.7644 53.2532 42.8556 53.6631 43.0961C53.8682 43.2164 54.1495 43.4105 54.4358 43.71C54.702 43.9886 55.1169 44.5103 55.3433 45.2953L47.6565 47.5119ZM54.3705 50.3956C55.082 50.1959 55.3241 50.3449 55.2578 50.3138C55.2022 50.2876 55.011 50.1546 54.924 49.8448L62.6257 47.6807C61.4002 43.3193 56.7494 41.4186 52.2083 42.6934L54.3705 50.3956ZM54.9264 49.8532C54.8383 49.5425 54.9321 49.3256 54.9681 49.2711C55.0095 49.2083 54.8807 49.4624 54.1657 49.6638L56.3341 57.3643C60.8697 56.0872 63.8622 52.0448 62.6234 47.6723L54.9264 49.8532ZM54.169 49.6629C53.1433 49.9507 52.1847 50.4195 51.4094 51.1116C51.0301 51.4501 50.6252 51.9051 50.3124 52.4919C50.0996 52.8912 49.5074 54.1319 49.9585 55.6832L57.6402 53.4492C57.8735 54.2511 57.7943 54.9283 57.713 55.3123C57.6257 55.725 57.4851 56.0429 57.3722 56.2548C57.1464 56.6785 56.891 56.9421 56.7365 57.08C56.4108 57.3707 56.2029 57.4011 56.3308 57.3652L54.169 49.6629ZM49.9498 55.6529C50.3847 57.1937 51.5284 57.9325 51.9162 58.1595C52.486 58.4932 53.0654 58.6688 53.5635 58.7594C54.5814 58.9446 55.6401 58.8471 56.6636 58.5611L54.5111 50.8561C54.3812 50.8924 54.5706 50.8114 54.9953 50.8886C55.1968 50.9253 55.5485 51.0158 55.9587 51.256C56.1639 51.3762 56.4472 51.5711 56.7355 51.873C57.0034 52.1533 57.4239 52.6823 57.649 53.4796L49.9498 55.6529ZM56.674 58.5582C55.3436 58.9337 53.9646 58.1604 53.5892 56.8325L61.2875 54.6561C60.4621 51.7364 57.4241 50.0339 54.5008 50.859L56.674 58.5582ZM53.5849 56.8171C53.2166 55.4941 53.9874 54.1164 55.3145 53.7432L57.4802 61.4445C60.4063 60.6217 62.1041 57.5892 61.2918 54.6715L53.5849 56.8171ZM55.3135 53.7435C54.6035 53.9434 54.3612 53.7949 54.4268 53.8256C54.4821 53.8516 54.6719 53.9836 54.7585 54.2906L47.0593 56.4636C48.2903 60.8254 52.9428 62.7218 57.4813 61.4442L55.3135 53.7435ZM54.7598 54.2951C54.8466 54.6041 54.7532 54.8184 54.7182 54.8714C54.6772 54.9334 54.8066 54.6791 55.522 54.4777L53.3547 46.7769C48.8142 48.0548 45.8319 52.0953 47.058 56.4591L54.7598 54.2951ZM55.5239 54.4772C56.5447 54.1894 57.5013 53.7225 58.2761 53.0323C58.6553 52.6944 59.0616 52.2392 59.3754 51.6507C59.5926 51.2434 60.1771 50.0096 59.7323 48.4669L52.0455 50.6834C51.8164 49.889 51.8933 49.2173 51.9749 48.831C52.0622 48.4177 52.2029 48.0991 52.3165 47.8861C52.5434 47.4607 52.8001 47.1965 52.9545 47.0589C53.2797 46.7692 53.4855 46.74 53.3528 46.7774L55.5239 54.4772ZM59.7384 48.4885C59.306 46.9564 58.1724 46.2174 57.7832 45.9878C57.214 45.652 56.6341 45.4742 56.1336 45.3821C55.1112 45.1939 54.0483 45.2919 53.0215 45.5801L55.1833 53.2824C55.31 53.2469 55.1156 53.3291 54.6856 53.25C54.4814 53.2124 54.1288 53.1202 53.7189 52.8785C53.5139 52.7575 53.2322 52.5623 52.9458 52.2609C52.68 51.9813 52.2631 51.4546 52.0393 50.6618L59.7384 48.4885ZM53.0182 45.581C52.3041 45.782 52.0619 45.6326 52.1295 45.6643C52.1876 45.6915 52.378 45.8256 52.4644 46.1326L44.7634 48.2993C45.992 52.6659 50.6455 54.5602 55.1866 53.2815L53.0182 45.581ZM52.4641 46.1317C52.5509 46.4396 52.458 46.6542 52.4224 46.7081C52.3811 46.7707 52.51 46.5165 53.2256 46.3151L51.0582 38.6143C46.5173 39.8923 43.5341 43.934 44.7637 48.3002L52.4641 46.1317ZM53.2207 46.3164C54.2492 46.0284 55.2071 45.5583 55.9812 44.8668C56.3597 44.5287 56.7618 44.0762 57.0732 43.4949C57.2815 43.1059 57.8797 41.8701 57.438 40.3187L49.7438 42.5093C49.5144 41.7036 49.5989 41.0266 49.6807 40.649C49.7691 40.2407 49.9091 39.9266 50.0211 39.7176C50.2452 39.2991 50.4977 39.0381 50.6516 38.9006C50.9764 38.6105 51.1851 38.5787 51.063 38.6129L53.2207 46.3164ZM57.4368 40.3143C57.0052 38.8051 55.8952 38.0684 55.4911 37.829C54.9185 37.4899 54.3351 37.311 53.8325 37.2188C52.8066 37.0307 51.7428 37.1315 50.7187 37.4199L52.8871 45.1204C53.018 45.0835 52.8227 45.1671 52.3893 45.0876C52.1829 45.0497 51.8268 44.9567 51.4138 44.712C51.2069 44.5895 50.9253 44.3929 50.6399 44.091C50.373 43.8087 49.9667 43.2891 49.745 42.5137L57.4368 40.3143ZM50.7182 37.42C52.052 37.0442 53.43 37.8246 53.8031 39.1467L46.1037 41.3192C46.9268 44.236 49.9577 45.9457 52.8876 45.1202L50.7182 37.42ZM53.8025 39.1448C54.1814 40.4851 53.3964 41.867 52.0694 42.2384L49.9134 34.5344C46.9904 35.3524 45.2754 38.3891 46.1043 41.3211L53.8025 39.1448ZM39.5013 30.3438C40.2281 30.3438 40.9547 30.6658 41.4434 31.2725L35.2132 36.2909C36.296 37.635 37.8926 38.3438 39.5013 38.3438V30.3438ZM41.453 31.2844C42.3132 32.3606 42.1405 33.9345 41.0608 34.7981L36.0639 28.5506C33.6912 30.4484 33.3085 33.9078 35.2037 36.279L41.453 31.2844ZM41.0652 34.7946C41.0271 34.8251 42.7241 33.4662 45.6296 32.2879C48.5223 31.1148 52.5044 30.1624 57.1469 30.8259L58.2786 22.9063C45.5741 21.0908 36.6415 28.0873 36.0595 28.5541L41.0652 34.7946ZM57.1485 30.8261C55.7803 30.6312 54.8299 29.3623 55.0249 27.9962L62.9446 29.1264C63.3736 26.1205 61.2862 23.3349 58.277 22.9061L57.1485 30.8261ZM55.025 27.9952C55.2165 26.6555 56.4716 25.6675 57.8741 25.8756L56.6994 33.7889C59.7579 34.2429 62.519 32.1038 62.9445 29.1274L55.025 27.9952ZM57.8487 25.8719C46.4314 24.252 38.2599 30.6337 37.9315 30.8977L42.9432 37.1333C42.7527 37.2864 48.6632 32.6488 56.7248 33.7926L57.8487 25.8719ZM37.9397 30.8911C38.3995 30.5235 38.9589 30.3438 39.5013 30.3438V38.3438C40.7008 38.3438 41.9201 37.9511 42.9349 37.1399L37.9397 30.8911ZM13.6315 24.1083C13.8813 24.1083 14.1124 24.145 14.3187 24.2051L12.0803 31.8856C12.5747 32.0297 13.0967 32.1083 13.6315 32.1083V24.1083ZM14.3501 24.2144C15.6712 24.6112 16.4236 26.005 16.025 27.33L8.36408 25.0256C7.48851 27.9364 9.14086 31.0029 12.049 31.8763L14.3501 24.2144ZM16.0253 27.3291C16.9341 24.305 17.7995 20.3964 18.1909 16.8646C18.3858 15.1059 18.4782 13.3109 18.3574 11.705C18.2513 10.2956 17.9373 8.22946 16.6582 6.63941L10.4248 11.6539C10.0922 11.2404 10.2956 11.1845 10.3799 12.3055C10.4495 13.23 10.4056 14.4854 10.2396 15.9834C9.9091 18.9652 9.15448 22.3956 8.36379 25.0266L16.0253 27.3291ZM16.6675 6.65096C16.3398 6.24048 15.7484 5.60747 14.7927 5.1626C13.8448 4.7214 12.8686 4.61684 11.9764 4.68444L12.5807 12.6616C12.4205 12.6737 11.9692 12.6726 11.4167 12.4154C10.8562 12.1545 10.5303 11.786 10.4156 11.6423L16.6675 6.65096ZM11.9772 4.68437C9.98943 4.83456 8.73583 6.061 8.10303 7.06335C7.52714 7.97553 7.29286 8.92621 7.18214 9.51747C6.95251 10.7437 7.00603 11.8668 7.01155 11.977L15.0015 11.5772C15.0056 11.6574 14.9908 11.2816 15.0455 10.9899C15.0769 10.8222 15.0728 11.0092 14.8677 11.334C14.7486 11.5228 14.5133 11.8338 14.1069 12.1171C13.6718 12.4204 13.1419 12.6192 12.5799 12.6616L11.9772 4.68437ZM7.01814 12.0813C6.91233 10.6943 7.95294 9.49718 9.32643 9.39488L9.92068 17.3728C12.9442 17.1476 15.2268 14.5115 14.995 11.4728L7.01814 12.0813ZM9.3809 9.39119C10.663 9.31327 11.9016 10.2861 12.005 11.7106L4.02608 12.2902C4.24957 15.3665 6.90711 17.5563 9.86621 17.3765L9.3809 9.39119ZM12.0042 11.6994C11.9865 11.4643 11.9892 11.1158 12.0426 10.7364C12.0964 10.3538 12.1874 10.041 12.2863 9.82342C12.3838 9.60912 12.4433 9.58402 12.3938 9.62349C12.3084 9.69143 12.2468 9.68104 12.3537 9.67295L11.7504 1.69573C8.15582 1.96758 6.02447 4.26712 5.00367 6.51238C4.0638 8.57965 3.9142 10.8082 4.02691 12.3015L12.0042 11.6994ZM12.354 9.67293C12.4786 9.6635 12.5614 9.66994 12.609 9.6769C12.6554 9.68368 12.6758 9.69198 12.6793 9.69342C12.6823 9.69466 12.6852 9.69588 12.6928 9.70164C12.7011 9.70793 12.7272 9.72908 12.7669 9.77842L18.9961 4.75879C17.1832 2.50903 14.554 1.48351 11.7501 1.69575L12.354 9.67293ZM12.7643 9.77513C12.9087 9.95481 13.2488 10.6254 13.3744 12.1891C13.4923 13.6555 13.386 15.4382 13.1295 17.3278C12.618 21.0952 11.5943 24.7001 11.2367 25.8884L18.8973 28.1939C19.3002 26.8552 20.462 22.7853 21.0568 18.404C21.3534 16.2192 21.5304 13.809 21.3487 11.5482C21.1749 9.38482 20.6326 6.79392 18.9988 4.76208L12.7643 9.77513ZM11.2362 25.8901C11.5646 24.7973 12.5642 24.1083 13.6315 24.1083V32.1083C15.9888 32.1083 18.1795 30.583 18.8978 28.1922L11.2362 25.8901ZM41.4998 18.3659C41.4998 17.3949 42.2856 16.6142 43.2498 16.6142V24.6142C46.698 24.6142 49.4998 21.819 49.4998 18.3659H41.4998ZM43.2498 16.6142C44.214 16.6142 44.9998 17.3949 44.9998 18.3659H36.9998C36.9998 21.819 39.8016 24.6142 43.2498 24.6142V16.6142ZM44.9998 18.3659C44.9998 19.337 44.214 20.1177 43.2498 20.1177V12.1177C39.8016 12.1177 36.9998 14.9128 36.9998 18.3659H44.9998ZM43.2498 20.1177C42.2856 20.1177 41.4998 19.337 41.4998 18.3659H49.4998C49.4998 14.9128 46.698 12.1177 43.2498 12.1177V20.1177ZM6.99997 31.106C6.99997 30.5486 7.44977 30.1036 7.99999 30.1036V38.1036C11.8622 38.1036 15 34.9727 15 31.106H6.99997ZM7.99999 30.1036C8.5502 30.1036 9 30.5486 9 31.106H1C1 34.9727 4.13778 38.1036 7.99999 38.1036V30.1036ZM9 31.106C9 31.6631 8.5489 32.1083 7.99999 32.1083V24.1083C4.13909 24.1083 1 27.2364 1 31.106H9ZM7.99999 32.1083C7.45107 32.1083 6.99997 31.6631 6.99997 31.106H15C15 27.2364 11.8609 24.1083 7.99999 24.1083V32.1083ZM51.9997 33.3542C51.9997 32.3832 52.7855 31.6025 53.7498 31.6025V39.6025C57.198 39.6025 59.9997 36.8073 59.9997 33.3542H51.9997ZM53.7498 31.6025C54.714 31.6025 55.4998 32.3832 55.4998 33.3542H47.4998C47.4998 36.8073 50.3016 39.6025 53.7498 39.6025V31.6025ZM55.4998 33.3542C55.4998 34.3253 54.714 35.106 53.7498 35.106V27.106C50.3016 27.106 47.4998 29.9011 47.4998 33.3542H55.4998ZM53.7498 35.106C52.7855 35.106 51.9997 34.3253 51.9997 33.3542H59.9997C59.9997 29.9011 57.198 27.106 53.7498 27.106V35.106ZM38.4998 51.3402C38.4998 50.3691 39.2856 49.5884 40.2498 49.5884V57.5884C43.698 57.5884 46.4998 54.7933 46.4998 51.3402H38.4998ZM40.2498 49.5884C41.214 49.5884 41.9998 50.3691 41.9998 51.3402H33.9998C33.9998 54.7933 36.8016 57.5884 40.2498 57.5884V49.5884ZM41.9998 51.3402C41.9998 52.3112 41.214 53.0919 40.2498 53.0919V45.0919C36.8016 45.0919 33.9998 47.8871 33.9998 51.3402H41.9998ZM40.2498 53.0919C39.2856 53.0919 38.4998 52.3112 38.4998 51.3402H46.4998C46.4998 47.8871 43.698 45.0919 40.2498 45.0919V53.0919ZM45.9998 10.1224C45.9998 9.56632 46.4498 9.12003 46.9998 9.12003V17.12C50.8648 17.12 53.9998 13.9878 53.9998 10.1224H45.9998ZM46.9998 9.12003C47.55 9.12003 47.9998 9.56501 47.9998 10.1224H39.9998C39.9998 13.9891 43.1376 17.12 46.9998 17.12V9.12003ZM47.9998 10.1224C47.9998 10.6795 47.5487 11.1247 46.9998 11.1247V3.12472C43.1389 3.12472 39.9998 6.2528 39.9998 10.1224H47.9998ZM46.9998 11.1247C46.4511 11.1247 45.9998 10.6782 45.9998 10.1224H53.9998C53.9998 6.2541 50.8635 3.12472 46.9998 3.12472V11.1247ZM51.9997 16.8671C51.9997 15.8961 52.7855 15.1153 53.7498 15.1153V23.1153C57.198 23.1153 59.9997 20.3202 59.9997 16.8671H51.9997ZM53.7498 15.1153C54.714 15.1153 55.4998 15.8961 55.4998 16.8671H47.4998C47.4998 20.3202 50.3016 23.1153 53.7498 23.1153V15.1153ZM55.4998 16.8671C55.4998 17.8381 54.714 18.6189 53.7498 18.6189V10.6189C50.3016 10.6189 47.4998 13.414 47.4998 16.8671H55.4998ZM53.7498 18.6189C52.7855 18.6189 51.9997 17.8381 51.9997 16.8671H59.9997C59.9997 13.414 57.198 10.6189 53.7498 10.6189V18.6189ZM47.4998 22.8624C47.4998 21.8914 48.2856 21.1107 49.2498 21.1107V29.1107C52.698 29.1107 55.4998 26.3155 55.4998 22.8624H47.4998ZM49.2498 21.1107C50.214 21.1107 50.9998 21.8914 50.9998 22.8624H42.9998C42.9998 26.3155 45.8016 29.1107 49.2498 29.1107V21.1107ZM50.9998 22.8624C50.9998 23.8335 50.214 24.6142 49.2498 24.6142V16.6142C45.8016 16.6142 42.9998 19.4093 42.9998 22.8624H50.9998ZM49.2498 24.6142C48.2856 24.6142 47.4998 23.8335 47.4998 22.8624H55.4998C55.4998 19.4093 52.698 16.6142 49.2498 16.6142V24.6142ZM14.4999 39.3495C14.4999 38.3785 15.2857 37.5978 16.2499 37.5978V45.5978C19.6981 45.5978 22.4999 42.8026 22.4999 39.3495H14.4999ZM16.2499 37.5978C17.2142 37.5978 18 38.3785 18 39.3495H9.99996C9.99996 42.8026 12.8017 45.5978 16.2499 45.5978V37.5978ZM18 39.3495C18 40.3206 17.2142 41.1013 16.2499 41.1013V33.1013C12.8017 33.1013 9.99996 35.8964 9.99996 39.3495H18ZM16.2499 41.1013C15.2857 41.1013 14.4999 40.3206 14.4999 39.3495H22.4999C22.4999 35.8964 19.6981 33.1013 16.2499 33.1013V41.1013Z" fill="white" mask="url(#path-1-outside-1_2_4)"/>
</svg>
