<svg width="64" height="64" viewBox="0 0 64 64" fill="none" xmlns="http://www.w3.org/2000/svg">
<path d="M57 28.5556C57 20.6932 54.1777 14.2653 49.4963 9.80842C44.8304 5.36633 38.4429 3 31.5 3C24.5578 3 18.1703 5.36635 13.5043 9.80839C8.82271 14.2652 6 20.6932 6 28.5556C6 28.6213 5.99999 28.6871 5.99999 28.7529C5.99965 32.7013 5.9993 36.8113 7.21089 40.343C8.39421 43.7923 10.6918 46.6155 14.8125 48.4984V53.5833C14.8125 57.1229 17.676 60 21.2188 60C23.3257 60 25.1924 58.9824 26.3594 57.4131C27.5264 58.9824 29.3931 60 31.5 60C33.6071 60 35.4738 58.9823 36.6408 57.4128C37.8082 58.9824 39.6752 60 41.7812 60C45.324 60 48.1875 57.1229 48.1875 53.5833V48.4984C52.3082 46.6155 54.6058 43.7923 55.7891 40.343C57.0007 36.8113 57.0004 32.7013 57 28.7529L57 28.5556Z" fill="white" stroke="white" stroke-width="4"/>
<path d="M55 28.5556C55 13.8333 44.4793 5 31.5 5C18.5221 5 8 13.8333 8 28.5556C8 36.7617 8.00294 43.849 16.8125 47.1644V53.5833C16.8125 56.0228 18.785 58 21.2188 58C23.6525 58 25.625 56.0228 25.625 53.5833V48.9385C26.1009 48.9782 26.5929 49.0121 27.0938 49.0415V53.5833C27.0938 56.0228 29.0663 58 31.5 58C33.9337 58 35.9063 56.0228 35.9063 53.5833V49.0415C36.4086 49.0106 36.8991 48.9782 37.375 48.9385V53.5833C37.375 56.0228 39.349 58 41.7813 58C44.215 58 46.1875 56.0228 46.1875 53.5833V47.1644C54.9971 43.849 55 36.7617 55 28.5556Z" fill="#CCD6DD"/>
<path d="M20.838 32.9549C25.044 32.9549 28.4537 29.4654 28.4537 25.1608C28.4537 20.8562 25.044 17.3667 20.838 17.3667C16.6319 17.3667 13.2222 20.8562 13.2222 25.1608C13.2222 29.4654 16.6319 32.9549 20.838 32.9549Z" fill="#292F33"/>
<path d="M42.162 32.9549C46.3681 32.9549 49.7778 29.4654 49.7778 25.1608C49.7778 20.8562 46.3681 17.3667 42.162 17.3667C37.956 17.3667 34.5463 20.8562 34.5463 25.1608C34.5463 29.4654 37.956 32.9549 42.162 32.9549Z" fill="#292F33"/>
<path d="M34.3986 39.2868C34.0147 38.3313 32.8708 37.6314 31.5 37.6314C30.1292 37.6314 28.9838 38.3313 28.6014 39.2868C27.6388 39.5612 26.9306 40.456 26.9306 41.5284C26.9306 42.8191 27.9526 43.8667 29.2153 43.8667C30.2129 43.8667 31.0522 43.2088 31.3629 42.2969C31.4086 42.2985 31.4528 42.3078 31.5 42.3078C31.5472 42.3078 31.5914 42.2985 31.6371 42.2969C31.9493 43.2088 32.7886 43.8667 33.7847 43.8667C35.0459 43.8667 36.0694 42.8191 36.0694 41.5284C36.0694 40.456 35.3597 39.5628 34.3986 39.2868Z" fill="#292F33"/>
</svg>
