<svg width="57" height="57" viewBox="0 0 57 57" fill="none" xmlns="http://www.w3.org/2000/svg">
<path d="M55 28.5C55 43.1355 43.1355 55 28.5 55C13.8645 55 2 43.1355 2 28.5C2 13.8645 13.8645 2 28.5 2C43.1355 2 55 13.8645 55 28.5Z" fill="#E943E9" stroke="white" stroke-width="4"/>
<rect x="18" y="26" width="21" height="3" rx="1.5" fill="#2DC89E"/>
<path d="M11.1334 15.705L11.2099 20.2348L10.136 19.8336L10.0267 13.3624L16.108 15.5776L16.1367 16.7237L11.8799 15.173L16.5905 21.7829L15.844 22.3149L11.1334 15.705Z" fill="#FEF7FF"/>
<path d="M44.453 15.1898L40.1726 16.6743L40.2191 15.5289L46.3339 13.4081L46.1245 19.8768L45.0445 20.2614L45.1911 15.7333L40.3787 22.2694L39.6406 21.7259L44.453 15.1898Z" fill="#FEF7FF"/>
<path d="M12.9184 41.0789L17.2897 39.8883L17.1655 41.0279L10.9208 42.7288L11.569 36.2891L12.6725 35.9788L12.2189 40.4865L17.4638 34.2921L18.1634 34.8845L12.9184 41.0789Z" fill="#FEF7FF"/>
<path d="M44.2972 40.6241L44.0558 36.1L45.1436 36.4618L45.4885 42.9248L39.3306 40.9325L39.2601 39.7883L43.5706 41.1829L38.6224 34.749L39.349 34.1902L44.2972 40.6241Z" fill="#FEF7FF"/>
</svg>
