<svg width="211" height="212" viewBox="0 0 211 212" fill="none" xmlns="http://www.w3.org/2000/svg">
<circle cx="105.5" cy="106" r="99.5" fill="#377AE3" stroke="white" stroke-width="12"/>
<g clip-path="url(#clip0_1281_2274)">
<path d="M63.297 128.212C63.3438 130.362 63.7062 132.488 64.3152 134.602C67.1175 144.325 76.0711 154.024 86.0546 161.943C86.4249 162.237 86.7264 162.608 86.938 163.031C87.1496 163.454 87.2661 163.918 87.2795 164.391L87.972 189.192V323.177H126.066L126.101 162.937C126.102 162.116 126.414 161.326 126.975 160.727C127.536 160.127 128.74 160.123 129.456 159.652C130.315 159.068 130.501 159.083 132.221 157.487C133.941 155.891 135.897 153.621 137.592 151.272C138.894 149.471 140.048 147.607 140.869 146.003C140.287 145.99 139.71 145.936 139.152 145.847C136.408 145.407 133.74 144.219 131.327 142.645C128.914 141.071 126.764 139.118 125.274 136.795C124.345 135.347 123.643 133.596 123.565 131.781C117.998 129.141 111.034 125.096 108.628 116.37C108.484 115.85 108.448 115.477 108.456 115.171C108.463 114.866 108.515 114.628 108.551 114.378C108.572 114.231 108.603 114.089 108.63 113.945C104.223 118.602 99.1972 121.806 93.9487 124.201C103.715 129.196 109.686 138.879 113.945 146.894L108.231 149.935C102.975 140.043 96.0806 129.487 83.7804 127.625C83.057 127.515 82.3921 127.163 81.8943 126.627C81.3965 126.09 81.0951 125.4 81.0393 124.67C80.9836 123.939 81.1767 123.211 81.5872 122.605C81.9977 121.999 82.6014 121.55 83.2997 121.331C91.9344 118.63 99.6034 114.97 105.732 107.427C107.447 104.305 106.347 98.8374 100.245 96.6728C92.0131 98.8654 85.977 99.9967 78.0847 103.862C67.0011 112.564 63.1317 120.535 63.297 128.212ZM70.4178 47.8816C70.4358 49.4796 70.6012 51.28 70.9571 53.2782L80.0947 95.8659C85.2795 93.7812 89.9039 92.6388 94.9007 91.3704C94.4143 89.0515 92.7444 81.0954 90.7617 71.7519C89.6148 66.3484 88.4511 60.8974 87.5412 56.7072C87.0861 54.6125 87.2141 55.4458 86.9218 54.1523C86.7755 53.5059 85.9608 50.8301 85.8716 50.4598C85.3465 48.8773 85.3227 48.8449 84.8214 47.2948C83.1594 42.6813 82.0152 41.6982 79.9383 39.9345C77.8424 38.1537 76.0484 37.7822 74.7729 38.0478C73.4974 38.3135 72.284 39.1859 71.3493 41.6082C70.7658 43.1198 70.3876 45.2189 70.4178 47.8816ZM101.683 90.2802C108.179 92.3001 112.039 97.4164 112.787 102.698C113.126 101.941 113.473 101.179 113.828 100.423C115.29 97.3059 116.84 94.2934 118.271 91.974C118.623 91.4043 118.961 90.8799 119.306 90.3929C121.5 73.4755 122.2 53.5082 121.165 40.9362C120.943 38.2505 120.082 36.6495 119.165 35.758C118.248 34.8665 117.235 34.535 115.951 34.6603C113.381 34.9097 109.574 37.5519 107.838 44.0409C105.932 51.1587 104.285 61.7195 103.189 71.2426C102.288 79.0781 101.772 86.3593 101.683 90.2802ZM115.014 115.046C116.716 120.606 120.942 123.299 125.584 125.54L136.272 104.717C136.661 103.817 136.594 103.278 136.001 102.202C135.403 101.115 134.114 99.7533 132.494 98.5203C129.87 96.5238 126.729 95.0409 124.622 94.176C124.347 94.5511 124.132 94.8023 123.777 95.3782C122.572 97.33 121.077 100.208 119.685 103.177C118.292 106.144 116.987 109.228 116.096 111.631C115.651 112.833 115.309 113.874 115.12 114.577C115.059 114.805 115.042 114.911 115.014 115.046ZM130.014 131.446C130.005 131.56 130.013 131.698 130.051 131.866C130.126 132.208 130.319 132.669 130.721 133.295C131.524 134.548 133.079 136.054 134.861 137.217C136.644 138.38 138.663 139.208 140.177 139.45C141.69 139.693 142.336 139.416 142.611 139.13C142.667 139.07 143.65 137.624 144.534 135.775C145.417 133.925 146.393 131.564 147.284 129.082C148.993 124.335 150.319 119.004 150.46 116.329C149.401 112.729 148.026 111.113 146.51 110.259C145.243 109.546 143.566 109.277 141.482 109.362L130.082 131.167C130.05 131.24 130.024 131.331 130.014 131.446Z" fill="white"/>
</g>
<circle cx="105.5" cy="106" r="99.5" stroke="white" stroke-width="12"/>
<g opacity="0.75">
<path d="M153.339 35.0124L168 51.9457L53.6612 183.994L39 167.061L153.339 35.0124Z" fill="#FF5959"/>
<path d="M167.989 167.073L153.329 184L39.0049 51.9272L53.6655 35L167.989 167.073Z" fill="#FF5959"/>
</g>
<defs>
<clipPath id="clip0_1281_2274">
<rect width="134.427" height="158.25" fill="white" transform="translate(39.1371 20.9199)"/>
</clipPath>
</defs>
</svg>
