<svg width="56" height="57" viewBox="0 0 56 57" fill="none" xmlns="http://www.w3.org/2000/svg">
<path d="M54 28.5C54 43.1691 42.3262 55 28 55C13.6738 55 2 43.1691 2 28.5C2 13.8309 13.6738 2 28 2C42.3262 2 54 13.8309 54 28.5Z" fill="#E943E9" stroke="white" stroke-width="4"/>
<rect x="16" y="27" width="24" height="4" rx="2" fill="#2DC89E"/>
<path d="M17.7037 18.7912L17.3816 14.345L18.5068 14.3569L18.9668 20.7086L12.5985 20.6975L12.5073 19.576L16.9652 19.5838L11.7692 14.7421L12.5077 13.9496L17.7037 18.7912Z" fill="#FEF7FF"/>
<path d="M38.4344 39.2067L38.6423 43.6597L37.5178 43.6189L37.2209 37.2575L43.5868 37.432L43.6492 38.5554L39.193 38.4333L44.2631 43.4067L43.5044 44.1801L38.4344 39.2067Z" fill="#FEF7FF"/>
<path d="M16.8274 38.3816L12.3797 38.6817L12.3972 37.5566L18.751 37.1279L18.7086 43.4961L17.5866 43.5817L17.6164 39.124L12.7491 44.296L11.9602 43.5536L16.8274 38.3816Z" fill="#FEF7FF"/>
<path d="M39.1512 19.5959L43.609 19.5632L43.524 20.6852L37.1559 20.7319L37.5804 14.3777L38.7055 14.3595L38.4083 18.8075L43.5771 13.9368L44.3201 14.7253L39.1512 19.5959Z" fill="#FEF7FF"/>
</svg>
