<svg width="322" height="319" viewBox="0 0 322 319" fill="none" xmlns="http://www.w3.org/2000/svg">
<path d="M248.215 84.9047C283.774 127.143 277.877 189.91 234.974 225.093C192.072 260.276 128.472 254.502 92.9136 212.264C57.3551 170.026 63.2522 107.259 106.154 72.0754C149.057 36.8923 212.657 42.6668 248.215 84.9047Z" fill="#377AE3" stroke="white" stroke-width="12"/>
<mask id="mask0_1286_2357" style="mask-type:luminance" maskUnits="userSpaceOnUse" x="84" y="31" width="208" height="208">
<path d="M188.854 31.0004L84 116.988L186.411 238.637L291.265 152.649L188.854 31.0004Z" fill="white"/>
</mask>
<g mask="url(#mask0_1286_2357)">
<path d="M172.279 184.011C173.706 185.633 175.365 187.036 177.208 188.271C185.686 193.953 198.947 195.681 211.859 195.383C212.338 195.372 212.813 195.464 213.252 195.654C213.691 195.844 214.082 196.126 214.398 196.481L230.989 215.103L317.697 318.098L347.41 293.731L243.738 170.531C243.207 169.899 242.94 169.092 242.989 168.273C243.039 167.453 243.975 166.68 244.229 165.86C244.521 164.861 244.676 164.753 244.985 162.426C245.294 160.099 245.35 157.104 245.153 154.213C245.002 151.996 244.696 149.825 244.299 148.067C243.836 148.429 243.351 148.757 242.858 149.045C240.433 150.462 237.583 151.256 234.683 151.589C231.782 151.922 228.841 151.797 226.176 150.964C224.514 150.445 222.833 149.549 221.597 148.203C215.547 149.734 207.497 151.08 199.973 145.911C199.525 145.603 199.255 145.34 199.063 145.1C198.871 144.861 198.758 144.644 198.624 144.429C198.546 144.302 198.477 144.174 198.405 144.045C197.982 150.444 196.135 156.122 193.591 161.32C204.442 158.913 215.365 162.537 223.874 165.974L221.385 171.967C210.884 167.724 198.675 164.021 187.876 170.457C187.241 170.835 186.494 170.99 185.759 170.896C185.023 170.802 184.341 170.464 183.825 169.938C183.309 169.413 182.989 168.73 182.917 168.001C182.844 167.272 183.025 166.541 183.428 165.926C188.415 158.327 192.028 150.607 191.927 140.889C191.245 137.392 186.848 133.893 180.688 136.132C175.686 143.083 171.71 147.814 168.055 155.834C165.041 169.612 167.182 178.215 172.279 184.011ZM125.847 117.705C126.896 118.922 128.19 120.2 129.76 121.508L164.448 148.401C167.143 143.482 170.011 139.646 173.088 135.474C171.208 134.003 164.756 128.955 157.163 123.041C152.772 119.621 148.336 116.175 144.915 113.536C143.204 112.217 143.844 112.776 142.779 111.968C142.246 111.565 139.879 110.029 139.57 109.802C138.136 108.921 138.097 108.911 136.702 108.04C132.42 105.557 130.892 105.533 128.13 105.506C125.343 105.478 123.703 106.34 122.88 107.36C122.057 108.38 121.676 109.827 122.514 112.287C123.037 113.822 124.101 115.677 125.847 117.705ZM177.673 130.298C184.047 127.695 190.368 129.159 194.369 132.741C194.144 131.942 193.922 131.135 193.709 130.326C192.832 126.995 192.092 123.687 191.707 120.989C191.613 120.326 191.538 119.707 191.491 119.112C182.255 104.704 169.878 88.9077 160.935 79.9053C159.025 77.9824 157.317 77.3028 156.024 77.2043C154.732 77.1054 153.728 77.4984 152.807 78.4163C150.964 80.2518 149.705 84.7177 152.549 90.8169C155.669 97.5072 161.219 106.679 166.527 114.7C170.895 121.3 175.205 127.227 177.673 130.298ZM204.098 140.808C209.024 143.993 214.062 143.361 219.133 142.114L213.995 119.271C213.716 118.33 213.314 117.958 212.156 117.51C210.985 117.057 209.099 116.835 207.037 116.924C203.699 117.067 200.289 117.937 198.086 118.62C198.114 119.084 198.109 119.414 198.205 120.084C198.528 122.355 199.225 125.524 200.06 128.696C200.894 131.869 201.871 135.074 202.732 137.491C203.162 138.7 203.569 139.719 203.877 140.38C203.977 140.595 204.032 140.687 204.098 140.808ZM226.411 143.82C226.478 143.914 226.573 144.014 226.711 144.12C226.992 144.334 227.441 144.565 228.159 144.789C229.596 145.239 231.784 145.402 233.927 145.156C236.07 144.91 238.18 144.254 239.518 143.472C240.855 142.691 241.18 142.065 241.209 141.67C241.215 141.587 241.045 139.847 240.538 137.86C240.03 135.873 239.262 133.434 238.352 130.956C236.612 126.214 234.197 121.268 232.576 119.121C229.42 117.031 227.302 116.668 225.566 116.982C224.117 117.244 222.635 118.11 221.064 119.508L226.284 143.562C226.306 143.639 226.344 143.726 226.411 143.82Z" fill="white"/>
</g>
<path d="M248.215 84.9047C283.774 127.143 277.877 189.91 234.974 225.093C192.072 260.276 128.472 254.502 92.9136 212.264C57.3551 170.026 63.2522 107.259 106.154 72.0754C149.057 36.8923 212.657 42.6668 248.215 84.9047Z" stroke="white" stroke-width="12"/>
<mask id="mask1_1286_2357" style="mask-type:luminance" maskUnits="userSpaceOnUse" x="67" y="51" width="193" height="192">
<path d="M259.982 133.373L181.326 51.541L67.4849 160.963L146.141 242.795L259.982 133.373Z" fill="white"/>
</mask>
<g mask="url(#mask1_1286_2357)">
<path d="M109.256 140.706C107.737 142.221 106.419 143.912 105.255 145.744C99.9001 154.173 98.1616 166.33 98.3062 177.883C98.3115 178.312 98.2208 178.752 98.0405 179.173C97.8601 179.594 97.5945 179.986 97.2622 180.321L79.8259 197.892L-16.5593 290.536L5.73024 313.725L121.023 202.948C121.614 202.381 122.365 202.025 123.124 201.952C123.884 201.879 124.591 202.609 125.349 202.719C126.272 202.838 126.37 202.962 128.525 202.905C130.68 202.849 133.456 202.47 136.138 201.878C138.195 201.425 140.212 200.838 141.846 200.229C141.515 199.866 141.216 199.477 140.954 199.076C139.665 197.101 138.958 194.656 138.679 192.099C138.399 189.541 138.546 186.882 139.345 184.369C139.844 182.802 140.692 181.164 141.952 179.861C140.594 174.647 139.429 167.611 144.299 160.113C144.588 159.666 144.835 159.386 145.06 159.179C145.284 158.972 145.486 158.84 145.686 158.689C145.805 158.6 145.925 158.52 146.044 158.437C140.115 158.975 134.87 158.131 130.076 156.592C132.197 165.991 128.725 176.32 125.451 184.455L119.92 183.08C123.961 173.04 127.52 161.545 121.663 152.769C121.319 152.253 121.183 151.605 121.278 150.931C121.373 150.257 121.693 149.596 122.186 149.057C122.678 148.518 123.315 148.133 123.991 147.963C124.668 147.794 125.344 147.851 125.91 148.125C132.905 151.514 140.025 153.651 149.037 152.166C152.287 151.052 155.576 146.601 153.563 141.39C147.169 137.895 142.824 135.003 135.425 132.871C122.68 132.141 114.682 135.297 109.256 140.706ZM171.21 89.4963C170.071 90.6122 168.872 91.9577 167.643 93.5561L142.353 128.566C146.887 130.281 150.414 132.306 154.25 134.47C155.634 132.571 160.38 126.053 165.942 118.386C169.158 113.951 172.398 109.474 174.88 106.023C176.121 104.297 175.596 104.951 176.356 103.879C176.735 103.343 178.183 100.997 178.397 100.686C179.229 99.2725 179.238 99.2357 180.06 97.8586C182.406 93.6569 182.444 92.2806 182.497 89.7969C182.552 87.2896 181.77 85.9407 180.832 85.3479C179.895 84.7551 178.557 84.6197 176.268 85.7256C174.839 86.4157 173.108 87.6368 171.21 89.4963ZM159.003 137.845C161.351 143.197 159.929 149.084 156.568 153.191C157.31 152.873 158.061 152.559 158.813 152.251C161.911 150.986 164.985 149.847 167.491 149.114C168.106 148.935 168.682 148.778 169.233 148.651C182.687 138.289 197.46 124.909 205.899 115.586C207.702 113.594 208.349 111.963 208.454 110.788C208.559 109.613 208.205 108.768 207.363 108.072C205.68 106.68 201.552 106.19 195.868 109.62C189.632 113.381 181.071 119.681 173.58 125.599C167.416 130.468 161.876 135.189 159.003 137.845ZM148.987 163.085C145.984 167.965 146.519 172.4 147.623 176.775L168.856 168.884C169.731 168.498 170.08 168.084 170.508 166.979C170.939 165.863 171.164 164.138 171.103 162.299C171.005 159.321 170.233 156.383 169.622 154.503C169.192 154.595 168.885 154.638 168.263 154.82C166.154 155.436 163.209 156.516 160.259 157.721C157.309 158.926 154.328 160.263 152.077 161.382C150.952 161.942 150.003 162.454 149.387 162.825C149.187 162.945 149.101 163.008 148.987 163.085ZM145.967 183.555C145.879 183.629 145.785 183.729 145.686 183.868C145.484 184.151 145.266 184.587 145.05 185.265C144.619 186.62 144.445 188.608 144.651 190.497C144.857 192.386 145.444 194.188 146.155 195.276C146.866 196.366 147.443 196.568 147.809 196.537C147.885 196.53 149.501 196.128 151.349 195.388C153.195 194.646 155.465 193.607 157.772 192.434C162.187 190.192 166.797 187.313 168.805 185.549C170.775 182.415 171.133 180.461 170.86 178.947C170.632 177.684 169.844 176.477 168.563 175.267L146.207 183.404C146.136 183.435 146.055 183.482 145.967 183.555Z" fill="#FF5959"/>
<mask id="mask2_1286_2357" style="mask-type:luminance" maskUnits="userSpaceOnUse" x="-39" y="68" width="274" height="268">
<path d="M234.919 68.9297H-38.1367V335.998H234.919V68.9297Z" fill="white"/>
<path d="M109.256 140.706C107.737 142.221 106.419 143.912 105.255 145.744C99.9001 154.173 98.1616 166.33 98.3062 177.883C98.3115 178.312 98.2208 178.752 98.0405 179.173C97.8601 179.594 97.5945 179.986 97.2622 180.321L79.8259 197.892L-16.5593 290.536L5.73024 313.725L121.023 202.948C121.614 202.381 122.365 202.025 123.124 201.952C123.884 201.879 124.591 202.609 125.349 202.719C126.272 202.838 126.37 202.962 128.525 202.905C130.68 202.849 133.456 202.47 136.138 201.878C138.195 201.425 140.212 200.838 141.846 200.229C141.515 199.866 141.216 199.477 140.954 199.076C139.665 197.101 138.958 194.656 138.679 192.099C138.399 189.541 138.546 186.882 139.345 184.369C139.844 182.802 140.692 181.164 141.952 179.861C140.594 174.647 139.429 167.611 144.299 160.113C144.588 159.666 144.835 159.386 145.06 159.179C145.284 158.972 145.486 158.84 145.686 158.689C145.805 158.6 145.925 158.52 146.044 158.437C140.115 158.975 134.87 158.131 130.076 156.592C132.197 165.991 128.725 176.32 125.451 184.455L119.92 183.08C123.961 173.04 127.52 161.545 121.663 152.769C121.319 152.253 121.183 151.605 121.278 150.931C121.373 150.257 121.693 149.596 122.186 149.057C122.678 148.518 123.315 148.133 123.991 147.963C124.668 147.794 125.344 147.851 125.91 148.125C132.905 151.514 140.025 153.651 149.037 152.166C152.287 151.052 155.576 146.601 153.563 141.39C147.169 137.895 142.824 135.003 135.425 132.871C122.68 132.141 114.682 135.297 109.256 140.706ZM171.21 89.4963C170.071 90.6122 168.872 91.9577 167.643 93.5561L142.353 128.566C146.887 130.281 150.414 132.306 154.25 134.47C155.634 132.571 160.38 126.053 165.942 118.386C169.158 113.951 172.398 109.474 174.88 106.023C176.121 104.297 175.596 104.951 176.356 103.879C176.735 103.343 178.183 100.997 178.397 100.686C179.229 99.2725 179.238 99.2357 180.06 97.8586C182.406 93.6569 182.444 92.2806 182.497 89.7969C182.552 87.2896 181.77 85.9407 180.832 85.3479C179.895 84.7551 178.557 84.6197 176.268 85.7256C174.839 86.4157 173.108 87.6368 171.21 89.4963ZM159.003 137.845C161.351 143.197 159.929 149.084 156.568 153.191C157.31 152.873 158.061 152.559 158.813 152.251C161.911 150.986 164.985 149.847 167.491 149.114C168.106 148.935 168.682 148.778 169.233 148.651C182.687 138.289 197.46 124.909 205.899 115.586C207.702 113.594 208.349 111.963 208.454 110.788C208.559 109.613 208.205 108.768 207.363 108.072C205.68 106.68 201.552 106.19 195.868 109.62C189.632 113.381 181.071 119.681 173.58 125.599C167.416 130.468 161.876 135.189 159.003 137.845ZM148.987 163.085C145.984 167.965 146.519 172.4 147.623 176.775L168.856 168.884C169.731 168.498 170.08 168.084 170.508 166.979C170.939 165.863 171.164 164.138 171.103 162.299C171.005 159.321 170.233 156.383 169.622 154.503C169.192 154.595 168.885 154.638 168.263 154.82C166.154 155.436 163.209 156.516 160.259 157.721C157.309 158.926 154.328 160.263 152.077 161.382C150.952 161.942 150.003 162.454 149.387 162.825C149.187 162.945 149.101 163.008 148.987 163.085ZM145.967 183.555C145.879 183.629 145.785 183.729 145.686 183.868C145.484 184.151 145.266 184.587 145.05 185.265C144.619 186.62 144.445 188.608 144.651 190.497C144.857 192.386 145.444 194.188 146.155 195.276C146.866 196.366 147.443 196.568 147.809 196.537C147.885 196.53 149.501 196.128 151.349 195.388C153.195 194.646 155.465 193.607 157.772 192.434C162.187 190.192 166.797 187.313 168.805 185.549C170.775 182.415 171.133 180.461 170.86 178.947C170.632 177.684 169.844 176.477 168.563 175.267L146.207 183.404C146.136 183.435 146.055 183.482 145.967 183.555Z" fill="black"/>
</mask>
<g mask="url(#mask2_1286_2357)">
<path d="M109.256 140.706C107.737 142.221 106.419 143.912 105.255 145.744C99.9001 154.173 98.1616 166.33 98.3062 177.883C98.3115 178.312 98.2208 178.752 98.0405 179.173C97.8601 179.594 97.5945 179.986 97.2622 180.321L79.8259 197.892L-16.5593 290.536L5.73024 313.725L121.023 202.948C121.614 202.381 122.365 202.025 123.124 201.952C123.884 201.879 124.591 202.609 125.349 202.719C126.272 202.838 126.37 202.962 128.525 202.905C130.68 202.849 133.456 202.47 136.138 201.878C138.195 201.425 140.212 200.838 141.846 200.229C141.515 199.866 141.216 199.477 140.954 199.076C139.665 197.101 138.958 194.656 138.679 192.099C138.399 189.541 138.546 186.882 139.345 184.369C139.844 182.802 140.692 181.164 141.952 179.861C140.594 174.647 139.429 167.611 144.299 160.113C144.588 159.666 144.835 159.386 145.06 159.179C145.284 158.972 145.486 158.84 145.686 158.689C145.805 158.6 145.925 158.52 146.044 158.437C140.115 158.975 134.87 158.131 130.076 156.592C132.197 165.991 128.725 176.32 125.451 184.455L119.92 183.08C123.961 173.04 127.52 161.545 121.663 152.769C121.319 152.253 121.183 151.605 121.278 150.931C121.373 150.257 121.693 149.596 122.186 149.057C122.678 148.518 123.315 148.133 123.991 147.963C124.668 147.794 125.344 147.851 125.91 148.125C132.905 151.514 140.025 153.651 149.037 152.166C152.287 151.052 155.576 146.601 153.563 141.39C147.169 137.895 142.824 135.003 135.425 132.871C122.68 132.141 114.682 135.297 109.256 140.706ZM171.21 89.4963C170.071 90.6122 168.872 91.9577 167.643 93.5561L142.353 128.566C146.887 130.281 150.414 132.306 154.25 134.47C155.634 132.571 160.38 126.053 165.942 118.386C169.158 113.951 172.398 109.474 174.88 106.023C176.121 104.297 175.596 104.951 176.356 103.879C176.735 103.343 178.183 100.997 178.397 100.686C179.229 99.2725 179.238 99.2357 180.06 97.8586C182.406 93.6569 182.444 92.2806 182.497 89.7969C182.552 87.2896 181.77 85.9407 180.832 85.3479C179.895 84.7551 178.557 84.6197 176.268 85.7256C174.839 86.4157 173.108 87.6368 171.21 89.4963ZM159.003 137.845C161.351 143.197 159.929 149.084 156.568 153.191C157.31 152.873 158.061 152.559 158.813 152.251C161.911 150.986 164.985 149.847 167.491 149.114C168.106 148.935 168.682 148.778 169.233 148.651C182.687 138.289 197.46 124.909 205.899 115.586C207.702 113.594 208.349 111.963 208.454 110.788C208.559 109.613 208.205 108.768 207.363 108.072C205.68 106.68 201.552 106.19 195.868 109.62C189.632 113.381 181.071 119.681 173.58 125.599C167.416 130.468 161.876 135.189 159.003 137.845ZM148.987 163.085C145.984 167.965 146.519 172.4 147.623 176.775L168.856 168.884C169.731 168.498 170.08 168.084 170.508 166.979C170.939 165.863 171.164 164.138 171.103 162.299C171.005 159.321 170.233 156.383 169.622 154.503C169.192 154.595 168.885 154.638 168.263 154.82C166.154 155.436 163.209 156.516 160.259 157.721C157.309 158.926 154.328 160.263 152.077 161.382C150.952 161.942 150.003 162.454 149.387 162.825C149.187 162.945 149.101 163.008 148.987 163.085ZM145.967 183.555C145.879 183.629 145.785 183.729 145.686 183.868C145.484 184.151 145.266 184.587 145.05 185.265C144.619 186.62 144.445 188.608 144.651 190.497C144.857 192.386 145.444 194.188 146.155 195.276C146.866 196.366 147.443 196.568 147.809 196.537C147.885 196.53 149.501 196.128 151.349 195.388C153.195 194.646 155.465 193.607 157.772 192.434C162.187 190.192 166.797 187.313 168.805 185.549C170.775 182.415 171.133 180.461 170.86 178.947C170.632 177.684 169.844 176.477 168.563 175.267L146.207 183.404C146.136 183.435 146.055 183.482 145.967 183.555Z" stroke="#377AE3" stroke-width="10"/>
</g>
</g>
</svg>
