<svg width="128" height="128" viewBox="0 0 128 128" fill="none" xmlns="http://www.w3.org/2000/svg">
    <rect x="4" y="4" width="120" height="120" rx="12" fill="#276585" stroke="#2DC89E"
        stroke-width="8" />
    <rect x="16.8511" y="4" width="94.718" height="97.7391" rx="12" fill="#2A9691" stroke="#2DC89E"
        stroke-width="8" />
    <path
        d="M36.2402 50.7966C34.6781 52.3587 34.6781 54.8913 36.2402 56.4534L61.6961 81.9093C63.2582 83.4714 65.7908 83.4714 67.3529 81.9093C68.915 80.3472 68.915 77.8145 67.3529 76.2524L44.7255 53.625L67.3529 30.9976C68.915 29.4355 68.915 26.9028 67.3529 25.3407C65.7908 23.7786 63.2582 23.7786 61.6961 25.3407L36.2402 50.7966ZM89.3701 49.625L39.0687 49.625V57.625L89.3701 57.625V49.625Z"
        fill="white" />
</svg>