<svg width="128" height="128" viewBox="0 0 128 128" fill="none" xmlns="http://www.w3.org/2000/svg">
    <rect x="4" y="4" width="120" height="120" rx="12" fill="#276585" stroke="#2DC89E"
        stroke-width="8" />
    <rect x="16.8511" y="15" width="94.718" height="97.7391" rx="12" fill="#2A9691" stroke="#2DC89E"
        stroke-width="8" />
    <path
        d="M92.1987 67.4534C93.7608 65.8913 93.7608 63.3587 92.1987 61.7966L66.7429 36.3407C65.1808 34.7786 62.6481 34.7786 61.086 36.3407C59.5239 37.9028 59.5239 40.4355 61.086 41.9976L83.7134 64.625L61.086 87.2524C59.5239 88.8145 59.5239 91.3472 61.086 92.9093C62.6481 94.4714 65.1808 94.4714 66.7429 92.9093L92.1987 67.4534ZM39.0688 68.625H89.3703V60.625L39.0688 60.625V68.625Z"
        fill="white" />
    <rect width="128" height="128" rx="16" fill="#276585" fill-opacity="0.47" />
</svg>