<svg width="138" height="138" viewBox="0 0 138 138" fill="none" xmlns="http://www.w3.org/2000/svg">
    <rect x="-4" y="4" width="130" height="130" rx="12" transform="matrix(-1 0 0 1 130 0)"
        fill="#276585" stroke="#2DC89E" stroke-width="8" />
    <rect x="-4" y="4" width="106" height="106" rx="12" transform="matrix(-1 0 0 1 119 0)"
        fill="#2A9691" stroke="#2DC89E" stroke-width="8" />
    <path
        d="M100.733 54.9763C102.295 56.5384 102.295 59.071 100.733 60.6331L75.277 86.089C73.7149 87.6511 71.1822 87.6511 69.6201 86.089C68.058 84.5269 68.058 81.9942 69.6201 80.4321L92.2475 57.8047L69.6201 35.1773C68.058 33.6152 68.058 31.0825 69.6201 29.5204C71.1822 27.9583 73.7149 27.9583 75.277 29.5204L100.733 54.9763ZM42.0781 53.8047H97.9044V61.8047H42.0781V53.8047Z"
        fill="white" />
</svg>