<svg width="348" height="310" viewBox="0 0 348 310" fill="none" xmlns="http://www.w3.org/2000/svg">
<path d="M30.7891 121.748C34.9169 125.958 40.9139 129.994 48.8978 133.734L80.2747 126.558C80.6869 126.464 81.1162 126.475 81.5229 126.591C81.9296 126.707 82.3004 126.924 82.6011 127.222L103.58 147.981L126.897 124.53L108.389 105.709C108.015 105.328 107.771 104.837 107.694 104.309C107.617 103.78 107.71 103.24 107.96 102.767C111.493 96.0849 110.707 89.4899 108.069 83.2515C105.881 78.0774 102.372 73.314 99.1602 69.6099C97.4341 71.7031 95.2172 73.9026 92.6057 75.5034C90.728 76.6539 88.6011 77.5082 86.2737 77.5562C84.3924 77.5956 82.426 77.0347 80.6537 75.8435C79.4034 78.0505 77.5612 79.6903 75.5657 80.7955C72.5982 82.4388 69.3306 83.2948 66.4914 84.3021C66.4896 84.3036 66.4878 84.3052 66.4861 84.3067C64.5525 85.885 62.4335 88.2094 59.983 90.0201C58.7576 90.9255 57.4203 91.7259 55.8478 92.1269C54.8375 92.3844 53.7171 92.4356 52.6045 92.2293L49.0956 100.39C56.4102 96.1328 63.528 95.3381 69.3274 96.0525C73.2528 96.5365 76.5889 97.6563 79.0974 98.7212C81.6059 99.7857 83.5687 100.921 83.7156 100.99L81.5777 105.543C80.5548 105.062 79.3333 104.286 77.1356 103.354C74.9379 102.42 72.0456 101.457 68.714 101.046C62.0499 100.225 53.6806 101.437 44.7781 109.924C44.3588 110.324 43.8143 110.566 43.2368 110.611C42.6593 110.655 42.0843 110.498 41.6089 110.167C41.1335 109.836 40.7871 109.35 40.6282 108.793C40.4693 108.235 40.5076 107.64 40.7368 107.107L48.5391 88.9604C47.1377 85.0737 45.3258 83.1705 43.1499 81.9971C41.1668 80.9277 38.6589 80.4895 35.9391 80.1196C31.299 86.0295 27.4903 92.9135 24.0817 100.314C22.6332 106.86 23.7534 112.602 27.7598 118.174C28.6251 119.378 29.6338 120.57 30.7891 121.748ZM12.2036 89.5908L20.6128 95.8634C23.6863 89.4355 27.1318 83.2958 31.3235 77.7972C27.1519 71.9543 23.9832 70.7898 19.395 68.1083C14.2375 71.0657 10.3048 74.1433 8.81736 77.1702C8.01483 78.8037 7.77239 80.3915 8.22825 82.4044C8.67305 84.3691 9.89216 86.7694 12.2036 89.5908ZM23.693 64.8066C27.5227 66.979 31.3152 69.1502 35.4622 74.9451C38.6901 75.3463 42.2157 75.7783 45.5328 77.5677C48.7446 79.2994 51.5457 82.3853 53.3104 87.2477C53.7491 87.3943 54.1071 87.3783 54.6073 87.251C55.2399 87.0898 56.0726 86.6562 56.9982 85.9723C58.3999 84.9367 59.9941 83.389 61.6839 81.8615C55.6166 71.2272 48.6976 61.4984 40.6296 52.9665C36.8501 52.4558 33.4555 52.7882 30.6829 54.3898C27.8123 56.0488 25.3273 59.1123 23.693 64.8066ZM65.9692 79.1437C68.6674 78.2094 71.231 77.4464 73.1324 76.3932C75.5487 75.055 76.9056 73.6781 77.1915 70.2981C74.9698 60.4138 69.2717 52.2538 62.9819 44.032C58.7203 43.1675 54.7828 42.6402 52.0139 43.382C49.1572 44.1468 47.0854 45.8216 45.7705 51.0984C53.4749 59.5169 60.1335 68.9423 65.9692 79.1437ZM82.2219 70.7566C82.4243 70.859 82.612 70.9884 82.7798 71.1412C84.0224 72.2547 85.0372 72.5496 86.169 72.526C87.3003 72.5027 88.6175 72.0481 89.9817 71.2122C92.3321 69.7716 94.6398 67.2646 96.2367 65.1454C93.2457 56.5447 89.5628 48.4679 83.0775 41.5331C78.458 38.5122 75.8859 38.379 73.6214 39.0672C71.8639 39.6012 70.1118 40.8955 68.0414 42.3551C74.125 50.3879 79.913 58.941 82.2047 69.6208C82.2526 69.8443 82.2699 70.0733 82.256 70.3015C82.247 70.4544 82.2349 70.6056 82.2209 70.7556L82.2219 70.7566Z" fill="#E943E9"/>
<path d="M232.406 57.7402C230.882 59.3343 229.603 61.1411 228.513 63.1178C223.497 72.2119 222.963 85.7586 224.468 98.7619C224.524 99.2441 224.474 99.7327 224.321 100.193C224.168 100.654 223.916 101.076 223.583 101.428L206.024 120.036L203.624 117.765L203.62 117.771L233.373 148L252.818 128.585C253.414 127.989 254.214 127.643 255.055 127.615C255.897 127.588 256.718 127.881 257.352 128.436C257.043 128.166 258.807 128.984 261.213 129.076C263.619 129.167 266.684 128.941 269.618 128.468C271.869 128.106 274.058 127.592 275.818 127.025C275.404 126.592 275.025 126.134 274.684 125.664C273.012 123.35 271.936 120.549 271.326 117.653C270.716 114.757 270.57 111.777 271.174 109.009C271.549 107.282 272.309 105.501 273.569 104.126C271.442 98.1652 269.319 90.1683 273.9 82.0859C274.172 81.6042 274.416 81.3069 274.644 81.0906C274.87 80.8743 275.081 80.7394 275.288 80.5843C275.41 80.4928 275.536 80.4116 275.66 80.3269C269.084 80.5051 263.112 79.1785 257.566 77.1028C261.033 87.8256 258.347 99.1927 255.627 108.106L249.273 106.161C252.631 95.1613 255.28 82.4893 247.701 72.1991C247.256 71.5937 247.028 70.8551 247.056 70.1036C247.084 69.3522 247.366 68.6325 247.855 68.0618C248.344 67.4911 249.012 67.1032 249.749 66.9614C250.487 66.8196 251.251 66.9323 251.916 67.2811C260.142 71.5956 268.364 74.5115 278.281 73.49C281.791 72.4703 284.957 67.7022 282.096 61.6966C274.531 57.3062 269.329 53.7409 260.797 50.8115C246.442 49.0734 237.853 52.0472 232.406 57.7402ZM295.822 4.606C294.677 5.77902 293.491 7.20598 292.301 8.91509L268.054 46.4679C273.33 48.7225 277.515 51.2538 282.062 53.9643C283.39 51.9276 287.947 44.9391 293.282 36.7162C296.368 31.9606 299.476 27.1583 301.853 23.4556C303.042 21.6043 304.049 20.0267 304.775 18.8753C305.138 18.2998 305.431 17.8293 305.635 17.4956C305.786 17.2475 305.932 16.9679 305.93 16.9825C308.069 12.4261 308.725 8.54543 308.496 5.75604C308.266 2.94027 307.233 1.36701 306.114 0.632892C304.996 -0.101225 303.482 -0.349671 301.047 0.729298C299.528 1.40254 297.731 2.65132 295.822 4.606ZM287.776 58.1017C291.027 64.2887 290.119 70.8069 286.833 75.1839C287.627 74.8806 288.431 74.5804 289.238 74.2891C292.559 73.0892 295.869 72.0293 298.589 71.3856C299.258 71.2276 299.884 71.093 300.487 70.9895C314.346 60.3046 329.332 46.3195 337.697 36.4421C339.484 34.3318 340.019 32.5437 339.999 31.2299C339.98 29.9166 339.486 28.94 338.462 28.0975C336.416 26.4111 331.737 25.5628 325.771 29.0108C319.227 32.7927 310.374 39.2613 302.673 45.3775C296.338 50.4102 290.684 55.3204 287.776 58.1017ZM279.496 85.7662C276.7 91.0383 277.814 96.064 279.56 101.064L302.416 93.7166C303.352 93.3456 303.694 92.9052 304.044 91.6937C304.398 90.4695 304.449 88.5451 304.167 86.4726C303.71 83.1171 302.505 79.7577 301.602 77.5987C301.131 77.6716 300.793 77.6974 300.118 77.8573C297.828 78.3989 294.655 79.4013 291.493 80.5443C288.33 81.6868 285.147 82.976 282.757 84.073C281.562 84.6222 280.559 85.1293 279.912 85.5021C279.702 85.6233 279.614 85.6878 279.496 85.7662ZM278.493 108.57C278.403 108.646 278.31 108.752 278.215 108.902C278.022 109.205 277.828 109.68 277.665 110.426C277.34 111.919 277.376 114.142 277.827 116.282C278.278 118.421 279.144 120.489 280.067 121.765C280.989 123.041 281.659 123.31 282.065 123.302C282.15 123.299 283.912 122.964 285.895 122.264C287.877 121.563 290.297 120.558 292.744 119.404C297.426 117.2 302.254 114.294 304.296 112.455C306.138 109.072 306.312 106.9 305.83 105.178C305.428 103.741 304.405 102.327 302.831 100.874L278.744 108.417C278.668 108.447 278.583 108.494 278.493 108.57Z" fill="#377AE3"/>
<path d="M108.038 61.2509C108.059 61.2748 108.081 61.2991 108.101 61.3237C108.109 61.3322 108.116 61.3388 108.123 61.3468C108.091 61.311 108.084 61.3015 108.038 61.2509ZM108.233 61.0125C108.224 61.3041 108.314 61.5153 108.337 61.5786C113.374 67.3584 118.849 69.8074 124.691 75.2881C130.505 80.7434 136.079 89.1045 140.803 105.862L154.055 115.694C154.408 115.956 154.696 116.297 154.895 116.69C155.095 117.083 155.201 117.518 155.205 117.959L155.346 134.009L152.722 138.655L190.386 139.484L187.736 134.866V116.751C187.736 116.332 187.828 115.918 188.005 115.539C188.183 115.16 188.441 114.825 188.762 114.558C193.905 110.28 198.84 108.225 201.293 102.557L220.756 39.131C220.587 35.1848 220.122 32.0334 219.004 30.0783C218.053 28.4129 216.655 27.2662 213.788 26.6147C213.063 28.3405 210.66 34.0561 207.544 41.5371C205.766 45.8049 203.991 50.0853 202.67 53.313C202.01 54.9268 201.462 56.2801 201.089 57.225C200.902 57.6969 200.759 58.0701 200.675 58.2994C200.651 58.3651 200.646 58.3794 200.634 58.4154C200.641 58.4651 200.667 58.5103 200.421 59.0154C200.268 59.3297 197.091 60.4992 197.091 60.4992C197.091 60.4992 195.195 58.7149 195.13 58.453C194.93 57.6498 195.051 57.5106 195.073 57.3516C195.082 57.2883 195.089 57.2715 195.096 57.2288C195.101 57.1877 195.108 57.1359 195.119 57.0274C195.149 56.7459 195.194 56.2915 195.248 55.7045C195.357 54.5303 195.508 52.8171 195.688 50.7488C196.046 46.6116 196.516 41.0462 196.981 35.4517C197.446 29.8572 197.907 24.2327 198.249 19.9728C198.42 17.8431 198.561 16.0538 198.658 14.7844C198.706 14.15 198.744 13.6439 198.768 13.2973C198.778 13.1566 198.784 13.0633 198.789 12.9811C198.603 10.4656 197.867 9.15572 197.099 8.4334C196.319 7.70127 195.349 7.39798 194.118 7.46092C191.696 7.58489 188.865 9.62882 188.237 11.6234L183.082 51.1698C182.991 51.8641 182.649 52.5005 182.12 52.957C181.592 53.4136 180.915 53.6583 180.219 53.6443C179.522 53.6303 178.855 53.3586 178.346 52.8813C177.836 52.4039 177.519 51.7543 177.456 51.0569C177.456 51.0569 176.476 40.1778 175.459 29.1577C174.949 23.647 174.43 18.1006 174.02 13.8669C173.814 11.7496 173.636 9.95962 173.5 8.67406C173.432 8.03207 173.375 7.51342 173.332 7.15668C173.313 6.9935 173.271 6.79552 173.247 6.67725C172.274 3.2282 170.992 1.55523 170.085 0.932846C169.159 0.297179 168.485 0.302554 167.366 0.769342C165.133 1.70102 162.402 5.60325 162.232 8.12852L161.08 52.5176C161.062 53.2166 160.789 53.8843 160.312 54.3936C159.836 54.9028 159.19 55.2178 158.497 55.2786C157.804 55.3394 157.113 55.1417 156.556 54.7232C155.999 54.3047 155.615 53.6946 155.476 53.0094C155.476 53.0094 153.528 43.3593 151.531 33.4322C150.533 28.4686 149.523 23.4361 148.738 19.5044C147.953 15.5721 147.422 12.9106 147.286 12.1199C146.769 9.11871 145.627 7.73669 144.404 7.01468C143.181 6.293 141.611 6.17503 139.945 6.6997C137.03 7.61746 134.342 10.3239 134.262 14.0279C134.251 14.5567 134.293 15.1063 134.395 15.6737C134.398 15.6937 134.402 15.7137 134.405 15.7337L141.848 62.8407C145.113 65.2158 146.848 67.4264 149.075 70.4159C167.028 71.0554 175.982 74.3526 180.711 79.0591C185.566 83.8923 185.248 89.9381 185.714 91.8151L180.223 93.1965C179.268 89.3591 179.887 86.2491 176.728 83.1049C173.569 79.9604 165.834 76.5313 147.538 76.0404C147.111 76.0289 146.692 75.9203 146.313 75.7228C145.933 75.5253 145.603 75.244 145.347 74.9C142.424 70.9706 141.486 69.4567 137.834 66.9706L113.165 55.7352C110.651 56.0717 109.489 57.3206 108.795 58.7839C108.42 59.5745 108.248 60.4287 108.233 61.0125Z" fill="#2DC89E"/>
<path d="M78.623 194H73.2988C73.1764 194 73.1152 193.924 73.1152 193.771L73.207 161.481C73.207 161.359 73.2682 161.297 73.3906 161.297H82.8916C84.5898 161.297 86.1504 161.71 87.5732 162.537C88.9961 163.363 90.1283 164.472 90.9697 165.864C91.8265 167.257 92.2549 168.832 92.2549 170.592C92.2549 171.739 92.0789 172.78 91.7271 173.713C91.3752 174.646 90.9621 175.434 90.4878 176.077C90.0288 176.719 89.6081 177.194 89.2256 177.5C90.9238 179.381 91.7729 181.592 91.7729 184.132L91.8188 193.771C91.8188 193.924 91.7424 194 91.5894 194H86.2651C86.1427 194 86.0815 193.954 86.0815 193.862V184.132C86.0815 183 85.6838 182.021 84.8882 181.194C84.0926 180.368 83.1134 179.955 81.9507 179.955H78.8525L78.8066 193.771C78.8066 193.924 78.7454 194 78.623 194ZM82.8916 166.92H78.8525V174.31H82.8916C83.8555 174.31 84.7122 173.95 85.4619 173.231C86.2269 172.512 86.6094 171.632 86.6094 170.592C86.6094 169.597 86.2422 168.741 85.5078 168.021C84.7734 167.287 83.9014 166.92 82.8916 166.92ZM104.487 194.459C102.819 194.459 101.282 194.031 99.874 193.174C98.4818 192.317 97.3573 191.177 96.5005 189.754C95.659 188.316 95.2383 186.74 95.2383 185.027L95.2842 170.133C95.2842 168.389 95.7049 166.82 96.5464 165.428C97.3726 164.021 98.4894 162.896 99.897 162.055C101.305 161.198 102.834 160.77 104.487 160.77C106.2 160.77 107.738 161.19 109.1 162.032C110.477 162.873 111.578 164.005 112.404 165.428C113.246 166.836 113.667 168.404 113.667 170.133L113.712 185.027C113.712 186.74 113.299 188.309 112.473 189.731C111.632 191.17 110.515 192.317 109.123 193.174C107.73 194.031 106.185 194.459 104.487 194.459ZM104.487 188.791C105.435 188.791 106.262 188.408 106.965 187.643C107.669 186.863 108.021 185.991 108.021 185.027L107.975 170.133C107.975 169.092 107.646 168.213 106.988 167.494C106.33 166.775 105.497 166.415 104.487 166.415C103.523 166.415 102.697 166.767 102.008 167.471C101.32 168.174 100.976 169.062 100.976 170.133V185.027C100.976 186.052 101.32 186.939 102.008 187.689C102.697 188.423 103.523 188.791 104.487 188.791ZM125.921 194.459C124.223 194.459 122.67 194.031 121.263 193.174C119.87 192.317 118.761 191.17 117.935 189.731C117.124 188.278 116.719 186.664 116.719 184.889L116.765 170.225C116.765 168.48 117.162 166.905 117.958 165.497C118.754 164.074 119.847 162.934 121.24 162.078C122.647 161.206 124.208 160.77 125.921 160.77C127.666 160.77 129.218 161.19 130.58 162.032C131.957 162.873 133.051 164.013 133.862 165.451C134.688 166.874 135.101 168.465 135.101 170.225V172.382C135.101 172.504 135.04 172.565 134.917 172.565H129.639C129.517 172.565 129.456 172.504 129.456 172.382V170.225C129.456 169.184 129.119 168.289 128.446 167.54C127.773 166.79 126.931 166.415 125.921 166.415C124.805 166.415 123.948 166.798 123.351 167.562C122.754 168.327 122.456 169.215 122.456 170.225V184.889C122.456 186.037 122.793 186.978 123.466 187.712C124.139 188.431 124.958 188.791 125.921 188.791C126.931 188.791 127.773 188.393 128.446 187.597C129.119 186.786 129.456 185.884 129.456 184.889V182.709C129.456 182.587 129.517 182.525 129.639 182.525H134.963C135.086 182.525 135.147 182.587 135.147 182.709V184.889C135.147 186.649 134.734 188.255 133.908 189.708C133.066 191.147 131.957 192.302 130.58 193.174C129.203 194.031 127.65 194.459 125.921 194.459ZM144.074 194H138.75C138.628 194 138.566 193.924 138.566 193.771L138.658 161.527C138.658 161.374 138.719 161.297 138.842 161.297H144.12C144.243 161.297 144.304 161.374 144.304 161.527V172.657L151.67 161.481C151.793 161.359 151.908 161.297 152.015 161.297H157.408C157.545 161.297 157.576 161.359 157.5 161.481L149.375 174.447L158.486 193.816C158.563 193.939 158.486 194 158.257 194H152.52C152.367 194 152.275 193.939 152.244 193.816L145.887 180.001L144.258 182.571V193.771C144.258 193.924 144.197 194 144.074 194ZM178.314 194H173.036C172.883 194 172.807 193.924 172.807 193.771L172.898 161.481C172.898 161.359 172.96 161.297 173.082 161.297H182.124C185 161.297 187.272 162.177 188.94 163.937C190.623 165.681 191.464 168.06 191.464 171.074C191.464 173.277 191.028 175.197 190.156 176.834C189.269 178.456 188.121 179.71 186.714 180.598C185.306 181.485 183.776 181.929 182.124 181.929H178.544V193.771C178.544 193.924 178.467 194 178.314 194ZM182.124 166.874L178.544 166.92V176.237H182.124C183.118 176.237 183.983 175.763 184.717 174.814C185.452 173.851 185.819 172.604 185.819 171.074C185.819 169.85 185.49 168.848 184.832 168.067C184.174 167.272 183.271 166.874 182.124 166.874ZM192.704 193.771L198.533 161.481C198.563 161.359 198.64 161.297 198.762 161.297H205.578C205.701 161.297 205.777 161.359 205.808 161.481L211.407 193.771C211.423 193.924 211.361 194 211.224 194H206.014C205.861 194 205.777 193.924 205.762 193.771L205.257 190.328H198.854L198.349 193.771C198.334 193.924 198.257 194 198.12 194H192.887C192.765 194 192.704 193.924 192.704 193.771ZM201.906 172.106L199.795 185.302H204.316L202.388 172.106L202.113 170.362L201.906 172.106ZM219.853 194H214.574C214.421 194 214.345 193.924 214.345 193.771L214.437 161.481C214.437 161.359 214.498 161.297 214.62 161.297H223.662C226.538 161.297 228.81 162.177 230.478 163.937C232.161 165.681 233.002 168.06 233.002 171.074C233.002 173.277 232.566 175.197 231.694 176.834C230.807 178.456 229.66 179.71 228.252 180.598C226.844 181.485 225.314 181.929 223.662 181.929H220.082V193.771C220.082 193.924 220.006 194 219.853 194ZM223.662 166.874L220.082 166.92V176.237H223.662C224.657 176.237 225.521 175.763 226.255 174.814C226.99 173.851 227.357 172.604 227.357 171.074C227.357 169.85 227.028 168.848 226.37 168.067C225.712 167.272 224.81 166.874 223.662 166.874ZM251.568 194H236.376C236.254 194 236.192 193.924 236.192 193.771L236.238 161.481C236.238 161.359 236.299 161.297 236.422 161.297H251.522C251.645 161.297 251.706 161.374 251.706 161.527V166.782C251.706 166.905 251.645 166.966 251.522 166.966H241.884V174.31H251.522C251.645 174.31 251.706 174.371 251.706 174.493L251.752 179.817C251.752 179.94 251.691 180.001 251.568 180.001H241.884V188.217H251.568C251.691 188.217 251.752 188.293 251.752 188.446V193.816C251.752 193.939 251.691 194 251.568 194ZM261.437 194H256.112C255.99 194 255.929 193.924 255.929 193.771L256.021 161.481C256.021 161.359 256.082 161.297 256.204 161.297H265.705C267.403 161.297 268.964 161.71 270.387 162.537C271.81 163.363 272.942 164.472 273.783 165.864C274.64 167.257 275.068 168.832 275.068 170.592C275.068 171.739 274.892 172.78 274.541 173.713C274.189 174.646 273.776 175.434 273.301 176.077C272.842 176.719 272.422 177.194 272.039 177.5C273.737 179.381 274.586 181.592 274.586 184.132L274.632 193.771C274.632 193.924 274.556 194 274.403 194H269.079C268.956 194 268.895 193.954 268.895 193.862V184.132C268.895 183 268.497 182.021 267.702 181.194C266.906 180.368 265.927 179.955 264.764 179.955H261.666L261.62 193.771C261.62 193.924 261.559 194 261.437 194ZM265.705 166.92H261.666V174.31H265.705C266.669 174.31 267.526 173.95 268.275 173.231C269.04 172.512 269.423 171.632 269.423 170.592C269.423 169.597 269.056 168.741 268.321 168.021C267.587 167.287 266.715 166.92 265.705 166.92ZM24.2042 295.084C20.2657 295.084 16.6344 294.072 13.3102 292.049C10.0221 290.025 7.38437 287.333 5.39706 283.973C3.44589 280.577 2.47031 276.855 2.47031 272.808V267.713C2.47031 267.316 2.65097 267.117 3.0123 267.117H15.4781C15.7672 267.117 15.9117 267.316 15.9117 267.713V272.808C15.9117 275.229 16.7247 277.325 18.3507 279.095C19.9767 280.83 21.9278 281.697 24.2042 281.697C26.5167 281.697 28.4859 280.812 30.1119 279.041C31.7379 277.234 32.5509 275.157 32.5509 272.808C32.5509 270.098 30.7804 267.731 27.2393 265.708C26.6612 265.347 25.9024 264.913 24.963 264.407C24.0597 263.865 22.9757 263.251 21.711 262.564C20.4464 261.878 19.2179 261.209 18.0255 260.559C16.8331 259.873 15.6768 259.222 14.5567 258.608C10.5099 256.223 7.49277 253.242 5.50546 249.665C3.55429 246.052 2.5787 242.005 2.5787 237.524C2.5787 233.405 3.59042 229.684 5.61386 226.359C7.6373 223.071 10.275 220.47 13.5269 218.555C16.815 216.604 20.3741 215.628 24.2042 215.628C28.1427 215.628 31.756 216.604 35.044 218.555C38.3321 220.542 40.9518 223.18 42.9029 226.468C44.8902 229.756 45.8839 233.441 45.8839 237.524V246.63C45.8839 246.919 45.7393 247.063 45.4503 247.063H32.9845C32.6954 247.063 32.5509 246.919 32.5509 246.63L32.4425 237.524C32.4425 234.923 31.6295 232.809 30.0035 231.183C28.3775 229.557 26.4444 228.744 24.2042 228.744C21.9278 228.744 19.9767 229.611 18.3507 231.346C16.7247 233.08 15.9117 235.14 15.9117 237.524C15.9117 239.945 16.4176 241.969 17.4293 243.595C18.4771 245.221 20.3741 246.774 23.1202 248.256C23.4093 248.4 24.0777 248.762 25.1256 249.34C26.1734 249.918 27.3297 250.568 28.5943 251.291C29.8951 251.978 31.0694 252.61 32.1173 253.188C33.1651 253.73 33.7975 254.055 34.0143 254.164C37.6998 256.223 40.6085 258.752 42.7403 261.751C44.9083 264.75 45.9923 268.436 45.9923 272.808C45.9923 277.036 45.0167 280.83 43.0655 284.19C41.0782 287.55 38.4405 290.206 35.1524 292.157C31.8643 294.108 28.2149 295.084 24.2042 295.084ZM66.6964 294H54.1222C53.8331 294 53.6886 293.819 53.6886 293.458L53.797 217.2C53.797 216.911 53.9776 216.766 54.339 216.766H66.6964C67.0577 216.766 67.2384 216.911 67.2384 217.2L67.13 247.389H83.7691V217.2C83.7691 216.911 83.9137 216.766 84.2027 216.766H96.5602C96.9215 216.766 97.1021 216.911 97.1021 217.2L97.3189 293.458C97.3189 293.819 97.1383 294 96.7769 294H84.3111C83.9498 294 83.7691 293.819 83.7691 293.458V260.83H67.13V293.458C67.13 293.819 66.9854 294 66.6964 294ZM102.63 293.458L116.397 217.2C116.469 216.911 116.65 216.766 116.939 216.766H133.036C133.325 216.766 133.506 216.911 133.578 217.2L146.803 293.458C146.839 293.819 146.694 294 146.369 294H134.066C133.705 294 133.506 293.819 133.47 293.458L132.277 285.328H117.156L115.963 293.458C115.927 293.819 115.747 294 115.421 294H103.064C102.775 294 102.63 293.819 102.63 293.458ZM124.364 242.294L119.378 273.458H130.055L125.503 242.294L124.852 238.175L124.364 242.294ZM218.162 293.458L231.928 217.2C232 216.911 232.181 216.766 232.47 216.766H248.567C248.856 216.766 249.037 216.911 249.109 217.2L262.334 293.458C262.37 293.819 262.225 294 261.9 294H249.597C249.236 294 249.037 293.819 249.001 293.458L247.808 285.328H232.687L231.495 293.458C231.458 293.819 231.278 294 230.953 294H218.595C218.306 294 218.162 293.819 218.162 293.458ZM239.895 242.294L234.909 273.458H245.586L241.034 242.294L240.383 238.175L239.895 242.294ZM282.279 294H269.705C269.416 294 269.271 293.819 269.271 293.458L269.488 217.2C269.488 216.911 269.633 216.766 269.922 216.766H283.472C283.761 216.766 284.014 216.911 284.23 217.2L294.366 231.833L304.447 217.2C304.663 216.911 304.934 216.766 305.26 216.766H318.864C319.189 216.766 319.351 216.911 319.351 217.2L319.568 293.458C319.568 293.819 319.424 294 319.135 294H306.56C306.271 294 306.127 293.819 306.127 293.458L306.018 236.82L294.366 253.73L282.821 236.82L282.713 293.458C282.713 293.819 282.568 294 282.279 294ZM339.351 273.567H331.763C331.438 273.567 331.257 273.386 331.221 273.025L328.891 247.497V217.308C328.891 216.947 329.035 216.766 329.324 216.766H341.79C342.151 216.766 342.332 216.947 342.332 217.308L342.224 247.497L339.893 273.025C339.857 273.386 339.676 273.567 339.351 273.567ZM341.79 294H329.324C329.035 294 328.891 293.819 328.891 293.458V281.372C328.891 281.046 329.035 280.884 329.324 280.884H341.79C342.079 280.884 342.224 281.046 342.224 281.372V293.458C342.224 293.819 342.079 294 341.79 294Z" fill="white"/>
<path d="M161.081 221.337L174.72 207.66H227L183.812 256.348H218.192L159.945 309.959L180.97 270.298H150L193.188 221.337H161.081Z" fill="#FFC700"/>
</svg>
