<svg width="698.24" height="156.8" viewBox="0 0 1091 245" fill="none" xmlns="http://www.w3.org/2000/svg">
<path d="M208.087 198.5C199.003 198.5 190.628 196.167 182.962 191.5C175.378 186.833 169.295 180.625 164.712 172.875C160.212 165.042 157.962 156.458 157.962 147.125V135.375C157.962 134.458 158.378 134 159.212 134H187.962C188.628 134 188.962 134.458 188.962 135.375V147.125C188.962 152.708 190.837 157.542 194.587 161.625C198.337 165.625 202.837 167.625 208.087 167.625C213.42 167.625 217.962 165.583 221.712 161.5C225.462 157.333 227.337 152.542 227.337 147.125C227.337 140.875 223.253 135.417 215.087 130.75C213.753 129.917 212.003 128.917 209.837 127.75C207.753 126.5 205.253 125.083 202.337 123.5C199.42 121.917 196.587 120.375 193.837 118.875C191.087 117.292 188.42 115.792 185.837 114.375C176.503 108.875 169.545 102 164.962 93.75C160.462 85.4167 158.212 76.0833 158.212 65.75C158.212 56.25 160.545 47.6667 165.212 40C169.878 32.4167 175.962 26.4167 183.462 22C191.045 17.5 199.253 15.25 208.087 15.25C217.17 15.25 225.503 17.5 233.087 22C240.67 26.5833 246.712 32.6667 251.212 40.25C255.795 47.8333 258.087 56.3333 258.087 65.75V86.75C258.087 87.4167 257.753 87.75 257.087 87.75H228.337C227.67 87.75 227.337 87.4167 227.337 86.75L227.087 65.75C227.087 59.75 225.212 54.875 221.462 51.125C217.712 47.375 213.253 45.5 208.087 45.5C202.837 45.5 198.337 47.5 194.587 51.5C190.837 55.5 188.962 60.25 188.962 65.75C188.962 71.3333 190.128 76 192.462 79.75C194.878 83.5 199.253 87.0833 205.587 90.5C206.253 90.8333 207.795 91.6667 210.212 93C212.628 94.3333 215.295 95.8333 218.212 97.5C221.212 99.0833 223.92 100.542 226.337 101.875C228.753 103.125 230.212 103.875 230.712 104.125C239.212 108.875 245.92 114.708 250.837 121.625C255.837 128.542 258.337 137.042 258.337 147.125C258.337 156.875 256.087 165.625 251.587 173.375C247.003 181.125 240.92 187.25 233.337 191.75C225.753 196.25 217.337 198.5 208.087 198.5ZM306.087 196H277.087C276.42 196 276.087 195.583 276.087 194.75L276.337 18.875C276.337 18.2083 276.753 17.875 277.587 17.875H306.087C306.92 17.875 307.337 18.2083 307.337 18.875L307.087 88.5H345.462V18.875C345.462 18.2083 345.795 17.875 346.462 17.875H374.962C375.795 17.875 376.212 18.2083 376.212 18.875L376.712 194.75C376.712 195.583 376.295 196 375.462 196H346.712C345.878 196 345.462 195.583 345.462 194.75V119.5H307.087V194.75C307.087 195.583 306.753 196 306.087 196ZM388.962 194.75L420.712 18.875C420.878 18.2083 421.295 17.875 421.962 17.875H459.087C459.753 17.875 460.17 18.2083 460.337 18.875L490.837 194.75C490.92 195.583 490.587 196 489.837 196H461.462C460.628 196 460.17 195.583 460.087 194.75L457.337 176H422.462L419.712 194.75C419.628 195.583 419.212 196 418.462 196H389.962C389.295 196 388.962 195.583 388.962 194.75ZM439.087 76.75L427.587 148.625H452.212L441.712 76.75L440.212 67.25L439.087 76.75ZM655.412 194.75L687.162 18.875C687.328 18.2083 687.745 17.875 688.412 17.875H725.537C726.203 17.875 726.62 18.2083 726.787 18.875L757.287 194.75C757.37 195.583 757.037 196 756.287 196H727.912C727.078 196 726.62 195.583 726.537 194.75L723.787 176H688.912L686.162 194.75C686.078 195.583 685.662 196 684.912 196H656.412C655.745 196 655.412 195.583 655.412 194.75ZM705.537 76.75L694.037 148.625H718.662L708.162 76.75L706.662 67.25L705.537 76.75ZM803.287 196H774.287C773.62 196 773.287 195.583 773.287 194.75L773.787 18.875C773.787 18.2083 774.12 17.875 774.787 17.875H806.037C806.703 17.875 807.287 18.2083 807.787 18.875L831.162 52.625L854.412 18.875C854.912 18.2083 855.537 17.875 856.287 17.875H887.662C888.412 17.875 888.787 18.2083 888.787 18.875L889.287 194.75C889.287 195.583 888.953 196 888.287 196H859.287C858.62 196 858.287 195.583 858.287 194.75L858.037 64.125L831.162 103.125L804.537 64.125L804.287 194.75C804.287 195.583 803.953 196 803.287 196ZM934.912 148.875H917.412C916.662 148.875 916.245 148.458 916.162 147.625L910.787 88.75V19.125C910.787 18.2917 911.12 17.875 911.787 17.875H940.537C941.37 17.875 941.787 18.2917 941.787 19.125L941.537 88.75L936.162 147.625C936.078 148.458 935.662 148.875 934.912 148.875ZM940.537 196H911.787C911.12 196 910.787 195.583 910.787 194.75V166.875C910.787 166.125 911.12 165.75 911.787 165.75H940.537C941.203 165.75 941.537 166.125 941.537 166.875V194.75C941.537 195.583 941.203 196 940.537 196Z" fill="white"/>
<path d="M520.336 32.754L552.749 0H677L574.358 116.604H656.066L517.635 245L567.605 150.013H494L596.642 32.754H520.336Z" fill="#FFC700"/>
</svg>
