<svg width="298" height="298" viewBox="0 0 298 298" fill="none" xmlns="http://www.w3.org/2000/svg">
<path d="M39.1673 14.901L124.237 80.1003L141.557 18.4666L166.008 81.119L233.758 22.5416L197.082 98.4376L255.153 96.4001L217.458 143.771L267.888 176.371L207.779 177.39L260.757 241.061L184.856 205.914L176.706 274.17L139.519 219.158L87.5604 289.96L92.6544 201.33L21.8477 215.592L66.1655 157.524L29.9981 98.4376L80.4288 108.116L39.1673 14.901Z" fill="#FF0000"/>
<path d="M66.3039 49.1693L130.177 98.1229L143.181 51.8465L161.54 98.8878L212.409 54.9061L184.871 111.891L228.473 110.361L200.17 145.929L238.035 170.406L192.903 171.171L232.68 218.977L175.691 192.588L169.572 243.836L141.651 202.532L102.639 255.692L106.464 189.146L53.2998 199.855L86.575 156.255L59.4194 111.891L97.2843 119.158L66.3039 49.1693Z" fill="#FF8000"/>
<path d="M93.637 84.5201L134.654 115.957L143.005 86.2393L154.795 116.448L187.461 88.2041L169.777 124.798L197.777 123.816L179.601 146.656L203.917 162.375L174.935 162.866L200.479 193.565L163.882 176.619L159.952 209.529L142.023 183.005L116.97 217.143L119.426 174.409L85.2861 181.286L106.654 153.287L89.2159 124.798L113.532 129.464L93.637 84.5201Z" fill="#FFFF00"/>
</svg>
