<svg width="128" height="300" viewBox="0 0 128 300" fill="none" xmlns="http://www.w3.org/2000/svg">
<path d="M17.0017 86.4733C16.9435 92.6627 18.4127 100.111 21.5884 108.816L50.4056 126.796C50.7842 127.033 51.0967 127.36 51.3142 127.748C51.5316 128.136 51.647 128.572 51.6496 129.016L51.8305 284L86.776 283.918L86.9954 132.209C86.9999 131.648 87.1842 131.103 87.5214 130.653C87.8587 130.204 88.3314 129.872 88.871 129.707C96.5034 127.374 100.841 121.896 103.528 115.309C105.756 109.845 106.69 103.704 107.055 98.5709C104.202 98.8418 100.902 98.8272 97.7535 98.0752C95.4906 97.5342 93.2624 96.5884 91.4865 94.8954C90.0507 93.5273 88.9995 91.6507 88.564 89.4506C85.9811 90.1594 83.3792 90.0078 81.0619 89.3456C77.6161 88.3608 74.5339 86.5689 71.659 85.2076C71.6565 85.2074 71.654 85.2072 71.6516 85.207C69.0273 84.9419 65.7072 85.0926 62.5229 84.6161C60.9306 84.3776 59.333 83.9782 57.8579 83.1078C56.9103 82.5485 56.0345 81.7544 55.3567 80.7748L46.6386 84.2237C55.2867 86.4977 61.2016 91.1946 65.0037 96.0321C67.577 99.3067 69.2348 102.615 70.3149 105.268C71.3954 107.921 72.0147 110.222 72.0728 110.382L67.0743 112.172C66.6689 111.056 66.3354 109.572 65.3887 107.248C64.4426 104.924 62.9999 102.06 60.8161 99.2812C56.4471 93.7223 49.2848 88.4057 36.291 88.0901C35.6788 88.0755 35.0905 87.8511 34.6256 87.4551C34.1608 87.0591 33.8479 86.5157 33.7399 85.9169C33.6319 85.3181 33.7354 84.7005 34.033 84.1688C34.3306 83.6371 34.804 83.2239 35.373 82.999L54.7586 75.3301C56.6136 71.4056 56.6803 68.6477 55.93 66.1611C55.246 63.8947 53.6983 61.7069 51.9412 59.4124C44.0586 60.3509 36.0699 62.6296 27.9948 65.5886C22.023 69.3697 18.5721 74.462 17.4061 81.5717C17.1543 83.1072 17.0182 84.7419 17.0017 86.4745V86.4733ZM27.1228 48.8105L28.7251 59.7101C35.8235 57.2238 42.9847 55.2275 50.225 54.2612C51.4698 46.8278 49.9705 43.6103 48.5429 38.213C42.4784 36.5766 37.2398 35.939 33.8672 37.0801C32.0473 37.696 30.6802 38.694 29.5177 40.526C28.383 42.3141 27.5018 45.0004 27.1228 48.8105ZM54.2219 38.9556C55.4627 43.4118 56.6765 47.8395 55.4491 55.219C57.5627 57.9141 59.8759 60.8532 61.0195 64.6446C62.1273 68.3148 61.9169 72.6848 59.6049 77.6032C59.8233 78.0378 60.1029 78.2918 60.5719 78.5689C61.1653 78.9191 62.1117 79.2158 63.3143 79.3959C65.1357 79.6687 67.4834 79.7044 69.8875 79.8261C73.2935 67.4297 75.3864 55.0727 75.7265 42.7502C73.2823 39.5641 70.4962 37.2895 67.2272 36.4185C63.8421 35.5173 59.6964 35.9446 54.2219 38.9556ZM75.121 80.9925C77.836 82.3034 80.3224 83.6412 82.5305 84.2721C85.3363 85.0738 87.3791 85.0601 90.1171 82.7647C95.838 73.781 97.6721 63.4947 99.11 52.723C96.5695 48.9164 94.0196 45.6007 91.3956 44.0945C88.6886 42.5402 85.889 42.244 80.9651 45.1825C80.4378 57.1507 78.3768 69.0893 75.121 80.9925ZM93.5355 86.8411C93.6104 87.0674 93.654 87.3028 93.6654 87.5408C93.7628 89.2898 94.3012 90.2623 95.165 91.0855C96.0281 91.9084 97.3524 92.5495 98.9966 92.9425C101.83 93.6193 105.427 93.4733 108.204 93.0871C112.391 84.4844 115.669 75.7565 116 65.7945C114.802 60.1221 112.979 58.1129 110.772 56.9416C109.059 56.0325 106.783 55.6914 104.145 55.2366C102.694 65.715 100.633 76.3597 94.3709 85.9856C94.2398 86.187 94.0817 86.3698 93.9009 86.5287C93.7799 86.6355 93.658 86.7387 93.5355 86.8396V86.8411Z" fill="#FFC700"/>
</svg>
