<svg width="406" height="123" viewBox="0 0 406 123" fill="none" xmlns="http://www.w3.org/2000/svg">
<path d="M33.2625 99.25C28.7208 99.25 24.5333 98.0833 20.7 95.75C16.9083 93.4167 13.8667 90.3125 11.575 86.4375C9.325 82.5208 8.2 78.2292 8.2 73.5625V67.6875C8.2 67.2292 8.40833 67 8.825 67H23.2C23.5333 67 23.7 67.2292 23.7 67.6875V73.5625C23.7 76.3542 24.6375 78.7708 26.5125 80.8125C28.3875 82.8125 30.6375 83.8125 33.2625 83.8125C35.9292 83.8125 38.2 82.7917 40.075 80.75C41.95 78.6667 42.8875 76.2708 42.8875 73.5625C42.8875 70.4375 40.8458 67.7083 36.7625 65.375C36.0958 64.9583 35.2208 64.4583 34.1375 63.875C33.0958 63.25 31.8458 62.5417 30.3875 61.75C28.9292 60.9583 27.5125 60.1875 26.1375 59.4375C24.7625 58.6458 23.4292 57.8958 22.1375 57.1875C17.4708 54.4375 13.9917 51 11.7 46.875C9.45 42.7083 8.325 38.0417 8.325 32.875C8.325 28.125 9.49166 23.8333 11.825 20C14.1583 16.2083 17.2 13.2083 20.95 11C24.7417 8.75 28.8458 7.625 33.2625 7.625C37.8042 7.625 41.9708 8.75 45.7625 11C49.5542 13.2917 52.575 16.3333 54.825 20.125C57.1167 23.9167 58.2625 28.1667 58.2625 32.875V43.375C58.2625 43.7083 58.0958 43.875 57.7625 43.875H43.3875C43.0542 43.875 42.8875 43.7083 42.8875 43.375L42.7625 32.875C42.7625 29.875 41.825 27.4375 39.95 25.5625C38.075 23.6875 35.8458 22.75 33.2625 22.75C30.6375 22.75 28.3875 23.75 26.5125 25.75C24.6375 27.75 23.7 30.125 23.7 32.875C23.7 35.6667 24.2833 38 25.45 39.875C26.6583 41.75 28.8458 43.5417 32.0125 45.25C32.3458 45.4167 33.1167 45.8333 34.325 46.5C35.5333 47.1667 36.8667 47.9167 38.325 48.75C39.825 49.5417 41.1792 50.2708 42.3875 50.9375C43.5958 51.5625 44.325 51.9375 44.575 52.0625C48.825 54.4375 52.1792 57.3542 54.6375 60.8125C57.1375 64.2708 58.3875 68.5208 58.3875 73.5625C58.3875 78.4375 57.2625 82.8125 55.0125 86.6875C52.7208 90.5625 49.6792 93.625 45.8875 95.875C42.0958 98.125 37.8875 99.25 33.2625 99.25ZM82.2625 98H67.7625C67.4292 98 67.2625 97.7917 67.2625 97.375L67.3875 9.4375C67.3875 9.10417 67.5958 8.9375 68.0125 8.9375H82.2625C82.6792 8.9375 82.8875 9.10417 82.8875 9.4375L82.7625 44.25H101.95V9.4375C101.95 9.10417 102.117 8.9375 102.45 8.9375H116.7C117.117 8.9375 117.325 9.10417 117.325 9.4375L117.575 97.375C117.575 97.7917 117.367 98 116.95 98H102.575C102.158 98 101.95 97.7917 101.95 97.375V59.75H82.7625V97.375C82.7625 97.7917 82.5958 98 82.2625 98ZM123.7 97.375L139.575 9.4375C139.658 9.10417 139.867 8.9375 140.2 8.9375H158.762C159.096 8.9375 159.304 9.10417 159.387 9.4375L174.637 97.375C174.679 97.7917 174.512 98 174.137 98H159.95C159.533 98 159.304 97.7917 159.262 97.375L157.887 88H140.45L139.075 97.375C139.033 97.7917 138.825 98 138.45 98H124.2C123.867 98 123.7 97.7917 123.7 97.375ZM148.762 38.375L143.012 74.3125H155.325L150.075 38.375L149.325 33.625L148.762 38.375ZM256.925 97.375L272.8 9.4375C272.883 9.10417 273.092 8.9375 273.425 8.9375H291.987C292.321 8.9375 292.529 9.10417 292.612 9.4375L307.862 97.375C307.904 97.7917 307.737 98 307.362 98H293.175C292.758 98 292.529 97.7917 292.487 97.375L291.112 88H273.675L272.3 97.375C272.258 97.7917 272.05 98 271.675 98H257.425C257.092 98 256.925 97.7917 256.925 97.375ZM281.987 38.375L276.237 74.3125H288.55L283.3 38.375L282.55 33.625L281.987 38.375ZM330.862 98H316.362C316.029 98 315.862 97.7917 315.862 97.375L316.112 9.4375C316.112 9.10417 316.279 8.9375 316.612 8.9375H332.237C332.571 8.9375 332.862 9.10417 333.112 9.4375L344.8 26.3125L356.425 9.4375C356.675 9.10417 356.987 8.9375 357.362 8.9375H373.05C373.425 8.9375 373.612 9.10417 373.612 9.4375L373.862 97.375C373.862 97.7917 373.696 98 373.362 98H358.862C358.529 98 358.362 97.7917 358.362 97.375L358.237 32.0625L344.8 51.5625L331.487 32.0625L331.362 97.375C331.362 97.7917 331.196 98 330.862 98ZM396.675 74.4375H387.925C387.55 74.4375 387.342 74.2292 387.3 73.8125L384.612 44.375V9.5625C384.612 9.14583 384.779 8.9375 385.112 8.9375H399.487C399.904 8.9375 400.112 9.14583 400.112 9.5625L399.987 44.375L397.3 73.8125C397.258 74.2292 397.05 74.4375 396.675 74.4375ZM399.487 98H385.112C384.779 98 384.612 97.7917 384.612 97.375V83.4375C384.612 83.0625 384.779 82.875 385.112 82.875H399.487C399.821 82.875 399.987 83.0625 399.987 83.4375V97.375C399.987 97.7917 399.821 98 399.487 98Z" fill="white"/>
<path d="M189.24 16.4438L205.535 0H268L216.399 58.5401H257.476L187.882 123L213.004 75.3128H176L227.601 16.4438H189.24Z" fill="#FFC700"/>
</svg>
