<svg width="45" height="26" viewBox="0 0 45 26" fill="none" xmlns="http://www.w3.org/2000/svg">
<path d="M22.5 0C14.0933 0 6.46972 4.55937 0.844277 11.965C0.385241 12.5717 0.385241 13.4194 0.844277 14.0261C6.46972 21.4406 14.0933 26 22.5 26C30.9067 26 38.5303 21.4406 44.1557 14.035C44.6148 13.4283 44.6148 12.5806 44.1557 11.9739C38.5303 4.55937 30.9067 0 22.5 0ZM23.103 22.1544C17.5226 22.5024 12.9142 17.943 13.2653 12.4022C13.5533 7.83391 17.2886 4.13109 21.897 3.84557C27.4774 3.4976 32.0858 8.05697 31.7347 13.5978C31.4377 18.1572 27.7024 21.86 23.103 22.1544ZM22.824 17.9252C19.8178 18.1126 17.3336 15.6589 17.5316 12.6788C17.6846 10.2162 19.7008 8.22649 22.185 8.06589C25.1912 7.87852 27.6754 10.3322 27.4774 13.3123C27.3154 15.7838 25.2992 17.7735 22.824 17.9252Z" fill="#1A88AB"/>
</svg>
