<svg width="69" height="84" viewBox="0 0 69 84" fill="none" xmlns="http://www.w3.org/2000/svg">
<path d="M26.5385 0C23.6026 0 21.2308 2.34609 21.2308 5.25C21.2308 8.15391 23.6026 10.5 26.5385 10.5H29.1923V16.1438C12.6555 18.6703 0 32.8125 0 49.875C0 68.7258 15.4421 84 34.5 84C53.5579 84 69 68.7258 69 49.875C69 43.0172 66.9599 36.6352 63.4435 31.3031L67.4409 27.3492C69.5142 25.2984 69.5142 21.968 67.4409 19.9172C65.3676 17.8664 62.0005 17.8664 59.9272 19.9172L56.3445 23.4609C51.6837 19.6875 46.0276 17.0953 39.8077 16.1438V10.5H42.4615C45.3974 10.5 47.7692 8.15391 47.7692 5.25C47.7692 2.34609 45.3974 0 42.4615 0H34.5H26.5385ZM38.4808 31.5V52.5C38.4808 54.682 36.706 56.4375 34.5 56.4375C32.294 56.4375 30.5192 54.682 30.5192 52.5V31.5C30.5192 29.318 32.294 27.5625 34.5 27.5625C36.706 27.5625 38.4808 29.318 38.4808 31.5Z" fill="#FF5959"/>
</svg>
