<svg width="350" height="530" viewBox="0 0 350 530" fill="none" xmlns="http://www.w3.org/2000/svg">
<path d="M349.637 247.923L348.785 240.569H306.213C308.342 225.859 309.619 210.717 310.471 195.142C310.896 186.922 304.51 180 297.273 180H53.3361C45.6732 180 39.7131 186.922 40.1388 195.142C40.5646 210.717 42.2674 225.859 44.396 240.569H1.8241L0.546949 247.923C0.12123 249.654 -4.56168 293.782 23.5358 333.585C41.8417 359.543 70.3649 377.281 107.402 386.366C119.323 398.48 132.52 407.565 146.569 413.189C144.866 430.927 142.737 448.232 140.609 464.24H126.986C105.7 464.24 88.6708 481.545 88.6708 503.177V530H261.513V503.177C261.513 481.545 244.484 464.24 223.198 464.24H210.001C207.446 447.8 205.318 430.927 203.615 413.189C217.664 407.998 230.861 398.912 242.781 386.366C279.819 377.281 308.342 359.543 326.648 333.585C354.745 293.782 349.637 249.654 349.637 247.923ZM35.8816 322.769C18.0014 297.676 15.8728 270.42 15.8728 257.441H46.9503C55.039 298.541 69.5135 334.883 87.8194 362.138C65.682 353.486 48.2275 340.074 35.8816 322.769ZM314.302 322.769C301.956 340.074 284.502 353.486 262.364 362.138C281.096 334.45 295.145 298.541 303.233 257.441H334.311C334.311 270.42 331.757 297.676 314.302 322.769Z" fill="#E9B500"/>
<path d="M109.051 255.874C111.053 257.979 113.961 259.997 117.833 261.867L133.049 258.279C133.249 258.232 133.457 258.238 133.654 258.296C133.851 258.354 134.031 258.462 134.177 258.611L144.351 268.99L155.658 257.265L146.683 247.854C146.501 247.664 146.383 247.419 146.346 247.154C146.308 246.89 146.353 246.62 146.474 246.384C148.188 243.042 147.807 239.745 146.527 236.626C145.467 234.039 143.765 231.657 142.207 229.805C141.37 230.852 140.295 231.951 139.029 232.752C138.118 233.327 137.087 233.754 135.958 233.778C135.046 233.798 134.092 233.517 133.233 232.922C132.626 234.025 131.733 234.845 130.765 235.398C129.326 236.219 127.742 236.647 126.365 237.151C126.364 237.152 126.363 237.153 126.362 237.153C125.425 237.942 124.397 239.105 123.209 240.01C122.614 240.463 121.966 240.863 121.203 241.063C120.713 241.192 120.17 241.218 119.63 241.115L117.929 245.195C121.476 243.066 124.928 242.669 127.74 243.026C129.644 243.268 131.261 243.828 132.478 244.361C133.694 244.893 134.646 245.461 134.718 245.495L133.681 247.772C133.185 247.531 132.592 247.143 131.527 246.677C130.461 246.21 129.058 245.728 127.443 245.523C124.211 245.112 120.152 245.718 115.835 249.962C115.632 250.162 115.368 250.283 115.088 250.305C114.808 250.327 114.529 250.249 114.298 250.084C114.068 249.918 113.9 249.675 113.823 249.396C113.746 249.118 113.764 248.82 113.875 248.554L117.659 239.48C116.979 237.537 116.101 236.585 115.046 235.999C114.084 235.464 112.868 235.245 111.549 235.06C109.299 238.015 107.452 241.457 105.799 245.157C105.096 248.43 105.639 251.301 107.582 254.087C108.002 254.689 108.491 255.285 109.051 255.874ZM100.039 239.795L104.116 242.932C105.607 239.718 107.278 236.648 109.311 233.899C107.288 230.977 105.751 230.395 103.526 229.054C101.025 230.533 99.1177 232.072 98.3964 233.585C98.0072 234.402 97.8896 235.196 98.1107 236.202C98.3264 237.185 98.9176 238.385 100.039 239.795ZM105.61 227.403C107.467 228.49 109.306 229.575 111.317 232.473C112.883 232.673 114.593 232.889 116.201 233.784C117.759 234.65 119.117 236.193 119.973 238.624C120.186 238.697 120.359 238.689 120.602 238.626C120.908 238.545 121.312 238.328 121.761 237.986C122.441 237.468 123.214 236.695 124.033 235.931C121.091 230.614 117.736 225.749 113.823 221.483C111.991 221.228 110.344 221.394 109 222.195C107.608 223.024 106.403 224.556 105.61 227.403ZM126.112 234.572C127.42 234.105 128.663 233.723 129.585 233.197C130.757 232.527 131.415 231.839 131.554 230.149C130.476 225.207 127.713 221.127 124.663 217.016C122.596 216.584 120.687 216.32 119.344 216.691C117.959 217.073 116.954 217.911 116.316 220.549C120.053 224.758 123.282 229.471 126.112 234.572ZM133.993 230.378C134.091 230.43 134.182 230.494 134.264 230.571C134.866 231.127 135.358 231.275 135.907 231.263C136.456 231.251 137.095 231.024 137.756 230.606C138.896 229.886 140.015 228.632 140.79 227.573C139.339 223.272 137.553 219.234 134.408 215.767C132.168 214.256 130.921 214.19 129.822 214.534C128.97 214.801 128.12 215.448 127.116 216.178C130.067 220.194 132.873 224.47 133.985 229.81C134.008 229.922 134.016 230.037 134.01 230.151C134.005 230.227 133.999 230.303 133.993 230.378L133.993 230.378Z" fill="#E943E9"/>
<path d="M206.824 223.87C206.084 224.667 205.464 225.571 204.935 226.559C202.503 231.106 202.244 237.879 202.974 244.381C203.001 244.622 202.977 244.866 202.903 245.097C202.828 245.327 202.706 245.538 202.545 245.714L194.03 255.018L192.866 253.883L192.864 253.885L207.293 269L216.722 259.292C217.011 258.995 217.399 258.821 217.807 258.808C218.215 258.794 218.613 258.941 218.92 259.218C218.771 259.083 219.626 259.492 220.793 259.538C221.96 259.584 223.446 259.471 224.869 259.234C225.961 259.053 227.022 258.796 227.875 258.512C227.675 258.296 227.491 258.067 227.326 257.832C226.515 256.675 225.993 255.275 225.697 253.827C225.401 252.379 225.331 250.889 225.623 249.504C225.806 248.641 226.174 247.751 226.785 247.063C225.753 244.083 224.724 240.084 226.945 236.043C227.078 235.802 227.196 235.653 227.306 235.545C227.416 235.437 227.518 235.37 227.619 235.292C227.678 235.246 227.739 235.206 227.799 235.163C224.61 235.253 221.714 234.589 219.024 233.551C220.706 238.913 219.403 244.596 218.084 249.053L215.003 248.08C216.631 242.581 217.916 236.245 214.241 231.1C214.025 230.797 213.914 230.428 213.928 230.052C213.941 229.676 214.078 229.316 214.315 229.031C214.552 228.746 214.876 228.552 215.234 228.481C215.592 228.41 215.962 228.466 216.285 228.641C220.274 230.798 224.261 232.256 229.07 231.745C230.772 231.235 232.307 228.851 230.92 225.848C227.251 223.653 224.729 221.87 220.591 220.406C213.63 219.537 209.465 221.024 206.824 223.87ZM237.577 197.303C237.021 197.89 236.446 198.603 235.869 199.458L224.111 218.234C226.669 219.361 228.698 220.627 230.903 221.982C231.548 220.964 233.757 217.47 236.345 213.358C237.841 210.98 239.348 208.579 240.501 206.728C241.077 205.802 241.566 205.013 241.918 204.438C242.094 204.15 242.236 203.915 242.335 203.748C242.408 203.624 242.479 203.484 242.478 203.491C243.515 201.213 243.833 199.273 243.722 197.878C243.611 196.47 243.11 195.684 242.567 195.316C242.025 194.949 241.291 194.825 240.11 195.365C239.373 195.701 238.502 196.326 237.577 197.303ZM233.674 224.051C235.251 227.144 234.811 230.403 233.217 232.592C233.602 232.44 233.992 232.29 234.383 232.145C235.994 231.545 237.599 231.015 238.918 230.693C239.242 230.614 239.546 230.546 239.838 230.495C246.559 225.152 253.827 218.16 257.883 213.221C258.75 212.166 259.009 211.272 259 210.615C258.991 209.958 258.751 209.47 258.254 209.049C257.262 208.206 254.993 207.781 252.1 209.505C248.926 211.396 244.633 214.631 240.899 217.689C237.826 220.205 235.085 222.66 233.674 224.051ZM229.659 237.883C228.303 240.519 228.844 243.032 229.69 245.532L240.774 241.858C241.228 241.673 241.394 241.453 241.564 240.847C241.735 240.235 241.76 239.273 241.623 238.236C241.402 236.559 240.817 234.879 240.38 233.799C240.151 233.836 239.987 233.849 239.659 233.929C238.549 234.199 237.011 234.701 235.477 235.272C233.943 235.843 232.399 236.488 231.241 237.037C230.661 237.311 230.175 237.565 229.861 237.751C229.759 237.812 229.716 237.844 229.659 237.883ZM229.173 249.285C229.129 249.323 229.084 249.376 229.038 249.451C228.944 249.602 228.85 249.84 228.771 250.213C228.614 250.959 228.631 252.071 228.85 253.141C229.068 254.211 229.488 255.245 229.936 255.882C230.383 256.521 230.708 256.655 230.905 256.651C230.946 256.65 231.801 256.482 232.762 256.132C233.723 255.781 234.897 255.279 236.084 254.702C238.354 253.6 240.695 252.147 241.686 251.227C242.579 249.536 242.663 248.45 242.43 247.589C242.234 246.87 241.738 246.163 240.975 245.437L229.295 249.209C229.258 249.223 229.216 249.247 229.173 249.285Z" fill="#377AE3"/>
<path d="M146.512 225.625C146.523 225.637 146.533 225.65 146.543 225.662C146.547 225.666 146.55 225.669 146.554 225.673C146.538 225.656 146.535 225.651 146.512 225.625ZM146.607 225.506C146.603 225.652 146.646 225.758 146.658 225.789C149.1 228.679 151.755 229.904 154.588 232.644C157.408 235.372 160.11 239.552 162.402 247.931L168.828 252.847C168.999 252.978 169.139 253.148 169.235 253.345C169.332 253.542 169.384 253.759 169.386 253.979L169.454 262.004L168.181 264.327L186.446 264.742L185.161 262.433V253.375C185.161 253.166 185.206 252.959 185.292 252.769C185.378 252.58 185.503 252.412 185.659 252.279C188.153 250.14 190.546 249.112 191.735 246.279L201.174 214.566C201.092 212.592 200.866 211.017 200.324 210.039C199.863 209.206 199.185 208.633 197.795 208.307C197.443 209.17 196.278 212.028 194.767 215.769C193.905 217.902 193.044 220.043 192.403 221.657C192.083 222.463 191.817 223.14 191.637 223.613C191.546 223.848 191.476 224.035 191.436 224.15C191.424 224.183 191.422 224.19 191.416 224.208C191.419 224.233 191.432 224.255 191.313 224.508C191.238 224.665 189.698 225.25 189.698 225.25C189.698 225.25 188.778 224.357 188.747 224.227C188.65 223.825 188.709 223.755 188.719 223.676C188.724 223.644 188.727 223.636 188.731 223.614C188.733 223.594 188.736 223.568 188.742 223.514C188.756 223.373 188.778 223.146 188.804 222.852C188.857 222.265 188.93 221.409 189.017 220.374C189.191 218.306 189.419 215.523 189.644 212.726C189.87 209.929 190.093 207.116 190.259 204.986C190.342 203.922 190.41 203.027 190.457 202.392C190.481 202.075 190.499 201.822 190.511 201.649C190.516 201.578 190.519 201.532 190.521 201.491C190.431 200.233 190.074 199.578 189.702 199.217C189.323 198.851 188.853 198.699 188.256 198.73C187.081 198.792 185.709 199.814 185.404 200.812L182.904 220.585C182.86 220.932 182.694 221.25 182.438 221.479C182.182 221.707 181.853 221.829 181.516 221.822C181.178 221.815 180.855 221.679 180.607 221.441C180.36 221.202 180.207 220.877 180.176 220.528C180.176 220.528 179.701 215.089 179.207 209.579C178.96 206.824 178.709 204.05 178.51 201.933C178.41 200.875 178.323 199.98 178.258 199.337C178.225 199.016 178.197 198.757 178.176 198.578C178.167 198.497 178.146 198.398 178.135 198.339C177.663 196.614 177.041 195.778 176.601 195.466C176.152 195.149 175.825 195.151 175.283 195.385C174.2 195.851 172.876 197.802 172.793 199.064L172.235 221.259C172.226 221.608 172.093 221.942 171.862 222.197C171.631 222.451 171.318 222.609 170.982 222.639C170.646 222.67 170.311 222.571 170.041 222.362C169.771 222.152 169.584 221.847 169.517 221.505C169.517 221.505 168.572 216.68 167.604 211.716C167.12 209.234 166.63 206.718 166.25 204.752C165.869 202.786 165.611 201.455 165.545 201.06C165.295 199.559 164.741 198.868 164.148 198.507C163.555 198.146 162.793 198.088 161.985 198.35C160.572 198.809 159.268 200.162 159.23 202.014C159.224 202.278 159.245 202.553 159.294 202.837C159.296 202.847 159.297 202.857 159.299 202.867L162.908 226.42C164.492 227.608 165.333 228.713 166.413 230.208C175.119 230.528 179.461 232.176 181.754 234.53C184.109 236.946 183.954 239.969 184.181 240.908L181.518 241.598C181.055 239.68 181.355 238.125 179.823 236.552C178.291 234.98 174.54 233.266 165.668 233.02C165.46 233.014 165.257 232.96 165.073 232.861C164.889 232.763 164.729 232.622 164.605 232.45C163.187 230.485 162.733 229.728 160.962 228.485L148.999 222.868C147.779 223.036 147.216 223.66 146.88 224.392C146.698 224.787 146.614 225.214 146.607 225.506Z" fill="#2DC89E"/>
<path d="M155.635 299.032L166.262 287H207L173.347 329.834H200.137L154.749 377L171.133 342.107H147L180.653 299.032H155.635Z" fill="#FF8616"/>
<path d="M175 37.3264C164.688 37.3264 156.25 28.928 156.25 18.6632C156.25 8.16702 164.688 0 175 0C185.312 0 193.75 8.16702 193.75 18.6632C193.75 28.928 185.312 37.3264 175 37.3264ZM100.232 29.6223C108.438 29.6223 115 36.3858 115 44.5528C115 52.9513 108.438 59.4834 100.232 59.4834C91.795 59.4834 85 52.9513 85 44.5528C85 36.3858 91.795 29.6223 100.232 29.6223ZM250.232 29.6223C258.438 29.6223 265 36.3858 265 44.5528C265 52.9513 258.438 59.4834 250.232 59.4834C241.795 59.4834 235 52.9513 235 44.5528C235 36.3858 241.795 29.6223 250.232 29.6223ZM116.642 132.74L104.222 65.0824C107.972 64.3806 111.49 62.2829 114.302 59.9463C122.035 66.9487 131.882 73.7122 141.257 73.7122C152.507 73.7122 161.65 56.445 167.98 41.9848C170.088 42.6865 172.667 43.3882 175.015 43.3882C177.363 43.3882 179.935 42.6865 182.05 41.9848C188.38 56.4525 197.522 73.7122 208.772 73.7122C218.147 73.7122 227.995 66.9487 235.728 59.9463C238.54 62.2829 242.057 64.3806 245.807 65.0824L233.387 132.74H116.665H116.642ZM114.062 138.571H235.938V150H114.062V138.571Z" fill="#FFC700"/>
</svg>
