<svg width="120" height="100" viewBox="0 0 120 100" fill="none" xmlns="http://www.w3.org/2000/svg">
<path d="M60 24.8843C53.125 24.8843 47.5 19.2853 47.5 12.4421C47.5 5.44468 53.125 0 60 0C66.875 0 72.5 5.44468 72.5 12.4421C72.5 19.2853 66.875 24.8843 60 24.8843ZM10.155 19.7482C15.625 19.7482 20 24.2572 20 29.7019C20 35.3008 15.625 39.6556 10.155 39.6556C4.53 39.6556 0 35.3008 0 29.7019C0 24.2572 4.53 19.7482 10.155 19.7482ZM110.155 19.7482C115.625 19.7482 120 24.2572 120 29.7019C120 35.3008 115.625 39.6556 110.155 39.6556C104.53 39.6556 100 35.3008 100 29.7019C100 24.2572 104.53 19.7482 110.155 19.7482ZM21.095 88.4935L12.815 43.3882C15.315 42.9204 17.66 41.5219 19.535 39.9642C24.69 44.6325 31.255 49.1415 37.505 49.1415C45.005 49.1415 51.1 37.63 55.32 27.9898C56.725 28.4577 58.445 28.9255 60.01 28.9255C61.575 28.9255 63.29 28.4577 64.7 27.9898C68.92 37.635 75.015 49.1415 82.515 49.1415C88.765 49.1415 95.33 44.6325 100.485 39.9642C102.36 41.5219 104.705 42.9204 107.205 43.3882L98.925 88.4935H21.11H21.095ZM19.375 92.3804H100.625V100H19.375V92.3804Z" fill="#FFC700"/>
</svg>
