<svg width="44" height="26" viewBox="0 0 44 26" fill="none" xmlns="http://www.w3.org/2000/svg">
<path d="M22 0C13.5933 0 5.96972 4.55937 0.344277 11.965C-0.114759 12.5717 -0.114759 13.4194 0.344277 14.0261C5.96972 21.4406 13.5933 26 22 26C30.4067 26 38.0303 21.4406 43.6557 14.035C44.1148 13.4283 44.1148 12.5806 43.6557 11.9739C38.0303 4.55937 30.4067 0 22 0ZM22.603 22.1544C17.0226 22.5024 12.4142 17.943 12.7653 12.4022C13.0533 7.83391 16.7886 4.13109 21.397 3.84557C26.9774 3.4976 31.5858 8.05697 31.2347 13.5978C30.9377 18.1572 27.2024 21.86 22.603 22.1544ZM22.324 17.9252C19.3178 18.1126 16.8336 15.6589 17.0316 12.6788C17.1846 10.2162 19.2008 8.22649 21.685 8.06589C24.6912 7.87852 27.1754 10.3322 26.9774 13.3123C26.8154 15.7838 24.7992 17.7735 22.324 17.9252Z" fill="white"/>
</svg>
