<svg width="300" height="704" viewBox="0 0 300 704" fill="none" xmlns="http://www.w3.org/2000/svg">
<path d="M53.9175 238.359C54.0218 243.134 54.8306 247.858 56.1897 252.553C62.4437 274.154 82.4252 295.702 104.705 313.295C105.532 313.947 106.204 314.772 106.677 315.712C107.149 316.651 107.409 317.682 107.439 318.732L108.984 373.831V671.489H193.999L194.075 315.503C194.077 313.679 194.775 311.923 196.026 310.592C197.278 309.26 199.965 309.251 201.562 308.205C203.48 306.908 203.896 306.94 207.735 303.394C211.574 299.848 215.938 294.807 219.721 289.589C222.626 285.587 225.201 281.446 227.034 277.883C225.735 277.854 224.448 277.734 223.202 277.536C217.079 276.558 211.124 273.919 205.74 270.422C200.354 266.925 195.556 262.587 192.232 257.427C190.158 254.208 188.591 250.32 188.416 246.286C175.994 240.422 160.451 231.436 155.082 212.05C154.761 210.895 154.68 210.067 154.697 209.387C154.713 208.709 154.83 208.18 154.91 207.626C154.958 207.298 155.025 206.982 155.086 206.662C145.252 217.009 134.035 224.127 122.322 229.447C144.118 240.544 157.443 262.055 166.947 279.862L154.195 286.618C142.467 264.641 127.08 241.192 99.6299 237.055C98.0155 236.811 96.5318 236.029 95.4208 234.836C94.3098 233.643 93.6372 232.111 93.5128 230.488C93.3883 228.866 93.8193 227.249 94.7355 225.902C95.6516 224.555 96.9988 223.557 98.5572 223.071C117.827 217.072 134.942 208.939 148.618 192.183C152.447 185.247 149.992 173.1 136.373 168.291C118.003 173.162 104.532 175.676 86.9189 184.263C62.1837 203.595 53.5485 221.303 53.9175 238.359ZM69.8089 59.8978C69.849 63.448 70.2181 67.4476 71.0123 71.8869L91.4046 166.499C102.976 161.867 113.296 159.33 124.447 156.512C123.361 151.36 119.635 133.685 115.21 112.928C112.651 100.923 110.054 88.8135 108.023 79.5046C107.007 74.851 107.293 76.7024 106.641 73.8287C106.314 72.3926 104.496 66.4483 104.297 65.6255C103.125 62.1098 103.072 62.0379 101.953 58.5942C98.244 48.345 95.6906 46.1609 91.0556 42.2429C86.3782 38.2865 82.3747 37.4613 79.5281 38.0514C76.6815 38.6415 73.9737 40.5797 71.8877 45.961C70.5855 49.3193 69.7415 53.9825 69.8089 59.8978ZM139.583 154.09C154.081 158.577 162.694 169.943 164.363 181.676C165.119 179.994 165.894 178.303 166.686 176.622C169.949 169.698 173.41 163.005 176.603 157.853C177.387 156.587 178.143 155.422 178.911 154.34C183.808 116.757 185.37 72.3979 183.06 44.4681C182.566 38.5016 180.644 34.945 178.596 32.9644C176.551 30.9838 174.29 30.2474 171.424 30.5256C165.689 31.0798 157.194 36.9496 153.318 51.3654C149.066 67.1781 145.39 90.6398 142.944 111.796C140.934 129.203 139.782 145.379 139.583 154.09ZM169.335 209.11C173.133 221.46 182.562 227.444 192.922 232.421L216.775 186.163C217.643 184.162 217.492 182.965 216.171 180.574C214.834 178.159 211.959 175.135 208.343 172.396C202.488 167.96 195.477 164.666 190.775 162.745C190.163 163.578 189.682 164.136 188.889 165.415C186.202 169.751 182.864 176.146 179.757 182.74C176.65 189.333 173.737 196.183 171.748 201.522C170.755 204.193 169.991 206.506 169.57 208.067C169.433 208.574 169.396 208.809 169.335 209.11ZM202.809 245.542C202.788 245.797 202.807 246.102 202.89 246.476C203.059 247.236 203.49 248.259 204.387 249.651C206.179 252.433 209.648 255.78 213.627 258.364C217.605 260.948 222.111 262.786 225.489 263.324C228.867 263.863 230.309 263.249 230.921 262.614C231.047 262.481 233.241 259.267 235.213 255.159C237.184 251.051 239.361 245.804 241.351 240.291C245.163 229.745 248.122 217.903 248.438 211.959C246.074 203.961 243.006 200.371 239.622 198.474C236.796 196.89 233.052 196.293 228.402 196.481L202.961 244.923C202.889 245.085 202.83 245.288 202.809 245.542Z" fill="#377AE3"/>
</svg>
