<svg width="128" height="300" viewBox="0 0 128 300" fill="none" xmlns="http://www.w3.org/2000/svg">
<path d="M5 77.8559C5.0229 77.881 5.04538 77.9064 5.06741 77.9323C5.07505 77.9412 5.08269 77.9482 5.09066 77.9565C5.05645 77.919 5.04881 77.909 5 77.8559ZM5.20588 77.6055C5.19725 77.9117 5.29222 78.1335 5.31646 78.1999C10.6342 84.2687 16.4141 86.8402 22.5816 92.5949C28.7198 98.3229 34.6037 107.102 39.5917 124.698L53.5817 135.021C53.9547 135.296 54.2586 135.654 54.4693 136.067C54.6801 136.479 54.7919 136.936 54.796 137.399L54.9454 154.251L52.5 288.5H91.9377L89.1397 155.151V136.13C89.1397 135.69 89.2369 135.256 89.4243 134.858C89.6116 134.46 89.8845 134.108 90.2235 133.828C95.6528 129.336 100.863 127.178 103.452 121.227L124 54.6301C123.821 50.4866 123.331 47.1776 122.151 45.1248C121.147 43.3761 119.671 42.1721 116.644 41.488C115.879 43.3001 113.342 49.3015 110.052 57.1564C108.175 61.6376 106.301 66.1321 104.907 69.5211C104.209 71.2156 103.631 72.6365 103.237 73.6287C103.04 74.1242 102.889 74.516 102.8 74.7568C102.774 74.8258 102.77 74.8408 102.757 74.8786C102.764 74.9308 102.792 74.9782 102.532 75.5085C102.371 75.8386 99.016 77.0666 99.016 77.0666C99.016 77.0666 97.0146 75.1931 96.9459 74.9181C96.735 74.0747 96.8629 73.9286 96.8861 73.7616C96.8954 73.6952 96.9027 73.6776 96.9107 73.6327C96.916 73.5896 96.9227 73.5351 96.9349 73.4212C96.9665 73.1257 97.0133 72.6485 97.0711 72.0322C97.1856 70.7992 97.3457 69.0004 97.535 66.8287C97.9135 62.4847 98.4093 56.641 98.9004 50.7669C99.3909 44.8927 99.8774 38.9869 100.239 34.514C100.419 32.2779 100.568 30.3991 100.67 29.0662C100.722 28.4001 100.762 27.8688 100.787 27.5048C100.797 27.3571 100.804 27.2591 100.809 27.1728C100.613 24.5315 99.8359 23.1561 99.0246 22.3977C98.2011 21.629 97.1773 21.3105 95.8776 21.3766C93.3207 21.5068 90.3321 23.6529 89.669 25.7472L84.2264 67.2707C84.1305 67.9998 83.7691 68.668 83.2115 69.1473C82.6538 69.6267 81.9389 69.8836 81.2037 69.8689C80.4685 69.8543 79.7644 69.569 79.2263 69.0678C78.6882 68.5666 78.3538 67.8845 78.2871 67.1522C78.2871 67.1522 77.253 55.7292 76.1785 44.1581C75.6405 38.3719 75.0926 32.5482 74.6593 28.1029C74.4421 25.8797 74.2541 24.0002 74.1107 22.6504C74.0393 21.9763 73.9788 21.4317 73.9337 21.0572C73.9131 20.8858 73.8689 20.678 73.844 20.5538C72.8163 16.9323 71.4631 15.1757 70.5054 14.5222C69.5278 13.8547 68.8159 13.8604 67.635 14.3505C65.2774 15.3287 62.394 19.4261 62.2151 22.0776L60.999 68.686C60.9798 69.4199 60.6911 70.121 60.1881 70.6557C59.685 71.1904 59.0027 71.5212 58.2713 71.585C57.5399 71.6488 56.8106 71.4412 56.2225 71.0018C55.6344 70.5623 55.2287 69.9218 55.0826 69.2023C55.0826 69.2023 53.0254 59.0698 50.9178 48.6463C49.8638 43.4346 48.7972 38.1505 47.9691 34.0222C47.1402 29.8934 46.5797 27.0987 46.4359 26.2686C45.8903 23.1173 44.6843 21.6662 43.3929 20.9081C42.1018 20.1503 40.4441 20.0264 38.6858 20.5773C35.6086 21.541 32.7704 24.3828 32.6864 28.2719C32.6744 28.8271 32.7189 29.4042 32.8265 30C32.8301 30.021 32.8334 30.042 32.8365 30.0631L40.6948 79.5252C44.1417 82.019 45.9737 84.3401 48.3247 87.4791C67.2784 88.1505 76.7307 91.6126 81.7233 96.5544C86.8491 101.629 86.513 107.977 87.0058 109.948L81.2079 111.399C80.2001 107.369 80.854 104.104 77.5187 100.802C74.1834 97.5007 66.0172 93.9002 46.7019 93.3848C46.251 93.3727 45.8087 93.2587 45.4082 93.0513C45.0076 92.8439 44.6592 92.5486 44.3891 92.1874C41.3025 88.0615 40.3123 86.4719 36.4573 83.8616L10.4133 72.0644C7.75881 72.4177 6.53249 73.729 5.79995 75.2655C5.40413 76.0956 5.22215 76.9912 5.20555 77.6042L5.20588 77.6055Z" fill="#2DC89E"/>
</svg>
