<svg width="523" height="425" viewBox="0 0 523 425" fill="none" xmlns="http://www.w3.org/2000/svg">
<path d="M35.8997 191.671C42.4022 198.299 51.8493 204.653 64.4263 210.541L113.854 199.244C114.504 199.095 115.18 199.113 115.821 199.296C116.461 199.478 117.046 199.82 117.519 200.288L150.568 232.969L187.298 196.05L158.143 166.42C157.553 165.82 157.17 165.048 157.048 164.215C156.926 163.383 157.073 162.533 157.467 161.789C163.033 151.269 161.794 140.886 157.639 131.065C154.193 122.919 148.664 115.42 143.605 109.589C140.886 112.884 137.393 116.347 133.279 118.867C130.321 120.678 126.971 122.023 123.305 122.099C120.341 122.161 117.243 121.278 114.451 119.402C112.482 122.877 109.58 125.458 106.436 127.198C101.762 129.785 96.6141 131.133 92.1415 132.719C92.1387 132.721 92.136 132.724 92.1331 132.726C89.0872 135.211 85.7491 138.87 81.8889 141.721C79.9585 143.146 77.8518 144.406 75.3746 145.038C73.7832 145.443 72.0183 145.524 70.2654 145.199L64.738 158.047C76.2607 151.344 87.4734 150.093 96.6091 151.218C102.793 151.98 108.048 153.743 112 155.419C115.951 157.095 119.043 158.883 119.275 158.992L115.907 166.159C114.296 165.402 112.371 164.18 108.909 162.712C105.447 161.243 100.891 159.726 95.6428 159.079C85.1449 157.786 71.9607 159.695 57.9366 173.055C57.2761 173.685 56.4184 174.067 55.5086 174.137C54.5989 174.207 53.693 173.96 52.9441 173.439C52.1953 172.917 51.6495 172.153 51.3992 171.275C51.1489 170.397 51.2093 169.46 51.5703 168.622L63.8612 140.053C61.6537 133.934 58.7993 130.937 55.3717 129.09C52.2477 127.406 48.297 126.717 44.0126 126.134C36.703 135.438 30.7031 146.276 25.3336 157.927C23.0518 168.233 24.8164 177.273 31.1276 186.045C32.4908 187.939 34.0797 189.816 35.8997 191.671ZM6.62197 141.045L19.8689 150.92C24.7106 140.8 30.1383 131.135 36.7416 122.478C30.17 113.279 25.1784 111.446 17.9506 107.225C9.82594 111.88 3.63071 116.726 1.28759 121.491C0.023359 124.063 -0.358553 126.562 0.359558 129.731C1.06025 132.824 2.98072 136.603 6.62197 141.045ZM24.7212 102.027C30.7541 105.447 36.7285 108.865 43.2612 117.988C48.3461 118.62 53.9 119.3 59.1255 122.117C64.185 124.843 68.5975 129.701 71.3776 137.356C72.0686 137.587 72.6325 137.562 73.4206 137.361C74.417 137.108 75.7289 136.425 77.1869 135.348C79.395 133.718 81.9064 131.281 84.5682 128.877C75.0104 112.135 64.111 96.8184 51.4014 83.3864C45.4475 82.5824 40.1001 83.1058 35.7324 85.6273C31.2103 88.239 27.2957 93.062 24.7212 102.027ZM91.3189 124.598C95.5694 123.127 99.6078 121.926 102.603 120.268C106.41 118.161 108.547 115.993 108.997 110.672C105.498 95.1109 96.5214 82.2644 86.6131 69.3206C79.8997 67.9597 73.6971 67.1296 69.3352 68.2973C64.835 69.5014 61.5713 72.138 59.5 80.4455C71.6367 93.6989 82.1259 108.538 91.3189 124.598ZM116.922 111.394C117.241 111.555 117.536 111.759 117.801 111.999C119.758 113.752 121.357 114.217 123.14 114.179C124.922 114.143 126.997 113.427 129.146 112.111C132.848 109.843 136.484 105.896 138.999 102.56C134.288 89.0196 128.486 76.3042 118.27 65.3866C110.992 60.6307 106.941 60.421 103.373 61.5044C100.605 62.3451 97.8447 64.3828 94.5832 66.6806C104.167 79.327 113.285 92.7922 116.895 109.606C116.97 109.958 116.997 110.318 116.976 110.677C116.961 110.918 116.942 111.156 116.92 111.392L116.922 111.394Z" fill="#E943E9"/>
<path d="M353.507 90.9017C351.106 93.4115 349.091 96.256 347.374 99.3678C339.472 113.685 338.632 135.012 341.003 155.483C341.091 156.242 341.012 157.012 340.771 157.737C340.53 158.462 340.133 159.126 339.608 159.681L311.947 188.975L308.166 185.401L308.16 185.409L355.031 233L385.662 202.434C386.601 201.496 387.861 200.951 389.187 200.907C390.513 200.864 391.806 201.326 392.804 202.2C392.317 201.775 395.097 203.063 398.887 203.207C402.678 203.351 407.506 202.995 412.127 202.251C415.673 201.681 419.122 200.871 421.893 199.978C421.242 199.297 420.644 198.576 420.108 197.836C417.474 194.194 415.779 189.784 414.818 185.224C413.856 180.665 413.628 175.974 414.578 171.615C415.17 168.896 416.366 166.093 418.35 163.928C415 154.544 411.656 141.954 418.873 129.23C419.302 128.471 419.686 128.003 420.044 127.663C420.401 127.322 420.733 127.11 421.059 126.866C421.252 126.722 421.449 126.594 421.645 126.461C411.285 126.741 401.878 124.653 393.141 121.385C398.604 138.266 394.372 156.162 390.086 170.193L380.078 167.132C385.368 149.815 389.54 129.865 377.602 113.665C376.9 112.712 376.542 111.549 376.586 110.366C376.629 109.183 377.073 108.05 377.843 107.151C378.614 106.253 379.666 105.642 380.828 105.419C381.99 105.196 383.193 105.373 384.242 105.922C397.2 112.715 410.152 117.305 425.775 115.697C431.303 114.092 436.29 106.585 431.784 97.1304C419.867 90.2186 411.672 84.6056 398.231 79.9938C375.617 77.2574 362.088 81.9392 353.507 90.9017ZM453.407 7.25134C451.602 9.09806 449.735 11.3446 447.859 14.0352L409.664 73.1556C417.974 76.7051 424.567 80.6901 431.73 84.9573C433.822 81.7508 441 70.7487 449.406 57.8032C454.266 50.3164 459.162 42.756 462.907 36.9267C464.78 34.0122 466.367 31.5285 467.51 29.7159C468.081 28.8098 468.543 28.0691 468.864 27.5438C469.103 27.1531 469.333 26.713 469.329 26.736C472.698 19.5626 473.732 13.4533 473.372 9.06188C473.009 4.62894 471.382 2.15212 469.62 0.996378C467.858 -0.159361 465.474 -0.550496 461.638 1.14815C459.244 2.20806 456.414 4.17403 453.407 7.25134ZM440.731 91.471C445.853 101.211 444.422 111.473 439.245 118.364C440.497 117.886 441.764 117.414 443.034 116.955C448.266 115.066 453.48 113.398 457.766 112.384C458.819 112.135 459.805 111.923 460.754 111.761C482.587 94.939 506.195 72.922 519.372 57.3718C522.186 54.0493 523.03 51.2344 522.999 49.166C522.969 47.0984 522.19 45.561 520.578 44.2346C517.354 41.5797 509.983 40.2442 500.585 45.6725C490.276 51.6264 476.329 61.81 464.199 71.4389C454.219 79.3621 445.312 87.0923 440.731 91.471ZM427.687 135.024C423.283 143.324 425.038 151.236 427.788 159.107L463.795 147.54C465.268 146.956 465.807 146.263 466.359 144.356C466.915 142.428 466.997 139.399 466.552 136.136C465.833 130.853 463.934 125.564 462.512 122.166C461.77 122.28 461.237 122.321 460.173 122.573C456.566 123.425 451.568 125.003 446.586 126.803C441.604 128.601 436.59 130.631 432.825 132.358C430.943 133.223 429.362 134.021 428.344 134.608C428.013 134.799 427.873 134.9 427.687 135.024ZM426.108 170.924C425.967 171.045 425.819 171.211 425.67 171.446C425.365 171.924 425.06 172.671 424.804 173.846C424.292 176.196 424.349 179.697 425.059 183.065C425.769 186.434 427.133 189.689 428.587 191.697C430.04 193.707 431.095 194.13 431.736 194.117C431.869 194.113 434.645 193.585 437.768 192.483C440.89 191.379 444.703 189.797 448.557 187.981C455.933 184.511 463.538 179.936 466.756 177.04C469.657 171.715 469.93 168.296 469.172 165.585C468.538 163.322 466.927 161.095 464.447 158.808L426.504 170.684C426.384 170.73 426.25 170.804 426.108 170.924Z" fill="#377AE3"/>
<path d="M157.589 96.4288C157.623 96.4664 157.657 96.5046 157.69 96.5433C157.701 96.5568 157.713 96.5672 157.725 96.5797C157.673 96.5234 157.662 96.5085 157.589 96.4288ZM157.896 96.0534C157.884 96.5125 158.025 96.8451 158.061 96.9446C165.996 106.044 174.621 109.9 183.824 118.528C192.983 127.116 201.762 140.279 209.205 166.662L230.08 182.139C230.637 182.552 231.09 183.089 231.405 183.708C231.719 184.327 231.886 185.011 231.892 185.706L232.115 210.973L227.981 218.287L287.313 219.593L283.138 212.322V183.803C283.138 183.144 283.283 182.492 283.562 181.896C283.842 181.299 284.249 180.771 284.755 180.351C292.856 173.617 300.631 170.381 304.494 161.458L335.154 61.6049C334.888 55.3923 334.156 50.4309 332.396 47.353C330.897 44.7312 328.695 42.9258 324.178 41.9002C323.036 44.6171 319.251 53.6154 314.341 65.3928C311.541 72.1117 308.745 78.8506 306.664 83.932C305.624 86.4727 304.761 88.6031 304.173 90.0908C303.88 90.8336 303.653 91.4211 303.521 91.7821C303.483 91.8856 303.476 91.9081 303.456 91.9648C303.468 92.043 303.508 92.1142 303.121 92.9093C302.88 93.4042 297.875 95.2453 297.875 95.2453C297.875 95.2453 294.888 92.4363 294.786 92.0241C294.471 90.7594 294.662 90.5404 294.697 90.2899C294.71 90.1904 294.721 90.164 294.733 90.0968C294.741 90.032 294.751 89.9504 294.769 89.7796C294.817 89.3365 294.886 88.621 294.973 87.697C295.144 85.8483 295.382 83.1513 295.665 79.8951C296.23 73.3818 296.969 64.6201 297.702 55.8125C298.434 47.005 299.16 38.1501 299.699 31.4436C299.969 28.0909 300.191 25.2739 300.343 23.2754C300.42 22.2766 300.479 21.48 300.518 20.9343C300.532 20.7128 300.542 20.5659 300.55 20.4364C300.257 16.4763 299.098 14.4141 297.888 13.2769C296.659 12.1243 295.131 11.6468 293.192 11.7459C289.376 11.9411 284.917 15.1589 283.928 18.299L275.806 80.5578C275.663 81.651 275.124 82.6528 274.292 83.3715C273.46 84.0903 272.393 84.4755 271.296 84.4535C270.199 84.4315 269.149 84.0038 268.346 83.2523C267.543 82.5007 267.044 81.4781 266.944 80.3801C266.944 80.3801 265.401 63.2529 263.798 45.9037C262.995 37.2281 262.178 28.4962 261.531 21.831C261.207 18.4977 260.926 15.6797 260.712 13.6558C260.606 12.6451 260.516 11.8286 260.448 11.2669C260.418 11.01 260.352 10.6984 260.314 10.5122C258.781 5.08224 256.762 2.44844 255.333 1.4686C253.874 0.467857 252.812 0.476318 251.05 1.21119C247.532 2.67796 243.229 8.82134 242.962 12.7969L241.148 82.6798C241.119 83.7802 240.688 84.8314 239.938 85.6331C239.187 86.4348 238.169 86.9308 237.078 87.0265C235.986 87.1222 234.898 86.8109 234.021 86.152C233.143 85.4932 232.538 84.5327 232.32 83.454C232.32 83.454 229.25 68.2616 226.105 52.6331C224.533 44.8188 222.941 36.896 221.705 30.7063C220.469 24.5156 219.632 20.3254 219.418 19.0807C218.604 14.3558 216.804 12.1801 214.877 11.0434C212.95 9.90722 210.477 9.72151 207.853 10.5475C203.262 11.9924 199.027 16.2532 198.901 22.0844C198.883 22.9169 198.95 23.7822 199.11 24.6754C199.116 24.7069 199.121 24.7384 199.125 24.77L210.851 98.9317C215.994 102.671 218.728 106.151 222.236 110.857C250.518 111.864 264.622 117.055 272.071 124.465C279.72 132.074 279.218 141.592 279.954 144.547L271.302 146.721C269.799 140.68 270.774 135.784 265.798 130.834C260.821 125.884 248.636 120.485 219.814 119.712C219.142 119.694 218.482 119.523 217.884 119.212C217.286 118.901 216.767 118.458 216.363 117.917C211.758 111.731 210.28 109.347 204.528 105.434L165.667 87.7453C161.706 88.275 159.876 90.2411 158.783 92.5449C158.192 93.7896 157.921 95.1343 157.896 96.0534Z" fill="#2DC89E"/>
<path d="M166.623 308H161.299C161.176 308 161.115 307.924 161.115 307.771L161.207 275.481C161.207 275.359 161.268 275.297 161.391 275.297H170.892C172.59 275.297 174.15 275.71 175.573 276.537C176.996 277.363 178.128 278.472 178.97 279.864C179.826 281.257 180.255 282.832 180.255 284.592C180.255 285.739 180.079 286.78 179.727 287.713C179.375 288.646 178.962 289.434 178.488 290.077C178.029 290.719 177.608 291.194 177.226 291.5C178.924 293.381 179.773 295.592 179.773 298.132L179.819 307.771C179.819 307.924 179.742 308 179.589 308H174.265C174.143 308 174.082 307.954 174.082 307.862V298.132C174.082 297 173.684 296.021 172.888 295.194C172.093 294.368 171.113 293.955 169.951 293.955H166.853L166.807 307.771C166.807 307.924 166.745 308 166.623 308ZM170.892 280.92H166.853V288.31H170.892C171.855 288.31 172.712 287.95 173.462 287.231C174.227 286.512 174.609 285.632 174.609 284.592C174.609 283.597 174.242 282.741 173.508 282.021C172.773 281.287 171.901 280.92 170.892 280.92ZM192.487 308.459C190.819 308.459 189.282 308.031 187.874 307.174C186.482 306.317 185.357 305.177 184.5 303.754C183.659 302.316 183.238 300.74 183.238 299.027L183.284 284.133C183.284 282.389 183.705 280.82 184.546 279.428C185.373 278.021 186.489 276.896 187.897 276.055C189.305 275.198 190.834 274.77 192.487 274.77C194.2 274.77 195.738 275.19 197.1 276.032C198.477 276.873 199.578 278.005 200.404 279.428C201.246 280.836 201.667 282.404 201.667 284.133L201.712 299.027C201.712 300.74 201.299 302.309 200.473 303.731C199.632 305.17 198.515 306.317 197.123 307.174C195.73 308.031 194.185 308.459 192.487 308.459ZM192.487 302.791C193.435 302.791 194.262 302.408 194.965 301.643C195.669 300.863 196.021 299.991 196.021 299.027L195.975 284.133C195.975 283.092 195.646 282.213 194.988 281.494C194.33 280.775 193.497 280.415 192.487 280.415C191.523 280.415 190.697 280.767 190.008 281.471C189.32 282.174 188.976 283.062 188.976 284.133V299.027C188.976 300.052 189.32 300.939 190.008 301.689C190.697 302.423 191.523 302.791 192.487 302.791ZM213.921 308.459C212.223 308.459 210.67 308.031 209.263 307.174C207.87 306.317 206.761 305.17 205.935 303.731C205.124 302.278 204.719 300.664 204.719 298.889L204.765 284.225C204.765 282.48 205.162 280.905 205.958 279.497C206.754 278.074 207.847 276.934 209.24 276.078C210.647 275.206 212.208 274.77 213.921 274.77C215.666 274.77 217.218 275.19 218.58 276.032C219.957 276.873 221.051 278.013 221.862 279.451C222.688 280.874 223.101 282.465 223.101 284.225V286.382C223.101 286.504 223.04 286.565 222.917 286.565H217.639C217.517 286.565 217.456 286.504 217.456 286.382V284.225C217.456 283.184 217.119 282.289 216.446 281.54C215.773 280.79 214.931 280.415 213.921 280.415C212.805 280.415 211.948 280.798 211.351 281.562C210.754 282.327 210.456 283.215 210.456 284.225V298.889C210.456 300.037 210.793 300.978 211.466 301.712C212.139 302.431 212.958 302.791 213.921 302.791C214.931 302.791 215.773 302.393 216.446 301.597C217.119 300.786 217.456 299.884 217.456 298.889V296.709C217.456 296.587 217.517 296.525 217.639 296.525H222.963C223.086 296.525 223.147 296.587 223.147 296.709V298.889C223.147 300.649 222.734 302.255 221.908 303.708C221.066 305.147 219.957 306.302 218.58 307.174C217.203 308.031 215.65 308.459 213.921 308.459ZM232.074 308H226.75C226.628 308 226.566 307.924 226.566 307.771L226.658 275.527C226.658 275.374 226.719 275.297 226.842 275.297H232.12C232.243 275.297 232.304 275.374 232.304 275.527V286.657L239.67 275.481C239.793 275.359 239.908 275.297 240.015 275.297H245.408C245.545 275.297 245.576 275.359 245.5 275.481L237.375 288.447L246.486 307.816C246.563 307.939 246.486 308 246.257 308H240.52C240.367 308 240.275 307.939 240.244 307.816L233.887 294.001L232.258 296.571V307.771C232.258 307.924 232.197 308 232.074 308ZM266.314 308H261.036C260.883 308 260.807 307.924 260.807 307.771L260.898 275.481C260.898 275.359 260.96 275.297 261.082 275.297H270.124C273 275.297 275.272 276.177 276.94 277.937C278.623 279.681 279.464 282.06 279.464 285.074C279.464 287.277 279.028 289.197 278.156 290.834C277.269 292.456 276.121 293.71 274.714 294.598C273.306 295.485 271.776 295.929 270.124 295.929H266.544V307.771C266.544 307.924 266.467 308 266.314 308ZM270.124 280.874L266.544 280.92V290.237H270.124C271.118 290.237 271.983 289.763 272.717 288.814C273.452 287.851 273.819 286.604 273.819 285.074C273.819 283.85 273.49 282.848 272.832 282.067C272.174 281.272 271.271 280.874 270.124 280.874ZM280.704 307.771L286.533 275.481C286.563 275.359 286.64 275.297 286.762 275.297H293.578C293.701 275.297 293.777 275.359 293.808 275.481L299.407 307.771C299.423 307.924 299.361 308 299.224 308H294.014C293.861 308 293.777 307.924 293.762 307.771L293.257 304.328H286.854L286.349 307.771C286.334 307.924 286.257 308 286.12 308H280.887C280.765 308 280.704 307.924 280.704 307.771ZM289.906 286.106L287.795 299.302H292.316L290.388 286.106L290.113 284.362L289.906 286.106ZM307.853 308H302.574C302.421 308 302.345 307.924 302.345 307.771L302.437 275.481C302.437 275.359 302.498 275.297 302.62 275.297H311.662C314.538 275.297 316.81 276.177 318.478 277.937C320.161 279.681 321.002 282.06 321.002 285.074C321.002 287.277 320.566 289.197 319.694 290.834C318.807 292.456 317.66 293.71 316.252 294.598C314.844 295.485 313.314 295.929 311.662 295.929H308.082V307.771C308.082 307.924 308.006 308 307.853 308ZM311.662 280.874L308.082 280.92V290.237H311.662C312.657 290.237 313.521 289.763 314.255 288.814C314.99 287.851 315.357 286.604 315.357 285.074C315.357 283.85 315.028 282.848 314.37 282.067C313.712 281.272 312.81 280.874 311.662 280.874ZM339.568 308H324.376C324.254 308 324.192 307.924 324.192 307.771L324.238 275.481C324.238 275.359 324.299 275.297 324.422 275.297H339.522C339.645 275.297 339.706 275.374 339.706 275.527V280.782C339.706 280.905 339.645 280.966 339.522 280.966H329.884V288.31H339.522C339.645 288.31 339.706 288.371 339.706 288.493L339.752 293.817C339.752 293.94 339.691 294.001 339.568 294.001H329.884V302.217H339.568C339.691 302.217 339.752 302.293 339.752 302.446V307.816C339.752 307.939 339.691 308 339.568 308ZM349.437 308H344.112C343.99 308 343.929 307.924 343.929 307.771L344.021 275.481C344.021 275.359 344.082 275.297 344.204 275.297H353.705C355.403 275.297 356.964 275.71 358.387 276.537C359.81 277.363 360.942 278.472 361.783 279.864C362.64 281.257 363.068 282.832 363.068 284.592C363.068 285.739 362.892 286.78 362.541 287.713C362.189 288.646 361.776 289.434 361.301 290.077C360.842 290.719 360.422 291.194 360.039 291.5C361.737 293.381 362.586 295.592 362.586 298.132L362.632 307.771C362.632 307.924 362.556 308 362.403 308H357.079C356.956 308 356.895 307.954 356.895 307.862V298.132C356.895 297 356.497 296.021 355.702 295.194C354.906 294.368 353.927 293.955 352.764 293.955H349.666L349.62 307.771C349.62 307.924 349.559 308 349.437 308ZM353.705 280.92H349.666V288.31H353.705C354.669 288.31 355.526 287.95 356.275 287.231C357.04 286.512 357.423 285.632 357.423 284.592C357.423 283.597 357.056 282.741 356.321 282.021C355.587 281.287 354.715 280.92 353.705 280.92ZM112.204 409.084C108.266 409.084 104.634 408.072 101.31 406.049C98.0221 404.025 95.3844 401.333 93.3971 397.973C91.4459 394.577 90.4703 390.855 90.4703 386.808V381.713C90.4703 381.316 90.651 381.117 91.0123 381.117H103.478C103.767 381.117 103.912 381.316 103.912 381.713V386.808C103.912 389.229 104.725 391.325 106.351 393.095C107.977 394.83 109.928 395.697 112.204 395.697C114.517 395.697 116.486 394.812 118.112 393.041C119.738 391.234 120.551 389.157 120.551 386.808C120.551 384.098 118.78 381.731 115.239 379.708C114.661 379.347 113.902 378.913 112.963 378.407C112.06 377.865 110.976 377.251 109.711 376.564C108.446 375.878 107.218 375.209 106.025 374.559C104.833 373.873 103.677 373.222 102.557 372.608C98.5099 370.223 95.4928 367.242 93.5055 363.665C91.5543 360.052 90.5787 356.005 90.5787 351.524C90.5787 347.405 91.5904 343.684 93.6139 340.359C95.6373 337.071 98.275 334.47 101.527 332.555C104.815 330.604 108.374 329.628 112.204 329.628C116.143 329.628 119.756 330.604 123.044 332.555C126.332 334.542 128.952 337.18 130.903 340.468C132.89 343.756 133.884 347.441 133.884 351.524V360.63C133.884 360.919 133.739 361.063 133.45 361.063H120.984C120.695 361.063 120.551 360.919 120.551 360.63L120.442 351.524C120.442 348.923 119.629 346.809 118.004 345.183C116.378 343.557 114.444 342.744 112.204 342.744C109.928 342.744 107.977 343.611 106.351 345.346C104.725 347.08 103.912 349.14 103.912 351.524C103.912 353.945 104.418 355.969 105.429 357.595C106.477 359.221 108.374 360.774 111.12 362.256C111.409 362.4 112.078 362.762 113.126 363.34C114.173 363.918 115.33 364.568 116.594 365.291C117.895 365.978 119.069 366.61 120.117 367.188C121.165 367.73 121.797 368.055 122.014 368.164C125.7 370.223 128.608 372.752 130.74 375.751C132.908 378.75 133.992 382.436 133.992 386.808C133.992 391.036 133.017 394.83 131.066 398.19C129.078 401.55 126.441 404.206 123.152 406.157C119.864 408.108 116.215 409.084 112.204 409.084ZM154.696 408H142.122C141.833 408 141.689 407.819 141.689 407.458L141.797 331.2C141.797 330.911 141.978 330.766 142.339 330.766H154.696C155.058 330.766 155.238 330.911 155.238 331.2L155.13 361.389H171.769V331.2C171.769 330.911 171.914 330.766 172.203 330.766H184.56C184.921 330.766 185.102 330.911 185.102 331.2L185.319 407.458C185.319 407.819 185.138 408 184.777 408H172.311C171.95 408 171.769 407.819 171.769 407.458V374.83H155.13V407.458C155.13 407.819 154.985 408 154.696 408ZM190.63 407.458L204.397 331.2C204.469 330.911 204.65 330.766 204.939 330.766H221.036C221.325 330.766 221.506 330.911 221.578 331.2L234.803 407.458C234.839 407.819 234.694 408 234.369 408H222.066C221.705 408 221.506 407.819 221.47 407.458L220.277 399.328H205.156L203.963 407.458C203.927 407.819 203.747 408 203.421 408H191.064C190.775 408 190.63 407.819 190.63 407.458ZM212.364 356.294L207.378 387.458H218.055L213.503 356.294L212.852 352.175L212.364 356.294ZM306.162 407.458L319.928 331.2C320 330.911 320.181 330.766 320.47 330.766H336.567C336.856 330.766 337.037 330.911 337.109 331.2L350.334 407.458C350.37 407.819 350.225 408 349.9 408H337.597C337.236 408 337.037 407.819 337.001 407.458L335.808 399.328H320.687L319.495 407.458C319.458 407.819 319.278 408 318.953 408H306.595C306.306 408 306.162 407.819 306.162 407.458ZM327.895 356.294L322.909 387.458H333.586L329.034 356.294L328.383 352.175L327.895 356.294ZM370.279 408H357.705C357.416 408 357.271 407.819 357.271 407.458L357.488 331.2C357.488 330.911 357.633 330.766 357.922 330.766H371.472C371.761 330.766 372.014 330.911 372.23 331.2L382.366 345.833L392.447 331.2C392.663 330.911 392.934 330.766 393.26 330.766H406.864C407.189 330.766 407.351 330.911 407.351 331.2L407.568 407.458C407.568 407.819 407.424 408 407.135 408H394.56C394.271 408 394.127 407.819 394.127 407.458L394.018 350.82L382.366 367.73L370.821 350.82L370.713 407.458C370.713 407.819 370.568 408 370.279 408ZM427.351 387.567H419.763C419.438 387.567 419.257 387.386 419.221 387.025L416.891 361.497V331.308C416.891 330.947 417.035 330.766 417.324 330.766H429.79C430.151 330.766 430.332 330.947 430.332 331.308L430.224 361.497L427.893 387.025C427.857 387.386 427.676 387.567 427.351 387.567ZM429.79 408H417.324C417.035 408 416.891 407.819 416.891 407.458V395.372C416.891 395.046 417.035 394.884 417.324 394.884H429.79C430.079 394.884 430.224 395.046 430.224 395.372V407.458C430.224 407.819 430.079 408 429.79 408Z" fill="white"/>
<path d="M249.081 335.77L262.72 322H315L271.812 371.021H306.192L247.945 425L268.97 385.067H238L281.188 335.77H249.081Z" fill="#FFC700"/>
</svg>
