<svg width="523" height="233" viewBox="0 0 523 233" fill="none" xmlns="http://www.w3.org/2000/svg">
<path d="M35.8997 191.671C42.4022 198.299 51.8493 204.653 64.4263 210.541L113.854 199.244C114.504 199.095 115.18 199.113 115.821 199.296C116.461 199.478 117.046 199.82 117.519 200.288L150.568 232.969L187.298 196.05L158.143 166.42C157.553 165.82 157.17 165.048 157.048 164.215C156.926 163.383 157.073 162.533 157.467 161.789C163.033 151.269 161.794 140.886 157.639 131.065C154.193 122.919 148.664 115.42 143.605 109.589C140.886 112.884 137.393 116.347 133.279 118.867C130.321 120.678 126.971 122.023 123.305 122.099C120.341 122.161 117.243 121.278 114.451 119.402C112.482 122.877 109.58 125.458 106.436 127.198C101.762 129.785 96.6141 131.133 92.1415 132.719C92.1387 132.721 92.136 132.724 92.1331 132.726C89.0872 135.211 85.7491 138.87 81.8889 141.721C79.9585 143.146 77.8518 144.406 75.3746 145.038C73.7832 145.443 72.0183 145.524 70.2654 145.199L64.738 158.047C76.2607 151.344 87.4734 150.093 96.6091 151.218C102.793 151.98 108.048 153.743 112 155.419C115.951 157.095 119.043 158.883 119.275 158.992L115.907 166.159C114.296 165.402 112.371 164.18 108.909 162.712C105.447 161.243 100.891 159.726 95.6428 159.079C85.1449 157.786 71.9607 159.695 57.9366 173.055C57.2761 173.685 56.4184 174.067 55.5086 174.137C54.5989 174.207 53.693 173.96 52.9441 173.439C52.1953 172.917 51.6495 172.153 51.3992 171.275C51.1489 170.397 51.2093 169.46 51.5703 168.622L63.8612 140.053C61.6537 133.934 58.7993 130.937 55.3717 129.09C52.2477 127.406 48.297 126.717 44.0126 126.134C36.703 135.438 30.7031 146.276 25.3336 157.927C23.0518 168.233 24.8164 177.273 31.1276 186.045C32.4908 187.939 34.0797 189.816 35.8997 191.671ZM6.62197 141.045L19.8689 150.92C24.7106 140.8 30.1383 131.135 36.7416 122.478C30.17 113.279 25.1784 111.446 17.9506 107.225C9.82594 111.88 3.63071 116.726 1.28759 121.491C0.023359 124.063 -0.358553 126.562 0.359558 129.731C1.06025 132.824 2.98072 136.603 6.62197 141.045ZM24.7212 102.027C30.7541 105.447 36.7285 108.865 43.2612 117.988C48.3461 118.62 53.9 119.3 59.1255 122.117C64.185 124.843 68.5975 129.701 71.3776 137.356C72.0686 137.587 72.6325 137.562 73.4206 137.361C74.417 137.108 75.7289 136.425 77.1869 135.348C79.395 133.718 81.9064 131.281 84.5682 128.877C75.0104 112.135 64.111 96.8184 51.4014 83.3864C45.4475 82.5824 40.1001 83.1058 35.7324 85.6273C31.2103 88.239 27.2957 93.062 24.7212 102.027ZM91.3189 124.598C95.5694 123.127 99.6078 121.926 102.603 120.268C106.41 118.161 108.547 115.993 108.997 110.672C105.498 95.1109 96.5214 82.2644 86.6131 69.3206C79.8997 67.9597 73.6971 67.1296 69.3352 68.2973C64.835 69.5014 61.5713 72.138 59.5 80.4455C71.6367 93.6989 82.1259 108.538 91.3189 124.598ZM116.922 111.394C117.241 111.555 117.536 111.759 117.801 111.999C119.758 113.752 121.357 114.217 123.14 114.179C124.922 114.143 126.997 113.427 129.146 112.111C132.848 109.843 136.484 105.896 138.999 102.56C134.288 89.0196 128.486 76.3042 118.27 65.3866C110.992 60.6307 106.941 60.421 103.373 61.5044C100.605 62.3451 97.8447 64.3828 94.5832 66.6806C104.167 79.327 113.285 92.7922 116.895 109.606C116.97 109.958 116.997 110.318 116.976 110.677C116.961 110.918 116.942 111.156 116.92 111.392L116.922 111.394Z" fill="#E943E9"/>
<path d="M353.507 90.9017C351.106 93.4115 349.091 96.256 347.374 99.3678C339.472 113.685 338.632 135.012 341.003 155.483C341.091 156.242 341.012 157.012 340.771 157.737C340.53 158.462 340.133 159.126 339.608 159.681L311.947 188.975L308.166 185.401L308.16 185.409L355.031 233L385.662 202.434C386.601 201.496 387.861 200.951 389.187 200.907C390.513 200.864 391.806 201.326 392.804 202.2C392.317 201.775 395.097 203.063 398.887 203.207C402.678 203.351 407.506 202.995 412.127 202.251C415.673 201.681 419.122 200.871 421.893 199.978C421.242 199.297 420.644 198.576 420.108 197.836C417.474 194.194 415.779 189.784 414.818 185.224C413.856 180.665 413.628 175.974 414.578 171.615C415.17 168.896 416.366 166.093 418.35 163.928C415 154.544 411.656 141.954 418.873 129.23C419.302 128.471 419.686 128.003 420.044 127.663C420.401 127.322 420.733 127.11 421.059 126.866C421.252 126.722 421.449 126.594 421.645 126.461C411.285 126.741 401.878 124.653 393.141 121.385C398.604 138.266 394.372 156.162 390.086 170.193L380.078 167.132C385.368 149.815 389.54 129.865 377.602 113.665C376.9 112.712 376.542 111.549 376.586 110.366C376.629 109.183 377.073 108.05 377.843 107.151C378.614 106.253 379.666 105.642 380.828 105.419C381.99 105.196 383.193 105.373 384.242 105.922C397.2 112.715 410.152 117.305 425.775 115.697C431.303 114.092 436.29 106.585 431.784 97.1304C419.867 90.2186 411.672 84.6056 398.231 79.9938C375.617 77.2574 362.088 81.9392 353.507 90.9017ZM453.407 7.25134C451.602 9.09806 449.735 11.3446 447.859 14.0352L409.664 73.1556C417.974 76.7051 424.567 80.6901 431.73 84.9573C433.822 81.7508 441 70.7487 449.406 57.8032C454.266 50.3164 459.162 42.756 462.907 36.9267C464.78 34.0122 466.367 31.5285 467.51 29.7159C468.081 28.8098 468.543 28.0691 468.864 27.5438C469.103 27.1531 469.333 26.713 469.329 26.736C472.698 19.5626 473.732 13.4533 473.372 9.06188C473.009 4.62894 471.382 2.15212 469.62 0.996378C467.858 -0.159361 465.474 -0.550496 461.638 1.14815C459.244 2.20806 456.414 4.17403 453.407 7.25134ZM440.731 91.471C445.853 101.211 444.422 111.473 439.245 118.364C440.497 117.886 441.764 117.414 443.034 116.955C448.266 115.066 453.48 113.398 457.766 112.384C458.819 112.135 459.805 111.923 460.754 111.761C482.587 94.939 506.195 72.922 519.372 57.3718C522.186 54.0493 523.03 51.2344 522.999 49.166C522.969 47.0984 522.19 45.561 520.578 44.2346C517.354 41.5797 509.983 40.2442 500.585 45.6725C490.276 51.6264 476.329 61.81 464.199 71.4389C454.219 79.3621 445.312 87.0923 440.731 91.471ZM427.687 135.024C423.283 143.324 425.038 151.236 427.788 159.107L463.795 147.54C465.268 146.956 465.807 146.263 466.359 144.356C466.915 142.428 466.997 139.399 466.552 136.136C465.833 130.853 463.934 125.564 462.512 122.166C461.77 122.28 461.237 122.321 460.173 122.573C456.566 123.425 451.568 125.003 446.586 126.803C441.604 128.601 436.59 130.631 432.825 132.358C430.943 133.223 429.362 134.021 428.344 134.608C428.013 134.799 427.873 134.9 427.687 135.024ZM426.108 170.924C425.967 171.045 425.819 171.211 425.67 171.446C425.365 171.924 425.06 172.671 424.804 173.846C424.292 176.196 424.349 179.697 425.059 183.065C425.769 186.434 427.133 189.689 428.587 191.697C430.04 193.707 431.095 194.13 431.736 194.117C431.869 194.113 434.645 193.585 437.768 192.483C440.89 191.379 444.703 189.797 448.557 187.981C455.933 184.511 463.538 179.936 466.756 177.04C469.657 171.715 469.93 168.296 469.172 165.585C468.538 163.322 466.927 161.095 464.447 158.808L426.504 170.684C426.384 170.73 426.25 170.804 426.108 170.924Z" fill="#377AE3"/>
<path d="M157.589 96.4288C157.623 96.4664 157.657 96.5046 157.69 96.5433C157.701 96.5568 157.713 96.5672 157.725 96.5797C157.673 96.5234 157.662 96.5085 157.589 96.4288ZM157.896 96.0534C157.884 96.5125 158.025 96.8451 158.061 96.9446C165.996 106.044 174.621 109.9 183.824 118.528C192.983 127.116 201.762 140.279 209.205 166.662L230.08 182.139C230.637 182.552 231.09 183.089 231.405 183.708C231.719 184.327 231.886 185.011 231.892 185.706L232.115 210.973L227.981 218.287L287.313 219.593L283.138 212.322V183.803C283.138 183.144 283.283 182.492 283.562 181.896C283.842 181.299 284.249 180.771 284.755 180.351C292.856 173.617 300.631 170.381 304.494 161.458L335.154 61.6049C334.888 55.3923 334.156 50.4309 332.396 47.353C330.897 44.7312 328.695 42.9258 324.178 41.9002C323.036 44.6171 319.251 53.6154 314.341 65.3928C311.541 72.1117 308.745 78.8506 306.664 83.932C305.624 86.4727 304.761 88.6031 304.173 90.0908C303.88 90.8336 303.653 91.4211 303.521 91.7821C303.483 91.8856 303.476 91.9081 303.456 91.9648C303.468 92.043 303.508 92.1142 303.121 92.9093C302.88 93.4042 297.875 95.2453 297.875 95.2453C297.875 95.2453 294.888 92.4363 294.786 92.0241C294.471 90.7594 294.662 90.5404 294.697 90.2899C294.71 90.1904 294.721 90.164 294.733 90.0968C294.741 90.032 294.751 89.9504 294.769 89.7796C294.817 89.3365 294.886 88.621 294.973 87.697C295.144 85.8483 295.382 83.1513 295.665 79.8951C296.23 73.3818 296.969 64.6201 297.702 55.8125C298.434 47.005 299.16 38.1501 299.699 31.4436C299.969 28.0909 300.191 25.2739 300.343 23.2754C300.42 22.2766 300.479 21.48 300.518 20.9343C300.532 20.7128 300.542 20.5659 300.55 20.4364C300.257 16.4763 299.098 14.4141 297.888 13.2769C296.659 12.1243 295.131 11.6468 293.192 11.7459C289.376 11.9411 284.917 15.1589 283.928 18.299L275.806 80.5578C275.663 81.651 275.124 82.6528 274.292 83.3715C273.46 84.0903 272.393 84.4755 271.296 84.4535C270.199 84.4315 269.149 84.0038 268.346 83.2523C267.543 82.5007 267.044 81.4781 266.944 80.3801C266.944 80.3801 265.401 63.2529 263.798 45.9037C262.995 37.2281 262.178 28.4962 261.531 21.831C261.207 18.4977 260.926 15.6797 260.712 13.6558C260.606 12.6451 260.516 11.8286 260.448 11.2669C260.418 11.01 260.352 10.6984 260.314 10.5122C258.781 5.08224 256.762 2.44844 255.333 1.4686C253.874 0.467857 252.812 0.476318 251.05 1.21119C247.532 2.67796 243.229 8.82134 242.962 12.7969L241.148 82.6798C241.119 83.7802 240.688 84.8314 239.938 85.6331C239.187 86.4348 238.169 86.9308 237.078 87.0265C235.986 87.1222 234.898 86.8109 234.021 86.152C233.143 85.4932 232.538 84.5327 232.32 83.454C232.32 83.454 229.25 68.2616 226.105 52.6331C224.533 44.8188 222.941 36.896 221.705 30.7063C220.469 24.5156 219.632 20.3254 219.418 19.0807C218.604 14.3558 216.804 12.1801 214.877 11.0434C212.95 9.90722 210.477 9.72151 207.853 10.5475C203.262 11.9924 199.027 16.2532 198.901 22.0844C198.883 22.9169 198.95 23.7822 199.11 24.6754C199.116 24.7069 199.121 24.7384 199.125 24.77L210.851 98.9317C215.994 102.671 218.728 106.151 222.236 110.857C250.518 111.864 264.622 117.055 272.071 124.465C279.72 132.074 279.218 141.592 279.954 144.547L271.302 146.721C269.799 140.68 270.774 135.784 265.798 130.834C260.821 125.884 248.636 120.485 219.814 119.712C219.142 119.694 218.482 119.523 217.884 119.212C217.286 118.901 216.767 118.458 216.363 117.917C211.758 111.731 210.28 109.347 204.528 105.434L165.667 87.7453C161.706 88.275 159.876 90.2411 158.783 92.5449C158.192 93.7896 157.921 95.1343 157.896 96.0534Z" fill="#2DC89E"/>
</svg>
