<svg width="128" height="300" viewBox="0 0 128 300" fill="none" xmlns="http://www.w3.org/2000/svg">
<path d="M23.0048 101.699C23.0493 103.736 23.3944 105.752 23.9743 107.755C26.6426 116.972 35.1681 126.165 44.6743 133.672C45.0268 133.95 45.3139 134.302 45.5154 134.703C45.7169 135.103 45.8279 135.543 45.8406 135.991L46.5 159.5V286.5H82.773L82.8055 134.614C82.8064 133.835 83.1039 133.086 83.6378 132.518C84.1718 131.95 85.3183 131.946 86 131.5C86.8183 130.946 86.9955 130.96 88.6335 129.447C90.2715 127.934 92.1333 125.783 93.7477 123.557C94.9869 121.849 96.0858 120.083 96.868 118.562C96.3134 118.55 95.7643 118.499 95.233 118.414C92.6205 117.997 90.0798 116.871 87.7825 115.379C85.4845 113.887 83.4371 112.036 82.0189 109.835C81.134 108.461 80.4654 106.802 80.3908 105.081C75.0907 102.579 68.4593 98.7453 66.1685 90.4739C66.0315 89.9813 65.9966 89.6279 66.0042 89.3379C66.011 89.0486 66.061 88.8227 66.0949 88.5863C66.1154 88.4464 66.1442 88.3117 66.1702 88.1752C61.974 92.5898 57.1884 95.6268 52.1909 97.8968C61.4903 102.631 67.1756 111.809 71.2307 119.407L65.7899 122.29C60.7858 112.913 54.2209 102.908 42.5088 101.143C41.82 101.038 41.1869 100.705 40.7129 100.196C40.2389 99.6872 39.9519 99.0332 39.8988 98.341C39.8457 97.6487 40.0296 96.9589 40.4205 96.3841C40.8114 95.8094 41.3862 95.3837 42.0511 95.1764C50.2729 92.6167 57.5752 89.1468 63.4104 81.9976C65.044 79.038 63.9965 73.8555 58.1859 71.8038C50.3479 73.8821 44.6003 74.9544 37.0854 78.6184C26.5317 86.8665 22.8473 94.4218 23.0048 101.699ZM29.7851 25.5562C29.8022 27.071 29.9597 28.7774 30.2986 30.6715L38.9993 71.0389C43.9362 69.0629 48.3395 67.9801 53.0974 66.7779C52.6342 64.5798 51.0441 57.0385 49.1563 48.1821C48.0643 43.0603 46.9562 37.8935 46.0898 33.9217C45.6564 31.9362 45.7783 32.7261 45.5 31.5C45.3607 30.8873 44.5849 28.3511 44.5 28C44 26.5 43.9774 26.4693 43.5 25C41.9175 20.6271 40.828 19.6952 38.8504 18.0235C36.8547 16.3354 35.1465 15.9834 33.932 16.2351C32.7174 16.4869 31.5621 17.3139 30.6721 19.6099C30.1165 21.0427 29.7564 23.0323 29.7851 25.5562ZM59.5556 65.7445C65.7413 67.6591 69.416 72.5086 70.1284 77.5144C70.4509 76.797 70.7816 76.0754 71.1194 75.3583C72.5116 72.4039 73.9881 69.5484 75.3505 67.35C75.6853 66.8099 76.0077 66.3129 76.3353 65.8513C78.4249 49.8159 79.091 30.8895 78.1058 18.9729C77.8949 16.4272 77.0747 14.9097 76.2011 14.0647C75.3282 13.2196 74.3639 12.9054 73.1408 13.0242C70.6939 13.2606 67.0695 15.765 65.4157 21.9157C63.6014 28.6625 62.0329 38.6727 60.9895 47.6994C60.1317 55.1263 59.6404 62.0279 59.5556 65.7445ZM72.2494 89.2195C73.87 94.489 77.8932 97.0422 82.3136 99.1656L92.4907 79.429C92.8611 78.5754 92.7968 78.0643 92.233 77.0443C91.6627 76.014 90.4358 74.7237 88.893 73.5549C86.3951 71.6625 83.4035 70.257 81.3972 69.4372C81.136 69.7927 80.931 70.0308 80.5928 70.5767C79.446 72.4267 78.0219 75.155 76.6965 77.9685C75.3707 80.7817 74.1277 83.704 73.2791 85.9823C72.8553 87.1217 72.5294 88.1087 72.3497 88.7746C72.2915 88.9909 72.2754 89.0912 72.2494 89.2195ZM86.5316 104.764C86.5231 104.872 86.531 105.003 86.5666 105.162C86.6384 105.487 86.8226 105.923 87.205 106.517C87.9697 107.704 89.4499 109.132 91.1475 110.234C92.8447 111.337 94.7675 112.121 96.2086 112.351C97.6498 112.581 98.265 112.319 98.5262 112.048C98.5802 111.991 99.5161 110.62 100.358 108.867C101.198 107.114 102.127 104.876 102.976 102.524C104.603 98.0237 105.865 92.9712 106 90.435C104.992 87.0228 103.683 85.491 102.239 84.6814C101.033 84.0059 99.4357 83.7511 97.4516 83.8313L86.5967 104.5C86.5659 104.569 86.5409 104.655 86.5316 104.764Z" stroke="#377AE3" stroke-width="8"/>
</svg>
