<svg width="216" height="216" viewBox="0 0 216 216" fill="none" xmlns="http://www.w3.org/2000/svg">
    <path
        d="M108 8L123.891 67.0201C125.83 74.2222 126.8 77.8232 128.713 80.7672C130.407 83.3721 132.628 85.5929 135.233 87.2867C138.177 89.2 141.778 90.17 148.98 92.1089L208 108L148.98 123.891C141.778 125.83 138.177 126.8 135.233 128.713C132.628 130.407 130.407 132.628 128.713 135.233C126.8 138.177 125.83 141.778 123.891 148.98L108 208L92.1089 148.98C90.17 141.778 89.2 138.177 87.2867 135.233C85.5929 132.628 83.3721 130.407 80.7672 128.713C77.8232 126.8 74.2222 125.83 67.0201 123.891L8 108L67.0201 92.1089C74.2222 90.17 77.8232 89.2 80.7672 87.2867C83.3721 85.5929 85.5929 83.3721 87.2867 80.7672C89.2 77.8232 90.17 74.2222 92.1089 67.0201L108 8Z"
        fill="#FFC700" stroke="white" stroke-width="15" stroke-linecap="round"
        stroke-linejoin="round" />
</svg>