<svg width="348" height="153" viewBox="0 0 348 153" fill="none" xmlns="http://www.w3.org/2000/svg">
<path d="M78.623 36H73.2988C73.1764 36 73.1152 35.9235 73.1152 35.7705L73.207 3.48096C73.207 3.35856 73.2682 3.29736 73.3906 3.29736H82.8916C84.5898 3.29736 86.1504 3.71045 87.5732 4.53662C88.9961 5.36279 90.1283 6.47201 90.9697 7.86426C91.8265 9.25651 92.2549 10.8324 92.2549 12.5918C92.2549 13.7393 92.0789 14.7796 91.7271 15.7129C91.3752 16.6462 90.9621 17.4341 90.4878 18.0767C90.0288 18.7192 89.6081 19.1935 89.2256 19.4995C90.9238 21.3813 91.7729 23.5921 91.7729 26.1318L91.8188 35.7705C91.8188 35.9235 91.7424 36 91.5894 36H86.2651C86.1427 36 86.0815 35.9541 86.0815 35.8623V26.1318C86.0815 24.9997 85.6838 24.0205 84.8882 23.1943C84.0926 22.3682 83.1134 21.9551 81.9507 21.9551H78.8525L78.8066 35.7705C78.8066 35.9235 78.7454 36 78.623 36ZM82.8916 8.91992H78.8525V16.3096H82.8916C83.8555 16.3096 84.7122 15.95 85.4619 15.231C86.2269 14.5119 86.6094 13.6322 86.6094 12.5918C86.6094 11.5973 86.2422 10.7406 85.5078 10.0215C84.7734 9.28711 83.9014 8.91992 82.8916 8.91992ZM104.487 36.459C102.819 36.459 101.282 36.0306 99.874 35.1738C98.4818 34.3171 97.3573 33.1772 96.5005 31.7544C95.659 30.3162 95.2383 28.7404 95.2383 27.0269L95.2842 12.1328C95.2842 10.3887 95.7049 8.82048 96.5464 7.42822C97.3726 6.02067 98.4894 4.89616 99.897 4.05469C101.305 3.19792 102.834 2.76953 104.487 2.76953C106.2 2.76953 107.738 3.19027 109.1 4.03174C110.477 4.87321 111.578 6.00537 112.404 7.42822C113.246 8.83577 113.667 10.404 113.667 12.1328L113.712 27.0269C113.712 28.7404 113.299 30.3086 112.473 31.7314C111.632 33.1696 110.515 34.3171 109.123 35.1738C107.73 36.0306 106.185 36.459 104.487 36.459ZM104.487 30.7905C105.435 30.7905 106.262 30.408 106.965 29.6431C107.669 28.8628 108.021 27.9907 108.021 27.0269L107.975 12.1328C107.975 11.0924 107.646 10.2127 106.988 9.49365C106.33 8.77458 105.497 8.41504 104.487 8.41504C103.523 8.41504 102.697 8.76693 102.008 9.4707C101.32 10.1745 100.976 11.0618 100.976 12.1328V27.0269C100.976 28.0519 101.32 28.9393 102.008 29.689C102.697 30.4233 103.523 30.7905 104.487 30.7905ZM125.921 36.459C124.223 36.459 122.67 36.0306 121.263 35.1738C119.87 34.3171 118.761 33.1696 117.935 31.7314C117.124 30.278 116.719 28.6639 116.719 26.8892L116.765 12.2246C116.765 10.4805 117.162 8.90462 117.958 7.49707C118.754 6.07422 119.847 4.93441 121.24 4.07764C122.647 3.20557 124.208 2.76953 125.921 2.76953C127.666 2.76953 129.218 3.19027 130.58 4.03174C131.957 4.87321 133.051 6.01302 133.862 7.45117C134.688 8.87402 135.101 10.4652 135.101 12.2246V14.3818C135.101 14.5042 135.04 14.5654 134.917 14.5654H129.639C129.517 14.5654 129.456 14.5042 129.456 14.3818V12.2246C129.456 11.1842 129.119 10.2892 128.446 9.53955C127.773 8.78988 126.931 8.41504 125.921 8.41504C124.805 8.41504 123.948 8.79753 123.351 9.5625C122.754 10.3275 122.456 11.2148 122.456 12.2246V26.8892C122.456 28.0366 122.793 28.9775 123.466 29.7119C124.139 30.431 124.958 30.7905 125.921 30.7905C126.931 30.7905 127.773 30.3927 128.446 29.5972C129.119 28.7863 129.456 27.8836 129.456 26.8892V24.709C129.456 24.5866 129.517 24.5254 129.639 24.5254H134.963C135.086 24.5254 135.147 24.5866 135.147 24.709V26.8892C135.147 28.6486 134.734 30.255 133.908 31.7085C133.066 33.1466 131.957 34.3018 130.58 35.1738C129.203 36.0306 127.65 36.459 125.921 36.459ZM144.074 36H138.75C138.628 36 138.566 35.9235 138.566 35.7705L138.658 3.52686C138.658 3.37386 138.719 3.29736 138.842 3.29736H144.12C144.243 3.29736 144.304 3.37386 144.304 3.52686V14.6572L151.67 3.48096C151.793 3.35856 151.908 3.29736 152.015 3.29736H157.408C157.545 3.29736 157.576 3.35856 157.5 3.48096L149.375 16.4473L158.486 35.8164C158.563 35.9388 158.486 36 158.257 36H152.52C152.367 36 152.275 35.9388 152.244 35.8164L145.887 22.001L144.258 24.5713V35.7705C144.258 35.9235 144.197 36 144.074 36ZM178.314 36H173.036C172.883 36 172.807 35.9235 172.807 35.7705L172.898 3.48096C172.898 3.35856 172.96 3.29736 173.082 3.29736H182.124C185 3.29736 187.272 4.17708 188.94 5.93652C190.623 7.68066 191.464 10.0597 191.464 13.0737C191.464 15.2769 191.028 17.1969 190.156 18.834C189.269 20.4557 188.121 21.7103 186.714 22.5977C185.306 23.485 183.776 23.9287 182.124 23.9287H178.544V35.7705C178.544 35.9235 178.467 36 178.314 36ZM182.124 8.87402L178.544 8.91992V18.2373H182.124C183.118 18.2373 183.983 17.763 184.717 16.8145C185.452 15.8506 185.819 14.6037 185.819 13.0737C185.819 11.8498 185.49 10.8477 184.832 10.0674C184.174 9.27181 183.271 8.87402 182.124 8.87402ZM192.704 35.7705L198.533 3.48096C198.563 3.35856 198.64 3.29736 198.762 3.29736H205.578C205.701 3.29736 205.777 3.35856 205.808 3.48096L211.407 35.7705C211.423 35.9235 211.361 36 211.224 36H206.014C205.861 36 205.777 35.9235 205.762 35.7705L205.257 32.3281H198.854L198.349 35.7705C198.334 35.9235 198.257 36 198.12 36H192.887C192.765 36 192.704 35.9235 192.704 35.7705ZM201.906 14.1064L199.795 27.3022H204.316L202.388 14.1064L202.113 12.3623L201.906 14.1064ZM219.853 36H214.574C214.421 36 214.345 35.9235 214.345 35.7705L214.437 3.48096C214.437 3.35856 214.498 3.29736 214.62 3.29736H223.662C226.538 3.29736 228.81 4.17708 230.478 5.93652C232.161 7.68066 233.002 10.0597 233.002 13.0737C233.002 15.2769 232.566 17.1969 231.694 18.834C230.807 20.4557 229.66 21.7103 228.252 22.5977C226.844 23.485 225.314 23.9287 223.662 23.9287H220.082V35.7705C220.082 35.9235 220.006 36 219.853 36ZM223.662 8.87402L220.082 8.91992V18.2373H223.662C224.657 18.2373 225.521 17.763 226.255 16.8145C226.99 15.8506 227.357 14.6037 227.357 13.0737C227.357 11.8498 227.028 10.8477 226.37 10.0674C225.712 9.27181 224.81 8.87402 223.662 8.87402ZM251.568 36H236.376C236.254 36 236.192 35.9235 236.192 35.7705L236.238 3.48096C236.238 3.35856 236.299 3.29736 236.422 3.29736H251.522C251.645 3.29736 251.706 3.37386 251.706 3.52686V8.78223C251.706 8.90462 251.645 8.96582 251.522 8.96582H241.884V16.3096H251.522C251.645 16.3096 251.706 16.3708 251.706 16.4932L251.752 21.8174C251.752 21.9398 251.691 22.001 251.568 22.001H241.884V30.2168H251.568C251.691 30.2168 251.752 30.2933 251.752 30.4463V35.8164C251.752 35.9388 251.691 36 251.568 36ZM261.437 36H256.112C255.99 36 255.929 35.9235 255.929 35.7705L256.021 3.48096C256.021 3.35856 256.082 3.29736 256.204 3.29736H265.705C267.403 3.29736 268.964 3.71045 270.387 4.53662C271.81 5.36279 272.942 6.47201 273.783 7.86426C274.64 9.25651 275.068 10.8324 275.068 12.5918C275.068 13.7393 274.892 14.7796 274.541 15.7129C274.189 16.6462 273.776 17.4341 273.301 18.0767C272.842 18.7192 272.422 19.1935 272.039 19.4995C273.737 21.3813 274.586 23.5921 274.586 26.1318L274.632 35.7705C274.632 35.9235 274.556 36 274.403 36H269.079C268.956 36 268.895 35.9541 268.895 35.8623V26.1318C268.895 24.9997 268.497 24.0205 267.702 23.1943C266.906 22.3682 265.927 21.9551 264.764 21.9551H261.666L261.62 35.7705C261.62 35.9235 261.559 36 261.437 36ZM265.705 8.91992H261.666V16.3096H265.705C266.669 16.3096 267.526 15.95 268.275 15.231C269.04 14.5119 269.423 13.6322 269.423 12.5918C269.423 11.5973 269.056 10.7406 268.321 10.0215C267.587 9.28711 266.715 8.91992 265.705 8.91992ZM24.2042 137.084C20.2657 137.084 16.6344 136.072 13.3102 134.049C10.0221 132.025 7.38437 129.333 5.39706 125.973C3.44589 122.577 2.47031 118.855 2.47031 114.808V109.713C2.47031 109.316 2.65097 109.117 3.0123 109.117H15.4781C15.7672 109.117 15.9117 109.316 15.9117 109.713V114.808C15.9117 117.229 16.7247 119.325 18.3507 121.095C19.9767 122.83 21.9278 123.697 24.2042 123.697C26.5167 123.697 28.4859 122.812 30.1119 121.041C31.7379 119.234 32.5509 117.157 32.5509 114.808C32.5509 112.098 30.7804 109.731 27.2393 107.708C26.6612 107.347 25.9024 106.913 24.963 106.407C24.0597 105.865 22.9757 105.251 21.711 104.564C20.4464 103.878 19.2179 103.209 18.0255 102.559C16.8331 101.873 15.6768 101.222 14.5567 100.608C10.5099 98.2231 7.49277 95.2422 5.50546 91.665C3.55429 88.0518 2.5787 84.0049 2.5787 79.5244C2.5787 75.4053 3.59042 71.6836 5.61386 68.3594C7.6373 65.0713 10.275 62.4697 13.5269 60.5547C16.815 58.6035 20.3741 57.6279 24.2042 57.6279C28.1427 57.6279 31.756 58.6035 35.044 60.5547C38.3321 62.542 40.9518 65.1797 42.9029 68.4678C44.8902 71.7559 45.8839 75.4414 45.8839 79.5244V88.6299C45.8839 88.9189 45.7393 89.0635 45.4503 89.0635H32.9845C32.6954 89.0635 32.5509 88.9189 32.5509 88.6299L32.4425 79.5244C32.4425 76.9229 31.6295 74.8091 30.0035 73.1831C28.3775 71.5571 26.4444 70.7441 24.2042 70.7441C21.9278 70.7441 19.9767 71.6113 18.3507 73.3457C16.7247 75.0801 15.9117 77.1396 15.9117 79.5244C15.9117 81.9453 16.4176 83.9688 17.4293 85.5947C18.4771 87.2207 20.3741 88.7744 23.1202 90.2559C23.4093 90.4004 24.0777 90.7617 25.1256 91.3398C26.1734 91.918 27.3297 92.5684 28.5943 93.291C29.8951 93.9775 31.0694 94.6099 32.1173 95.188C33.1651 95.73 33.7975 96.0552 34.0143 96.1636C37.6998 98.2231 40.6085 100.752 42.7403 103.751C44.9083 106.75 45.9923 110.436 45.9923 114.808C45.9923 119.036 45.0167 122.83 43.0655 126.19C41.0782 129.55 38.4405 132.206 35.1524 134.157C31.8643 136.108 28.2149 137.084 24.2042 137.084ZM66.6964 136H54.1222C53.8331 136 53.6886 135.819 53.6886 135.458L53.797 59.1997C53.797 58.9106 53.9776 58.7661 54.339 58.7661H66.6964C67.0577 58.7661 67.2384 58.9106 67.2384 59.1997L67.13 89.3887H83.7691V59.1997C83.7691 58.9106 83.9137 58.7661 84.2027 58.7661H96.5602C96.9215 58.7661 97.1021 58.9106 97.1021 59.1997L97.3189 135.458C97.3189 135.819 97.1383 136 96.7769 136H84.3111C83.9498 136 83.7691 135.819 83.7691 135.458V102.83H67.13V135.458C67.13 135.819 66.9854 136 66.6964 136ZM102.63 135.458L116.397 59.1997C116.469 58.9106 116.65 58.7661 116.939 58.7661H133.036C133.325 58.7661 133.506 58.9106 133.578 59.1997L146.803 135.458C146.839 135.819 146.694 136 146.369 136H134.066C133.705 136 133.506 135.819 133.47 135.458L132.277 127.328H117.156L115.963 135.458C115.927 135.819 115.747 136 115.421 136H103.064C102.775 136 102.63 135.819 102.63 135.458ZM124.364 84.2939L119.378 115.458H130.055L125.503 84.2939L124.852 80.1748L124.364 84.2939ZM218.162 135.458L231.928 59.1997C232 58.9106 232.181 58.7661 232.47 58.7661H248.567C248.856 58.7661 249.037 58.9106 249.109 59.1997L262.334 135.458C262.37 135.819 262.225 136 261.9 136H249.597C249.236 136 249.037 135.819 249.001 135.458L247.808 127.328H232.687L231.495 135.458C231.458 135.819 231.278 136 230.953 136H218.595C218.306 136 218.162 135.819 218.162 135.458ZM239.895 84.2939L234.909 115.458H245.586L241.034 84.2939L240.383 80.1748L239.895 84.2939ZM282.279 136H269.705C269.416 136 269.271 135.819 269.271 135.458L269.488 59.1997C269.488 58.9106 269.633 58.7661 269.922 58.7661H283.472C283.761 58.7661 284.014 58.9106 284.23 59.1997L294.366 73.8335L304.447 59.1997C304.663 58.9106 304.934 58.7661 305.26 58.7661H318.864C319.189 58.7661 319.351 58.9106 319.351 59.1997L319.568 135.458C319.568 135.819 319.424 136 319.135 136H306.56C306.271 136 306.127 135.819 306.127 135.458L306.018 78.8198L294.366 95.73L282.821 78.8198L282.713 135.458C282.713 135.819 282.568 136 282.279 136ZM339.351 115.567H331.763C331.438 115.567 331.257 115.386 331.221 115.025L328.891 89.4971V59.3081C328.891 58.9468 329.035 58.7661 329.324 58.7661H341.79C342.151 58.7661 342.332 58.9468 342.332 59.3081L342.224 89.4971L339.893 115.025C339.857 115.386 339.676 115.567 339.351 115.567ZM341.79 136H329.324C329.035 136 328.891 135.819 328.891 135.458V123.372C328.891 123.046 329.035 122.884 329.324 122.884H341.79C342.079 122.884 342.224 123.046 342.224 123.372V135.458C342.224 135.819 342.079 136 341.79 136Z" fill="white"/>
<path d="M161.081 63.7701L174.72 50H227L183.812 99.0214H218.192L159.945 153L180.97 113.067H150L193.188 63.7701H161.081Z" fill="#FFC700"/>
</svg>
