<svg width="300" height="704" viewBox="0 0 300 704" fill="none" xmlns="http://www.w3.org/2000/svg">
<path d="M39.8476 202.673C39.7113 217.18 43.1548 234.638 50.5979 255.04L118.138 297.181C119.026 297.735 119.758 298.502 120.268 299.411C120.777 300.321 121.048 301.343 121.054 302.384L121.478 665.63L203.381 665.439L203.895 309.867C203.906 308.552 204.338 307.275 205.128 306.221C205.919 305.167 207.027 304.39 208.292 304.004C226.18 298.534 236.345 285.697 242.643 270.257C247.866 257.452 250.054 243.058 250.911 231.027C244.222 231.662 236.488 231.628 229.11 229.866C223.806 228.597 218.584 226.381 214.421 222.413C211.056 219.206 208.592 214.808 207.572 209.651C201.518 211.313 195.42 210.957 189.989 209.405C181.913 207.097 174.689 202.897 167.951 199.707C167.945 199.706 167.939 199.706 167.933 199.705C161.783 199.084 154.001 199.437 146.538 198.32C142.806 197.761 139.062 196.825 135.604 194.785C133.384 193.474 131.331 191.613 129.742 189.317L109.309 197.401C129.578 202.73 143.441 213.739 152.353 225.077C158.384 232.752 162.269 240.506 164.801 246.725C167.333 252.943 168.784 258.334 168.921 258.71L157.205 262.906C156.255 260.288 155.474 256.812 153.255 251.365C151.037 245.916 147.656 239.206 142.538 232.692C132.298 219.663 115.511 207.202 85.0571 206.463C83.6223 206.428 82.2434 205.903 81.1539 204.974C80.0643 204.046 79.3309 202.773 79.0778 201.369C78.8247 199.966 79.0675 198.518 79.7649 197.272C80.4624 196.026 81.5718 195.057 82.9054 194.53L128.341 176.556C132.688 167.358 132.845 160.894 131.086 155.066C129.483 149.754 125.855 144.627 121.737 139.249C103.262 141.448 84.5389 146.789 65.6129 153.724C51.6163 162.586 43.5284 174.522 40.7955 191.185C40.2053 194.784 39.8864 198.615 39.8476 202.676V202.673ZM63.5691 114.401L67.3245 139.947C83.9612 134.119 100.745 129.44 117.715 127.176C120.632 109.753 117.118 102.212 113.772 89.5624C99.5587 85.727 87.2808 84.2327 79.3762 86.9072C75.1108 88.3506 71.9068 90.6897 69.1822 94.9836C66.5227 99.1743 64.4574 105.47 63.5691 114.401ZM127.083 91.3028C129.991 101.747 132.836 112.125 129.959 129.42C134.913 135.737 140.334 142.626 143.014 151.512C145.611 160.114 145.118 170.356 139.699 181.884C140.211 182.902 140.866 183.498 141.965 184.147C143.356 184.968 145.574 185.663 148.393 186.086C152.662 186.725 158.164 186.809 163.799 187.094C171.782 158.04 176.687 129.077 177.484 100.196C171.755 92.7291 165.225 87.398 157.564 85.3566C149.63 83.2443 139.913 84.2458 127.083 91.3028ZM176.065 189.827C182.428 192.9 188.256 196.036 193.431 197.514C200.007 199.393 204.795 199.361 211.212 193.981C224.62 172.926 228.919 148.817 232.289 123.57C226.335 114.649 220.358 106.877 214.208 103.347C207.864 99.7043 201.302 99.0101 189.762 105.897C188.526 133.948 183.696 161.929 176.065 189.827ZM219.224 203.535C219.399 204.066 219.502 204.617 219.528 205.175C219.756 209.275 221.018 211.554 223.043 213.483C225.066 215.412 228.17 216.914 232.023 217.836C238.663 219.422 247.095 219.08 253.603 218.174C263.416 198.012 271.1 177.556 271.875 154.207C269.068 140.912 264.794 136.203 259.622 133.458C255.608 131.327 250.272 130.528 244.09 129.462C240.689 154.021 235.86 178.969 221.182 201.53C220.875 202.002 220.504 202.431 220.08 202.803C219.797 203.053 219.511 203.295 219.224 203.532V203.535Z" fill="#E943E9" fill-opacity="0.5" stroke="#E943E9" stroke-width="8"/>
</svg>
