<svg width="40" height="38" viewBox="0 0 40 38" fill="none" xmlns="http://www.w3.org/2000/svg">
<path d="M20.4755 2.31763L23.7372 12.3561C24.2058 13.7982 25.5496 14.7746 27.0659 14.7746H37.621C38.1054 14.7746 38.3068 15.3944 37.9149 15.6791L29.3757 21.8832C28.149 22.7745 27.6357 24.3543 28.1042 25.7963L31.3659 35.8349C31.5156 36.2955 30.9884 36.6786 30.5965 36.3939L22.0572 30.1897C20.8305 29.2985 19.1695 29.2985 17.9428 30.1897L9.40348 36.3939C9.01163 36.6786 8.48439 36.2955 8.63407 35.8348L11.8958 25.7963C12.3643 24.3543 11.851 22.7745 10.6243 21.8832L2.08506 15.6791C1.69321 15.3944 1.89459 14.7746 2.37895 14.7746H12.9341C14.4504 14.7746 15.7942 13.7982 16.2628 12.3561L19.5245 2.31762C19.6741 1.85698 20.3258 1.85697 20.4755 2.31763Z" stroke="white" stroke-width="3"/>
</svg>
