<svg width="228" height="229" viewBox="0 0 228 229" fill="none" xmlns="http://www.w3.org/2000/svg">
<path d="M44.5715 103.228C44.6022 103.261 44.6323 103.296 44.6619 103.33C44.6721 103.342 44.6824 103.352 44.6931 103.363C44.6472 103.313 44.6369 103.299 44.5715 103.228ZM44.8476 102.89C44.836 103.303 44.9634 103.601 44.9959 103.691C52.1271 111.865 59.8782 115.329 68.149 123.08C76.3806 130.795 84.2711 142.62 90.9601 166.32L109.721 180.224C110.221 180.595 110.629 181.077 110.912 181.633C111.194 182.189 111.344 182.804 111.35 183.428L111.55 206.127L107.834 212.697L161.158 213.87L157.406 207.338V181.719C157.406 181.127 157.536 180.541 157.787 180.005C158.039 179.469 158.405 178.995 158.859 178.618C166.14 172.568 173.127 169.661 176.6 161.646L204.155 71.944C203.915 66.363 203.257 61.906 201.675 59.141C200.328 56.7857 198.35 55.1639 194.29 54.2426C193.264 56.6833 189.861 64.7667 185.449 75.3468C182.932 81.3826 180.42 87.4364 178.55 92.0012C177.614 94.2836 176.839 96.1974 176.311 97.5339C176.047 98.2012 175.843 98.729 175.724 99.0532C175.69 99.1462 175.684 99.1664 175.667 99.2174C175.677 99.2876 175.713 99.3515 175.365 100.066C175.149 100.51 170.65 102.164 170.65 102.164C170.65 102.164 167.966 99.6409 167.874 99.2706C167.591 98.1345 167.763 97.9378 167.794 97.7128C167.806 97.6233 167.816 97.5996 167.827 97.5392C167.834 97.4811 167.843 97.4077 167.859 97.2543C167.902 96.8562 167.964 96.2135 168.042 95.3834C168.196 93.7227 168.41 91.2999 168.664 88.3747C169.172 82.5236 169.837 74.6526 170.495 66.7405C171.153 58.8284 171.805 50.8738 172.29 44.8491C172.532 41.8372 172.732 39.3066 172.869 37.5113C172.938 36.6141 172.991 35.8984 173.025 35.4082C173.039 35.2092 173.048 35.0772 173.054 34.9609C172.792 31.4034 171.75 29.5508 170.662 28.5293C169.557 27.4939 168.184 27.0649 166.441 27.1539C163.013 27.3293 159.005 30.2199 158.116 33.0408L150.817 88.97C150.688 89.9521 150.204 90.8521 149.456 91.4977C148.708 92.1434 147.749 92.4894 146.763 92.4697C145.777 92.4499 144.833 92.0657 144.112 91.3906C143.39 90.7155 142.941 89.7968 142.852 88.8104C142.852 88.8104 141.465 73.4245 140.024 57.839C139.303 50.0454 138.568 42.2013 137.987 36.2138C137.696 33.2193 137.444 30.6878 137.251 28.8696C137.156 27.9617 137.074 27.2282 137.014 26.7237C136.986 26.4929 136.927 26.2129 136.894 26.0456C135.515 21.1677 133.701 18.8017 132.417 17.9215C131.106 17.0225 130.151 17.0301 128.567 17.6902C125.406 19.0079 121.539 24.5267 121.299 28.0981L119.668 90.8763C119.642 91.8648 119.255 92.8092 118.581 93.5294C117.906 94.2496 116.991 94.6951 116.01 94.7811C115.029 94.8671 114.051 94.5874 113.263 93.9956C112.474 93.4036 111.93 92.5409 111.734 91.5718C111.734 91.5718 108.975 77.924 106.149 63.8843C104.735 56.8644 103.305 49.7471 102.194 44.1867C101.083 38.6254 100.331 34.8612 100.138 33.743C99.4068 29.4985 97.7895 27.5439 96.0576 26.5228C94.3263 25.5022 92.1033 25.3353 89.7453 26.0774C85.6186 27.3753 81.8125 31.203 81.6999 36.4414C81.6838 37.1892 81.7435 37.9666 81.8878 38.769C81.8925 38.7972 81.897 38.8256 81.9011 38.8539L92.4395 105.476C97.0618 108.835 99.5186 111.961 102.671 116.189C128.089 117.094 140.765 121.757 147.46 128.413C154.334 135.249 153.883 143.799 154.544 146.454L146.769 148.407C145.417 142.98 146.294 138.582 141.822 134.135C137.349 129.688 126.398 124.838 100.495 124.144C99.8905 124.128 99.2974 123.974 98.7603 123.695C98.2231 123.415 97.7559 123.018 97.3936 122.531C93.2544 116.974 91.9265 114.833 86.7568 111.317L51.831 95.4268C48.2711 95.9027 46.6266 97.6689 45.6442 99.7384C45.1134 100.857 44.8694 102.063 44.8471 102.889L44.8476 102.89Z" fill="#65DBBB"/>
</svg>
