<svg width="287" height="287" viewBox="0 0 287 287" fill="none" xmlns="http://www.w3.org/2000/svg">
<g clip-path="url(#clip0_2_65)">
<path d="M93.317 173.71C99.161 179.664 107.651 185.372 118.955 190.662L163.377 180.513C163.961 180.379 164.569 180.395 165.144 180.559C165.72 180.723 166.245 181.03 166.671 181.451L196.372 210.81L229.383 177.644L203.181 151.026C202.651 150.487 202.306 149.794 202.197 149.046C202.087 148.298 202.219 147.534 202.573 146.866C207.575 137.415 206.462 128.088 202.727 119.265C199.63 111.948 194.661 105.211 190.115 99.9724C187.671 102.933 184.532 106.043 180.835 108.307C178.177 109.934 175.166 111.143 171.87 111.211C169.207 111.266 166.423 110.473 163.914 108.788C162.144 111.91 159.536 114.229 156.71 115.792C152.509 118.116 147.883 119.326 143.863 120.751C143.861 120.753 143.858 120.755 143.856 120.758C141.118 122.99 138.118 126.277 134.649 128.838C132.914 130.118 131.021 131.25 128.794 131.817C127.364 132.182 125.778 132.254 124.203 131.962L119.235 143.504C129.591 137.483 139.668 136.359 147.878 137.369C153.436 138.054 158.159 139.638 161.71 141.144C165.262 142.649 168.041 144.255 168.249 144.353L165.222 150.792C163.774 150.111 162.044 149.014 158.933 147.695C155.821 146.375 151.727 145.012 147.01 144.431C137.575 143.27 125.726 144.984 113.122 156.987C112.529 157.552 111.758 157.896 110.94 157.958C110.123 158.021 109.308 157.8 108.635 157.331C107.962 156.863 107.472 156.176 107.247 155.387C107.022 154.599 107.076 153.757 107.401 153.004L118.447 127.339C116.463 121.842 113.898 119.151 110.817 117.491C108.009 115.979 104.459 115.359 100.608 114.836C94.039 123.194 88.6467 132.93 83.821 143.396C81.7702 152.654 83.3561 160.775 89.0282 168.655C90.2533 170.357 91.6824 172.044 93.3181 173.711L93.317 173.71ZM67.0043 128.231L78.9097 137.102C83.2611 128.011 88.1391 119.328 94.0736 111.551C88.1676 103.288 83.6815 101.641 77.1857 97.8487C69.8838 102.031 64.3159 106.384 62.2101 110.665C61.0739 112.975 60.7307 115.22 61.376 118.067C62.0058 120.846 63.7318 124.241 67.0043 128.231L67.0043 128.231ZM83.2706 93.1792C88.6925 96.2516 94.0619 99.3222 99.933 107.518C104.503 108.085 109.494 108.696 114.191 111.227C118.738 113.676 122.704 118.04 125.202 124.917C125.823 125.124 126.33 125.102 127.038 124.922C127.934 124.694 129.113 124.08 130.423 123.113C132.408 121.649 134.665 119.46 137.057 117.299C128.467 102.26 118.671 88.5005 107.249 76.434C101.898 75.7118 97.0921 76.1819 93.1666 78.4471C89.1026 80.7933 85.5844 85.1254 83.2706 93.1786L83.2706 93.1792ZM143.124 113.456C146.944 112.134 150.573 111.055 153.265 109.566C156.686 107.673 158.607 105.726 159.012 100.946C155.867 86.9665 147.8 75.4261 138.895 63.7983C132.861 62.5757 127.287 61.8299 123.367 62.8789C119.322 63.9606 116.389 66.3292 114.527 73.7921C125.435 85.6981 134.862 99.0279 143.124 113.455L143.124 113.456ZM166.134 101.594C166.421 101.739 166.686 101.922 166.924 102.138C168.683 103.713 170.12 104.13 171.722 104.097C173.324 104.064 175.189 103.421 177.12 102.238C180.448 100.201 183.715 96.6554 185.976 93.6583C181.741 81.4946 176.527 70.0718 167.345 60.2641C160.805 55.9918 157.164 55.8034 153.958 56.7767C151.47 57.5319 148.989 59.3624 146.058 61.4266C154.671 72.7873 162.865 84.8836 166.11 99.9878C166.178 100.304 166.202 100.628 166.182 100.95C166.169 101.167 166.152 101.381 166.133 101.593L166.134 101.594Z" fill="#E943E9"/>
</g>
<defs>
<clipPath id="clip0_2_65">
<rect width="202.387" height="202.387" fill="white" transform="translate(143.109 286.749) rotate(-135)"/>
</clipPath>
</defs>
</svg>
