<svg width="211" height="212" viewBox="0 0 211 212" fill="none" xmlns="http://www.w3.org/2000/svg">
<circle cx="105.5" cy="106" r="99.5" fill="#2DC89E" stroke="white" stroke-width="12"/>
<g clip-path="url(#clip0_444_2173)">
<path d="M37.5818 103.057C37.6058 103.084 37.6294 103.111 37.6526 103.138C37.6606 103.147 37.6686 103.155 37.677 103.164C37.6411 103.124 37.6331 103.114 37.5818 103.057ZM37.798 102.793C37.7889 103.116 37.8887 103.35 37.9141 103.42C43.4989 109.823 49.5691 112.536 56.0462 118.607C62.4927 124.65 68.6721 133.912 73.9105 152.476L88.603 163.366C88.9947 163.656 89.3138 164.034 89.5352 164.47C89.7565 164.905 89.874 165.387 89.8783 165.876L90.0352 183.655L87.467 325.287H128.885L125.947 184.604V164.537C125.947 164.073 126.049 163.615 126.245 163.195C126.442 162.775 126.729 162.404 127.085 162.108C132.787 157.369 138.258 155.093 140.978 148.814L162.557 78.5542C162.37 74.1828 161.855 70.6918 160.616 68.5261C159.561 66.6813 158.011 65.411 154.832 64.6893C154.028 66.6011 151.364 72.9325 147.908 81.2195C145.937 85.9471 143.97 90.6888 142.505 94.2642C141.773 96.052 141.165 97.551 140.752 98.5978C140.545 99.1205 140.386 99.5339 140.293 99.7878C140.266 99.8607 140.261 99.8765 140.247 99.9164C140.255 99.9714 140.284 100.022 140.011 100.581C139.842 100.929 136.319 102.225 136.319 102.225C136.319 102.225 134.217 100.248 134.145 99.9581C133.923 99.0683 134.058 98.9141 134.082 98.7379C134.092 98.6679 134.099 98.6493 134.108 98.602C134.113 98.5565 134.12 98.499 134.133 98.3788C134.166 98.0671 134.215 97.5636 134.276 96.9134C134.396 95.6127 134.565 93.7149 134.763 91.4238C135.161 86.8408 135.682 80.6758 136.197 74.4785C136.712 68.2812 137.223 62.0507 137.603 57.3318C137.793 54.9727 137.949 52.9905 138.056 51.5843C138.11 50.8816 138.152 50.321 138.179 49.9371C138.189 49.7812 138.196 49.6778 138.202 49.5867C137.996 46.8002 137.18 45.3492 136.328 44.549C135.463 43.738 134.388 43.4021 133.023 43.4718C130.337 43.6091 127.199 45.8733 126.502 48.0828L120.787 91.8901C120.686 92.6593 120.306 93.3642 119.721 93.8699C119.135 94.3756 118.384 94.6467 117.612 94.6312C116.84 94.6157 116.1 94.3148 115.535 93.786C114.97 93.2572 114.619 92.5376 114.549 91.765C114.549 91.765 113.463 79.7138 112.334 67.5063C111.769 61.4019 111.194 55.2578 110.739 50.568C110.511 48.2226 110.313 46.2397 110.163 44.8156C110.088 44.1045 110.024 43.5299 109.977 43.1348C109.955 42.954 109.909 42.7347 109.883 42.6037C108.803 38.783 107.382 36.9298 106.377 36.2403C105.35 35.5362 104.602 35.5421 103.362 36.0592C100.886 37.0913 97.8578 41.414 97.6699 44.2113L96.3928 93.3832C96.3726 94.1574 96.0694 94.8972 95.5411 95.4612C95.0127 96.0253 94.2962 96.3743 93.5281 96.4417C92.76 96.509 91.9941 96.29 91.3764 95.8264C90.7588 95.3628 90.3327 94.687 90.1793 93.9279C90.1793 93.9279 88.0188 83.2381 85.8054 72.2413C84.6984 66.7429 83.5783 61.1682 82.7085 56.8129C81.8381 52.457 81.2494 49.5086 81.0984 48.6328C80.5254 45.3082 79.2588 43.7773 77.9025 42.9775C76.5466 42.178 74.8057 42.0474 72.9591 42.6285C69.7273 43.6452 66.7467 46.6433 66.6584 50.7463C66.6459 51.3321 66.6926 51.9409 66.8056 52.5694C66.8093 52.5916 66.8128 52.6138 66.8161 52.636L75.069 104.819C78.6889 107.45 80.6129 109.898 83.082 113.21C102.987 113.918 112.914 117.571 118.158 122.784C123.541 128.138 123.188 134.836 123.706 136.915L117.616 138.445C116.558 134.194 117.245 130.749 113.742 127.266C110.239 123.783 101.663 119.984 81.3777 119.44C80.9042 119.428 80.4397 119.307 80.0191 119.089C79.5984 118.87 79.2325 118.558 78.9488 118.177C75.7072 113.824 74.6673 112.147 70.6187 109.393L43.267 96.9474C40.4791 97.3202 39.1912 98.7036 38.4219 100.325C38.0062 101.2 37.8151 102.145 37.7977 102.792L37.798 102.793Z" fill="white"/>
</g>
<circle cx="105.5" cy="106" r="99.5" stroke="white" stroke-width="12"/>
<defs>
<clipPath id="clip0_444_2173">
<rect width="134.427" height="158.25" fill="white" transform="translate(32.3307 20.9199)"/>
</clipPath>
</defs>
</svg>
