<svg width="211" height="212" viewBox="0 0 211 212" fill="none" xmlns="http://www.w3.org/2000/svg">
<circle cx="105.5" cy="106" r="99.5" fill="#E943E9" stroke="white" stroke-width="12"/>
<g clip-path="url(#clip0_444_2169)">
<path d="M50.1863 103.64C50.1252 110.17 51.6682 118.028 55.0034 127.212L85.2677 146.181C85.6653 146.43 85.9935 146.775 86.2218 147.185C86.4502 147.594 86.5714 148.054 86.5741 148.523L86.7641 312.031L123.464 311.945L123.695 151.891C123.699 151.299 123.893 150.725 124.247 150.25C124.601 149.775 125.098 149.426 125.665 149.252C133.68 146.79 138.235 141.011 141.057 134.061C143.398 128.297 144.378 121.819 144.762 116.403C141.765 116.689 138.299 116.673 134.993 115.88C132.617 115.309 130.276 114.311 128.411 112.525C126.903 111.082 125.799 109.102 125.342 106.781C122.63 107.529 119.897 107.369 117.463 106.67C113.844 105.631 110.608 103.741 107.588 102.305C107.586 102.304 107.583 102.304 107.58 102.304C104.824 102.024 101.338 102.183 97.9934 101.681C96.3211 101.429 94.6433 101.008 93.0941 100.089C92.099 99.4993 91.1791 98.6615 90.4673 97.6281L81.3115 101.267C90.3938 103.666 96.6057 108.621 100.599 113.724C103.301 117.179 105.042 120.67 106.177 123.469C107.311 126.268 107.962 128.695 108.023 128.864L102.773 130.752C102.348 129.574 101.997 128.01 101.003 125.558C100.009 123.105 98.4944 120.084 96.2008 117.152C91.6125 111.288 84.0905 105.679 70.4443 105.346C69.8014 105.33 69.1835 105.094 68.6953 104.676C68.2071 104.258 67.8784 103.685 67.765 103.053C67.6516 102.421 67.7604 101.77 68.0729 101.209C68.3855 100.648 68.8826 100.212 69.4801 99.9746L89.8392 91.8839C91.7874 87.7435 91.8574 84.834 91.0694 82.2106C90.3511 79.8196 88.7256 77.5115 86.8804 75.0907C78.6019 76.0808 70.2121 78.4848 61.7315 81.6066C55.4598 85.5957 51.8356 90.968 50.611 98.4688C50.3466 100.089 50.2037 101.813 50.1863 103.641V103.64ZM60.8157 63.9057L62.4985 75.4048C69.9532 72.7817 77.474 70.6756 85.0779 69.6562C86.3853 61.8139 84.8107 58.4195 83.3114 52.7254C76.9424 50.9989 71.4407 50.3263 67.8987 51.5302C65.9875 52.1799 64.5517 53.2328 63.3309 55.1656C62.1392 57.052 61.2138 59.8861 60.8157 63.9057ZM89.2756 53.5088C90.5786 58.2101 91.8534 62.8813 90.5644 70.6667C92.7841 73.51 95.2134 76.6108 96.4144 80.6107C97.5779 84.4828 97.3569 89.0931 94.9288 94.282C95.1582 94.7405 95.4518 95.0085 95.9445 95.3008C96.5676 95.6703 97.5615 95.9834 98.8246 96.1733C100.737 96.4611 103.203 96.4988 105.728 96.6272C109.305 83.549 111.503 70.5123 111.86 57.5121C109.293 54.1508 106.367 51.7511 102.934 50.8322C99.3789 49.8814 95.0249 50.3322 89.2756 53.5088ZM111.224 97.8577C114.075 99.2407 116.687 100.652 119.006 101.318C121.952 102.164 124.098 102.149 126.973 99.7274C132.981 90.2496 134.908 79.3975 136.418 68.0334C133.75 64.0174 131.072 60.5194 128.316 58.9303C125.473 57.2905 122.533 56.978 117.362 60.0782C116.808 72.7047 114.643 85.2999 111.224 97.8577ZM130.563 104.028C130.642 104.267 130.688 104.515 130.7 104.766C130.802 106.611 131.367 107.637 132.275 108.506C133.181 109.374 134.572 110.05 136.299 110.465C139.274 111.179 143.052 111.025 145.968 110.618C150.366 101.542 153.809 92.3337 154.156 81.8238C152.898 75.8395 150.983 73.7198 148.665 72.4841C146.867 71.5249 144.476 71.1651 141.705 70.6852C140.182 81.74 138.018 92.9702 131.441 103.125C131.303 103.338 131.137 103.531 130.947 103.698C130.82 103.811 130.692 103.92 130.563 104.026V104.028Z" fill="white"/>
</g>
<circle cx="105.5" cy="106" r="99.5" stroke="white" stroke-width="12"/>
<defs>
<clipPath id="clip0_444_2169">
<rect width="134.427" height="158.25" fill="white" transform="translate(32.3308 12.4102)"/>
</clipPath>
</defs>
</svg>
