<svg width="411" height="393" viewBox="0 0 411 393" fill="none" xmlns="http://www.w3.org/2000/svg">
<g opacity="0.9">
<g clip-path="url(#clip0_2_71)">
<path d="M138.896 157.355C136.557 159.798 134.595 162.567 132.922 165.596C125.226 179.534 124.408 200.295 126.717 220.224C126.803 220.963 126.726 221.712 126.491 222.418C126.256 223.124 125.87 223.77 125.359 224.311L98.4193 252.828L94.7373 249.348L94.7309 249.356L140.379 295.686L170.211 265.93C171.126 265.017 172.353 264.486 173.644 264.444C174.936 264.402 176.195 264.852 177.167 265.702C176.693 265.289 179.4 266.542 183.092 266.683C186.783 266.823 191.485 266.476 195.987 265.752C199.44 265.197 202.799 264.409 205.498 263.54C204.864 262.876 204.281 262.174 203.759 261.453C201.193 257.908 199.543 253.615 198.607 249.177C197.67 244.738 197.448 240.171 198.373 235.928C198.949 233.282 200.115 230.553 202.047 228.445C198.784 219.31 195.528 207.054 202.556 194.667C202.974 193.928 203.348 193.473 203.697 193.141C204.044 192.81 204.368 192.603 204.685 192.365C204.873 192.225 205.065 192.101 205.256 191.971C195.167 192.244 186.005 190.211 177.495 187.03C182.816 203.463 178.694 220.884 174.52 234.544L164.773 231.563C169.925 214.706 173.989 195.285 162.361 179.514C161.678 178.586 161.329 177.454 161.372 176.303C161.414 175.151 161.846 174.048 162.597 173.173C163.347 172.299 164.372 171.704 165.503 171.487C166.635 171.27 167.807 171.442 168.828 171.977C181.449 178.589 194.062 183.058 209.278 181.493C214.662 179.93 219.519 172.622 215.131 163.418C203.524 156.69 195.543 151.226 182.453 146.736C160.429 144.072 147.252 148.629 138.896 157.354L138.896 157.355ZM236.189 75.922C234.432 77.7198 232.613 79.9067 230.786 82.5261L193.587 140.079C201.68 143.534 208.102 147.414 215.078 151.568C217.116 148.446 224.106 137.736 232.292 125.134C237.026 117.845 241.794 110.485 245.442 104.811C247.265 101.973 248.811 99.5555 249.925 97.791C250.481 96.9089 250.931 96.1878 251.243 95.6765C251.475 95.2962 251.7 94.8677 251.696 94.8902C254.978 87.9069 255.984 81.9595 255.633 77.6846C255.28 73.3692 253.695 70.958 251.979 69.8329C250.263 68.7078 247.941 68.327 244.206 69.9807C241.874 71.0125 239.119 72.9259 236.191 75.9217L236.189 75.922ZM223.844 157.909C228.832 167.391 227.439 177.381 222.397 184.089C223.616 183.624 224.85 183.164 226.087 182.717C231.182 180.878 236.261 179.254 240.434 178.268C241.46 178.025 242.42 177.819 243.345 177.661C264.609 161.285 287.6 139.852 300.434 124.714C303.175 121.479 303.996 118.739 303.966 116.725C303.937 114.713 303.178 113.216 301.608 111.925C298.468 109.34 291.29 108.04 282.137 113.325C272.097 119.121 258.514 129.034 246.7 138.408C236.98 146.121 228.305 153.646 223.844 157.909ZM211.14 200.307C206.852 208.387 208.561 216.089 211.239 223.751L246.306 212.492C247.741 211.923 248.266 211.248 248.803 209.391C249.345 207.515 249.425 204.566 248.992 201.39C248.291 196.247 246.442 191.098 245.057 187.79C244.334 187.901 243.815 187.941 242.779 188.186C239.266 189.016 234.399 190.552 229.546 192.304C224.694 194.055 219.811 196.031 216.144 197.712C214.311 198.554 212.772 199.331 211.78 199.902C211.458 200.088 211.321 200.187 211.14 200.307ZM209.602 235.256C209.465 235.373 209.321 235.535 209.175 235.764C208.879 236.228 208.582 236.956 208.333 238.1C207.834 240.388 207.889 243.795 208.581 247.075C209.272 250.354 210.601 253.523 212.017 255.478C213.432 257.434 214.459 257.846 215.083 257.833C215.213 257.83 217.917 257.315 220.958 256.242C223.999 255.169 227.713 253.628 231.466 251.861C238.65 248.482 246.056 244.029 249.19 241.21C252.015 236.025 252.282 232.697 251.543 230.058C250.926 227.855 249.357 225.687 246.942 223.461L209.988 235.022C209.871 235.067 209.741 235.138 209.603 235.255L209.602 235.256Z" fill="#377AE3"/>
</g>
</g>
<defs>
<clipPath id="clip0_2_71">
<rect x="0.948486" y="188" width="289.914" height="289.914" rx="34.491" transform="rotate(-45 0.948486 188)" fill="white"/>
</clipPath>
</defs>
</svg>
