<svg width="300" height="704" viewBox="0 0 300 704" fill="none" xmlns="http://www.w3.org/2000/svg">
<path d="M11.7188 182.476C11.7724 182.535 11.8251 182.595 11.8767 182.655C11.8946 182.676 11.9125 182.692 11.9312 182.712C11.8511 182.624 11.8332 182.601 11.7188 182.476ZM12.2013 181.889C12.1811 182.607 12.4036 183.127 12.4605 183.282C24.9238 197.506 38.4706 203.533 52.9256 217.021C67.3121 230.446 81.1025 251.022 92.793 292.262L125.582 316.457C126.456 317.102 127.168 317.941 127.662 318.908C128.156 319.876 128.419 320.945 128.428 322.032L128.778 361.529L123.047 676.177H215.479L208.921 363.637V319.058C208.921 318.027 209.149 317.008 209.588 316.076C210.027 315.143 210.667 314.318 211.461 313.661C224.186 303.134 236.398 298.076 242.467 284.129L290.625 128.04C290.206 118.329 289.057 110.573 286.292 105.762C283.937 101.664 280.479 98.8415 273.385 97.2382C271.591 101.485 265.645 115.551 257.933 133.961C253.534 144.464 249.143 154.998 245.875 162.941C244.24 166.913 242.884 170.243 241.962 172.569C241.501 173.73 241.145 174.648 240.937 175.212C240.877 175.374 240.867 175.409 240.836 175.498C240.854 175.62 240.918 175.732 240.309 176.974C239.931 177.748 232.069 180.626 232.069 180.626C232.069 180.626 227.378 176.235 227.217 175.591C226.723 173.614 227.022 173.271 227.077 172.88C227.099 172.724 227.116 172.683 227.134 172.578C227.147 172.477 227.162 172.349 227.191 172.082C227.265 171.39 227.375 170.271 227.51 168.827C227.779 165.937 228.154 161.721 228.598 156.631C229.485 146.45 230.647 132.753 231.798 118.986C232.947 105.218 234.088 91.3763 234.934 80.8928C235.358 75.6519 235.706 71.2484 235.946 68.1244C236.067 66.5632 236.16 65.3179 236.22 64.4649C236.243 64.1186 236.259 63.889 236.271 63.6866C235.811 57.4962 233.99 54.2726 232.089 52.495C230.159 50.6933 227.759 49.9469 224.713 50.1018C218.72 50.4069 211.716 55.4369 210.162 60.3455L197.406 157.667C197.181 159.376 196.334 160.942 195.027 162.065C193.72 163.189 192.044 163.791 190.321 163.757C188.598 163.722 186.948 163.054 185.687 161.879C184.426 160.704 183.642 159.105 183.485 157.389C183.485 157.389 181.062 130.616 178.543 103.496C177.282 89.9349 175.998 76.2855 174.983 65.8666C174.474 60.6561 174.033 56.251 173.697 53.0873C173.53 51.5074 173.388 50.231 173.282 49.3531C173.234 48.9515 173.13 48.4643 173.072 48.1732C170.663 39.6853 167.492 35.5682 165.247 34.0366C162.956 32.4722 161.287 32.4855 158.52 33.6342C152.994 35.927 146.236 45.5302 145.817 51.7448L142.966 160.984C142.921 162.704 142.245 164.347 141.066 165.6C139.887 166.854 138.288 167.629 136.573 167.779C134.859 167.928 133.15 167.442 131.772 166.412C130.393 165.382 129.442 163.88 129.1 162.194C129.1 162.194 124.278 138.446 119.339 114.016C116.868 101.801 114.369 89.4158 112.428 79.7402C110.485 70.0631 109.171 63.5131 108.834 61.5674C107.555 54.1816 104.729 50.7805 101.702 49.0037C98.6761 47.2276 94.7909 46.9373 90.6699 48.2285C83.4576 50.4871 76.8056 57.1476 76.6087 66.2628C76.5807 67.564 76.685 68.9167 76.9371 70.3129C76.9454 70.3621 76.9532 70.4114 76.9605 70.4608L95.3785 186.388C103.457 192.233 107.751 197.674 113.261 205.031C157.684 206.604 179.838 214.719 191.539 226.301C203.553 238.195 202.765 253.074 203.92 257.693L190.331 261.092C187.969 251.649 189.501 243.995 181.684 236.257C173.867 228.519 154.728 220.08 109.458 218.872C108.401 218.844 107.364 218.577 106.425 218.091C105.487 217.605 104.67 216.912 104.037 216.066C96.8027 206.396 94.4819 202.67 85.4469 196.552L24.4063 168.902C18.1847 169.73 15.3105 172.804 13.5936 176.405C12.6659 178.35 12.2394 180.449 12.2005 181.886L12.2013 181.889Z" fill="#2DC89E"/>
</svg>
