<svg width="268" height="268" viewBox="0 0 268 268" fill="none" xmlns="http://www.w3.org/2000/svg">
<g filter="url(#filter0_d_1187_2275)">
<rect x="9" y="5" width="250" height="250" rx="50" stroke="white" stroke-width="10"/>
<rect x="63.5183" y="111.225" width="62.9455" height="9.68182" rx="2.5" transform="rotate(-90 63.5183 111.225)" fill="#65DB71" stroke="white" stroke-width="3"/>
<circle cx="97.5274" cy="87.9956" r="8.14545" fill="#54128B" stroke="#7F4DA8" stroke-width="4"/>
<circle cx="110.843" cy="82.923" r="8.14545" fill="#8522AB" stroke="#C290D5" stroke-width="4"/>
<circle cx="124.793" cy="78.4843" r="8.14545" fill="#E943E9" stroke="white" stroke-width="4"/>
<path d="M60.4395 171H53.6426C53.4863 171 53.4082 170.902 53.4082 170.707L53.5254 129.486C53.5254 129.33 53.6035 129.252 53.7598 129.252H61.084C61.2402 129.252 61.377 129.33 61.4941 129.486L66.9727 137.396L72.4219 129.486C72.5391 129.33 72.6855 129.252 72.8613 129.252H80.2148C80.3906 129.252 80.4785 129.33 80.4785 129.486L80.5957 170.707C80.5957 170.902 80.5176 171 80.3613 171H73.5645C73.4082 171 73.3301 170.902 73.3301 170.707L73.2715 140.092L66.9727 149.232L60.7324 140.092L60.6738 170.707C60.6738 170.902 60.5957 171 60.4395 171ZM83.6133 170.707L91.0547 129.486C91.0938 129.33 91.1914 129.252 91.3477 129.252H100.049C100.205 129.252 100.303 129.33 100.342 129.486L107.49 170.707C107.51 170.902 107.432 171 107.256 171H100.605C100.41 171 100.303 170.902 100.283 170.707L99.6387 166.312H91.4648L90.8203 170.707C90.8008 170.902 90.7031 171 90.5273 171H83.8477C83.6914 171 83.6133 170.902 83.6133 170.707ZM95.3613 143.051L92.666 159.896H98.4375L95.9766 143.051L95.625 140.824L95.3613 143.051ZM121.436 171.586C119.307 171.586 117.344 171.039 115.547 169.945C113.77 168.852 112.344 167.396 111.27 165.58C110.215 163.744 109.688 161.732 109.688 159.545V156.791C109.688 156.576 109.785 156.469 109.98 156.469H116.719C116.875 156.469 116.953 156.576 116.953 156.791V159.545C116.953 160.854 117.393 161.986 118.271 162.943C119.15 163.881 120.205 164.35 121.436 164.35C122.686 164.35 123.75 163.871 124.629 162.914C125.508 161.938 125.947 160.814 125.947 159.545C125.947 158.08 124.99 156.801 123.076 155.707C122.764 155.512 122.354 155.277 121.846 155.004C121.357 154.711 120.771 154.379 120.088 154.008C119.404 153.637 118.74 153.275 118.096 152.924C117.451 152.553 116.826 152.201 116.221 151.869C114.033 150.58 112.402 148.969 111.328 147.035C110.273 145.082 109.746 142.895 109.746 140.473C109.746 138.246 110.293 136.234 111.387 134.438C112.48 132.66 113.906 131.254 115.664 130.219C117.441 129.164 119.365 128.637 121.436 128.637C123.564 128.637 125.518 129.164 127.295 130.219C129.072 131.293 130.488 132.719 131.543 134.496C132.617 136.273 133.154 138.266 133.154 140.473V145.395C133.154 145.551 133.076 145.629 132.92 145.629H126.182C126.025 145.629 125.947 145.551 125.947 145.395L125.889 140.473C125.889 139.066 125.449 137.924 124.57 137.045C123.691 136.166 122.646 135.727 121.436 135.727C120.205 135.727 119.15 136.195 118.271 137.133C117.393 138.07 116.953 139.184 116.953 140.473C116.953 141.781 117.227 142.875 117.773 143.754C118.34 144.633 119.365 145.473 120.85 146.273C121.006 146.352 121.367 146.547 121.934 146.859C122.5 147.172 123.125 147.523 123.809 147.914C124.512 148.285 125.146 148.627 125.713 148.939C126.279 149.232 126.621 149.408 126.738 149.467C128.73 150.58 130.303 151.947 131.455 153.568C132.627 155.189 133.213 157.182 133.213 159.545C133.213 161.83 132.686 163.881 131.631 165.697C130.557 167.514 129.131 168.949 127.354 170.004C125.576 171.059 123.604 171.586 121.436 171.586ZM144.404 171H137.607C137.451 171 137.373 170.902 137.373 170.707L137.432 129.486C137.432 129.33 137.529 129.252 137.725 129.252H144.404C144.6 129.252 144.697 129.33 144.697 129.486L144.639 145.805H153.633V129.486C153.633 129.33 153.711 129.252 153.867 129.252H160.547C160.742 129.252 160.84 129.33 160.84 129.486L160.957 170.707C160.957 170.902 160.859 171 160.664 171H153.926C153.73 171 153.633 170.902 153.633 170.707V153.07H144.639V170.707C144.639 170.902 144.561 171 144.404 171ZM176.895 171.586C174.785 171.586 172.832 171.039 171.035 169.945C169.238 168.852 167.803 167.387 166.729 165.551C165.674 163.695 165.146 161.674 165.146 159.486L165.264 129.486C165.264 129.33 165.342 129.252 165.498 129.252H172.236C172.393 129.252 172.471 129.33 172.471 129.486V159.486C172.471 160.834 172.9 161.986 173.76 162.943C174.619 163.881 175.664 164.35 176.895 164.35C178.184 164.35 179.258 163.881 180.117 162.943C180.977 161.986 181.406 160.834 181.406 159.486V129.486C181.406 129.33 181.484 129.252 181.641 129.252H188.379C188.535 129.252 188.613 129.33 188.613 129.486L188.73 159.486C188.73 161.693 188.203 163.725 187.148 165.58C186.074 167.416 184.648 168.881 182.871 169.975C181.094 171.049 179.102 171.586 176.895 171.586ZM200.479 171H193.74C193.545 171 193.447 170.902 193.447 170.707L193.564 129.486C193.564 129.33 193.643 129.252 193.799 129.252H205.342C209.014 129.252 211.914 130.375 214.043 132.621C216.191 134.848 217.266 137.885 217.266 141.732C217.266 144.545 216.709 146.996 215.596 149.086C214.463 151.156 212.998 152.758 211.201 153.891C209.404 155.023 207.451 155.59 205.342 155.59H200.771V170.707C200.771 170.902 200.674 171 200.479 171ZM205.342 136.371L200.771 136.43V148.324H205.342C206.611 148.324 207.715 147.719 208.652 146.508C209.59 145.277 210.059 143.686 210.059 141.732C210.059 140.17 209.639 138.891 208.799 137.895C207.959 136.879 206.807 136.371 205.342 136.371ZM87.832 225H81.0352C80.8789 225 80.8008 224.902 80.8008 224.707L80.918 183.486C80.918 183.33 80.9961 183.252 81.1523 183.252H88.4766C88.6328 183.252 88.7695 183.33 88.8867 183.486L94.3652 191.396L99.8145 183.486C99.9316 183.33 100.078 183.252 100.254 183.252H107.607C107.783 183.252 107.871 183.33 107.871 183.486L107.988 224.707C107.988 224.902 107.91 225 107.754 225H100.957C100.801 225 100.723 224.902 100.723 224.707L100.664 194.092L94.3652 203.232L88.125 194.092L88.0664 224.707C88.0664 224.902 87.9883 225 87.832 225ZM124.131 225.586C122.002 225.586 120.039 225.039 118.242 223.945C116.465 222.852 115.029 221.396 113.936 219.58C112.861 217.744 112.324 215.732 112.324 213.545L112.383 194.531C112.383 192.305 112.92 190.303 113.994 188.525C115.049 186.729 116.475 185.293 118.271 184.219C120.068 183.125 122.021 182.578 124.131 182.578C126.318 182.578 128.281 183.115 130.02 184.189C131.777 185.264 133.184 186.709 134.238 188.525C135.312 190.322 135.85 192.324 135.85 194.531L135.908 213.545C135.908 215.732 135.381 217.734 134.326 219.551C133.252 221.387 131.826 222.852 130.049 223.945C128.271 225.039 126.299 225.586 124.131 225.586ZM124.131 218.35C125.342 218.35 126.396 217.861 127.295 216.885C128.193 215.889 128.643 214.775 128.643 213.545L128.584 194.531C128.584 193.203 128.164 192.08 127.324 191.162C126.484 190.244 125.42 189.785 124.131 189.785C122.9 189.785 121.846 190.234 120.967 191.133C120.088 192.031 119.648 193.164 119.648 194.531V213.545C119.648 214.854 120.088 215.986 120.967 216.943C121.846 217.881 122.9 218.35 124.131 218.35ZM151.494 224.941L140.742 225C140.547 225 140.449 224.902 140.449 224.707L140.566 183.486C140.566 183.33 140.645 183.252 140.801 183.252L152.021 183.193C154.248 183.135 156.26 183.643 158.057 184.717C159.873 185.791 161.318 187.246 162.393 189.082C163.486 190.898 164.033 192.91 164.033 195.117V212.344C164.033 214.648 163.477 216.758 162.363 218.672C161.23 220.566 159.727 222.08 157.852 223.213C155.977 224.326 153.857 224.902 151.494 224.941ZM152.021 190.371L147.832 190.43L147.773 217.617H151.494C152.979 217.617 154.229 217.1 155.244 216.064C156.26 215.029 156.768 213.789 156.768 212.344V195.059C156.768 193.789 156.299 192.686 155.361 191.748C154.424 190.791 153.311 190.332 152.021 190.371ZM188.379 225H168.984C168.828 225 168.75 224.902 168.75 224.707L168.809 183.486C168.809 183.33 168.887 183.252 169.043 183.252H188.32C188.477 183.252 188.555 183.35 188.555 183.545V190.254C188.555 190.41 188.477 190.488 188.32 190.488H176.016V199.863H188.32C188.477 199.863 188.555 199.941 188.555 200.098L188.613 206.895C188.613 207.051 188.535 207.129 188.379 207.129H176.016V217.617H188.379C188.535 217.617 188.613 217.715 188.613 217.91V224.766C188.613 224.922 188.535 225 188.379 225Z" fill="white"/>
<g clip-path="url(#clip0_1187_2275)">
<path d="M200.597 64.3155C201.392 65.1148 202.063 66.0258 202.639 67.026C205.289 71.6278 205.678 78.5626 205.017 85.2423C204.992 85.49 205.022 85.7398 205.104 85.9741C205.187 86.2083 205.319 86.4214 205.493 86.5984L214.616 95.8789L265.266 144.591L251.32 159.093L190.731 100.849C190.42 100.55 190.007 100.382 189.575 100.378C189.143 100.373 188.701 100.83 188.261 100.931C187.725 101.046 187.663 101.122 186.43 101.197C185.196 101.272 183.623 101.191 182.114 100.982C180.957 100.823 179.829 100.585 178.922 100.314C179.131 100.088 179.321 99.8486 179.492 99.6038C180.33 98.3992 180.858 96.9516 181.146 95.4608C181.435 93.9699 181.484 92.4414 181.151 91.0299C180.943 90.1494 180.539 89.2458 179.881 88.5558C180.921 85.4771 181.942 81.3554 179.524 77.267C179.38 77.0233 179.252 76.8738 179.134 76.7655C179.016 76.6573 178.907 76.5907 178.799 76.5135C178.736 76.4681 178.671 76.4279 178.606 76.386C181.98 76.4016 185.032 75.6531 187.859 74.5258C186.171 80.0597 187.646 85.8529 189.117 90.3882L192.358 89.3187C190.543 83.7216 189.076 77.2594 192.876 71.8998C193.099 71.5845 193.209 71.2034 193.189 70.8187C193.168 70.4341 193.018 70.0685 192.762 69.7818C192.506 69.495 192.16 69.3039 191.781 69.2398C191.401 69.1756 191.011 69.2421 190.672 69.4285C186.49 71.7338 182.299 73.3224 177.204 72.9131C175.395 72.4311 173.731 70.0245 175.147 66.9145C178.989 64.578 181.627 62.6914 185.978 61.0922C193.325 60.0365 197.755 61.4613 200.597 64.3155ZM167.622 37.8212C168.22 38.409 168.84 39.1265 169.465 39.9885L182.219 58.9503C179.533 60.1661 177.408 61.5112 175.099 62.9523C174.4 61.9241 172.004 58.3959 169.198 54.2441C167.575 51.8431 165.94 49.4183 164.689 47.5485C164.064 46.6136 164.332 46.9654 163.95 46.3838C163.76 46.0931 163.046 44.8102 162.939 44.6416C162.533 43.8663 162.529 43.8455 162.127 43.0911C160.991 40.7811 161.039 39.9881 161.132 38.5563C161.226 37.1109 161.743 36.293 162.31 35.904C162.878 35.515 163.652 35.3702 164.91 35.895C165.695 36.2225 166.627 36.8417 167.622 37.8212ZM172.204 65.138C170.589 68.3454 171.11 71.6746 172.833 73.8794C172.422 73.7332 172.008 73.5886 171.592 73.4487C169.878 72.8721 168.172 72.3671 166.771 72.0686C166.427 71.9953 166.105 71.9336 165.795 71.8875C158.596 66.5724 150.791 59.5794 146.417 54.6148C145.483 53.5541 145.193 52.6441 145.192 51.9708C145.191 51.2976 145.436 50.7916 145.954 50.3481C146.989 49.4605 149.382 48.9721 152.47 50.67C155.859 52.5324 160.454 55.7448 164.455 58.7899C167.747 61.2956 170.689 63.7464 172.204 65.138ZM176.685 79.217C178.164 81.886 177.635 84.4739 176.782 87.0556L164.998 83.5543C164.515 83.375 164.336 83.1532 164.146 82.5366C163.954 81.9134 163.912 80.928 164.039 79.8629C164.244 78.1384 164.834 76.4032 165.278 75.2867C165.521 75.3186 165.694 75.3279 166.042 75.4021C167.221 75.6532 168.857 76.1303 170.488 76.6795C172.12 77.2285 173.763 77.8524 174.998 78.387C175.616 78.6546 176.135 78.9029 176.469 79.0865C176.578 79.1462 176.624 79.1782 176.685 79.217ZM177.393 90.8892C177.44 90.9274 177.489 90.9806 177.539 91.056C177.641 91.2091 177.744 91.4502 177.834 91.8308C178.013 92.5919 178.014 93.7314 177.8 94.8329C177.588 95.9344 177.161 97.0038 176.698 97.668C176.236 98.3325 175.895 98.478 175.687 98.4784C175.643 98.4783 174.736 98.3266 173.714 97.9906C172.692 97.6544 171.441 97.1672 170.177 96.6045C167.757 95.5289 165.256 94.0957 164.193 93.1768C163.22 91.4648 163.112 90.3539 163.345 89.4661C163.539 88.725 164.051 87.9887 164.846 87.2262L177.263 90.814C177.302 90.8281 177.347 90.8513 177.393 90.8892Z" fill="#377AE3"/>
</g>
</g>
<defs>
<filter id="filter0_d_1187_2275" x="0" y="0" width="268" height="268" filterUnits="userSpaceOnUse" color-interpolation-filters="sRGB">
<feFlood flood-opacity="0" result="BackgroundImageFix"/>
<feColorMatrix in="SourceAlpha" type="matrix" values="0 0 0 0 0 0 0 0 0 0 0 0 0 0 0 0 0 0 127 0" result="hardAlpha"/>
<feOffset dy="4"/>
<feGaussianBlur stdDeviation="2"/>
<feComposite in2="hardAlpha" operator="out"/>
<feColorMatrix type="matrix" values="0 0 0 0 0 0 0 0 0 0 0 0 0 0 0 0 0 0 0.25 0"/>
<feBlend mode="normal" in2="BackgroundImageFix" result="effect1_dropShadow_1187_2275"/>
<feBlend mode="normal" in="SourceGraphic" in2="effect1_dropShadow_1187_2275" result="shape"/>
</filter>
<clipPath id="clip0_1187_2275">
<rect width="71" height="83" fill="white" transform="matrix(-0.693175 0.720769 0.720769 0.693175 168.882 16.1108)"/>
</clipPath>
</defs>
</svg>
