<svg width="260" height="260" viewBox="0 0 260 260" fill="none" xmlns="http://www.w3.org/2000/svg">
<rect x="5" y="5" width="250" height="250" rx="50" stroke="white" stroke-width="10"/>
<path d="M35.1012 102.327C37.8365 105.001 41.8104 107.564 47.1009 109.939L67.8929 105.382C68.166 105.322 68.4505 105.329 68.72 105.403C68.9895 105.476 69.2352 105.614 69.4345 105.803L83.3363 118.988L98.7869 104.093L86.523 92.1395C86.2748 91.8975 86.1134 91.5859 86.0623 91.25C86.0111 90.9141 86.0728 90.5712 86.2383 90.2712C88.5798 86.0269 88.0586 81.8381 86.3107 77.8759C84.8612 74.5897 82.5354 71.5643 80.4074 69.2117C79.2636 70.5411 77.7946 71.9381 76.064 72.9549C74.8197 73.6856 73.4104 74.2282 71.8681 74.2587C70.6215 74.2837 69.3184 73.9274 68.144 73.1709C67.3155 74.5726 66.0948 75.6141 64.7724 76.3161C62.806 77.3598 60.6407 77.9034 58.7593 78.5432C58.7582 78.5442 58.757 78.5452 58.7558 78.5461C57.4745 79.5486 56.0704 81.0249 54.4466 82.1749C53.6346 82.75 52.7484 83.2583 51.7063 83.513C51.0369 83.6766 50.2945 83.7091 49.5572 83.578L47.232 88.7614C52.0791 86.0573 56.7957 85.5526 60.6386 86.0063C63.2398 86.3137 65.4505 87.025 67.1127 87.7013C68.775 88.3774 70.0757 89.0986 70.173 89.1426L68.7563 92.0343C68.0785 91.7286 67.2691 91.2357 65.8127 90.6435C64.3564 90.0508 62.4398 89.4387 60.2322 89.1777C55.8162 88.6562 50.2703 89.4261 44.371 94.8163C44.0932 95.0704 43.7324 95.2245 43.3497 95.2527C42.967 95.2809 42.586 95.1813 42.271 94.9709C41.956 94.7605 41.7264 94.4522 41.6211 94.0981C41.5158 93.7439 41.5412 93.3658 41.693 93.0276L46.8632 81.5019C45.9346 79.0333 44.7339 77.8245 43.2921 77.0792C41.978 76.4 40.3161 76.1217 38.5139 75.8868C35.4391 79.6403 32.9153 84.0126 30.6566 88.7129C29.6967 92.8707 30.439 96.5177 33.0938 100.057C33.6672 100.821 34.3356 101.578 35.1012 102.327ZM22.7855 81.9023L28.3579 85.8862C30.3945 81.8036 32.6777 77.9041 35.4553 74.4117C32.691 70.7007 30.5913 69.9611 27.5509 68.258C24.1333 70.1363 21.5273 72.091 20.5416 74.0135C20.0098 75.051 19.8492 76.0595 20.1512 77.3379C20.446 78.5858 21.2538 80.1103 22.7855 81.9023ZM30.399 66.1609C32.9367 67.5407 35.4498 68.9197 38.1978 72.6003C40.3368 72.8551 42.6731 73.1295 44.8712 74.266C46.9994 75.3658 48.8556 77.3258 50.025 80.4141C50.3157 80.5072 50.5529 80.497 50.8844 80.4162C51.3035 80.3138 51.8554 80.0384 52.4687 79.604C53.3975 78.9463 54.4539 77.9633 55.5736 76.9931C51.5531 70.2389 46.9683 64.0598 41.622 58.6409C39.1175 58.3165 36.8681 58.5276 35.0308 59.5449C33.1286 60.5986 31.4819 62.5443 30.399 66.1609ZM58.4133 75.2669C60.2013 74.6736 61.9 74.1889 63.16 73.52C64.7612 72.6701 65.6603 71.7955 65.8498 69.6488C64.3776 63.3709 60.6017 58.1882 56.4338 52.9663C53.6098 52.4172 51.0007 52.0823 49.1659 52.5534C47.2728 53.0392 45.9 54.1029 45.0287 57.4544C50.134 62.8013 54.5463 68.7877 58.4133 75.2669ZM69.1832 69.94C69.3173 70.005 69.4417 70.0872 69.5529 70.1843C70.3763 70.8915 71.0487 71.0788 71.7987 71.0638C72.5484 71.049 73.4212 70.7603 74.3252 70.2293C75.8827 69.3144 77.4119 67.7221 78.4701 66.3761C76.4881 60.9135 74.0476 55.7837 69.7502 51.3791C66.689 49.4605 64.9846 49.3759 63.4841 49.8129C62.3195 50.1521 61.1584 50.9742 59.7864 51.9012C63.8178 57.0031 67.6532 62.4355 69.1718 69.2186C69.2035 69.3606 69.215 69.506 69.2058 69.6509C69.1998 69.7481 69.1918 69.8441 69.1825 69.9394L69.1832 69.94Z" fill="#E943E9"/>
<path d="M168.703 61.6728C167.693 62.6853 166.845 63.8329 166.123 65.0883C162.799 70.8643 162.446 79.4683 163.443 87.7272C163.48 88.0334 163.447 88.3438 163.345 88.6364C163.244 88.929 163.077 89.1967 162.856 89.4208L151.221 101.239L149.63 99.7969L149.628 99.8002L169.344 119L182.229 106.669C182.624 106.29 183.154 106.07 183.711 106.053C184.269 106.035 184.813 106.222 185.233 106.574C185.028 106.403 186.198 106.922 187.792 106.981C189.386 107.039 191.417 106.895 193.361 106.595C194.853 106.365 196.304 106.038 197.47 105.678C197.196 105.403 196.944 105.112 196.719 104.813C195.61 103.344 194.897 101.565 194.493 99.7257C194.089 97.8862 193.992 95.9936 194.392 94.2353C194.641 93.1385 195.144 92.0075 195.979 91.1342C194.57 87.3482 193.163 82.269 196.199 77.1357C196.379 76.8297 196.541 76.6409 196.692 76.5035C196.842 76.3661 196.981 76.2805 197.118 76.1819C197.2 76.1238 197.283 76.0722 197.365 76.0185C193.007 76.1316 189.05 75.289 185.375 73.9707C187.673 80.7811 185.893 88.0008 184.09 93.6616L179.88 92.4265C182.105 85.4403 183.86 77.3919 178.838 70.8562C178.543 70.4717 178.392 70.0025 178.411 69.5253C178.429 69.048 178.616 68.5909 178.94 68.2284C179.264 67.866 179.706 67.6196 180.195 67.5296C180.684 67.4395 181.19 67.5111 181.631 67.7326C187.082 70.4729 192.53 72.3249 199.102 71.6761C201.428 71.0284 203.526 68.0001 201.63 64.1856C196.617 61.3972 193.17 59.1327 187.516 57.2722C178.003 56.1682 172.312 58.057 168.703 61.6728ZM210.726 27.9254C209.967 28.6705 209.181 29.5768 208.392 30.6623L192.325 54.5134C195.821 55.9454 198.594 57.5531 201.607 59.2746C202.487 57.981 205.507 53.5424 209.043 48.3197C211.087 45.2993 213.146 42.2492 214.722 39.8975C215.51 38.7217 216.177 37.7196 216.658 36.9884C216.898 36.6228 217.093 36.324 217.228 36.1121C217.328 35.9545 217.425 35.7769 217.423 35.7862C218.841 32.8922 219.275 30.4275 219.124 28.6559C218.971 26.8675 218.287 25.8682 217.546 25.402C216.804 24.9357 215.802 24.7779 214.188 25.4632C213.181 25.8908 211.991 26.6839 210.726 27.9254ZM205.394 61.9025C207.548 65.832 206.946 69.972 204.769 72.752C205.295 72.5593 205.828 72.3687 206.362 72.1836C208.563 71.4215 210.756 70.7484 212.559 70.3395C213.002 70.2391 213.417 70.1537 213.816 70.0879C223 63.3016 232.931 54.4192 238.474 48.1457C239.658 46.8053 240.013 45.6697 240 44.8352C239.987 44.0011 239.659 43.3808 238.981 42.8457C237.625 41.7746 234.525 41.2359 230.571 43.4258C226.235 45.8278 220.368 49.9362 215.265 53.8208C211.067 57.0173 207.32 60.136 205.394 61.9025ZM199.907 79.4731C198.054 82.8216 198.792 86.0136 199.949 89.189L215.095 84.5227C215.715 84.2871 215.942 84.0073 216.174 83.2379C216.408 82.4604 216.442 81.2381 216.255 79.9218C215.953 77.7906 215.154 75.6569 214.556 74.2857C214.244 74.332 214.019 74.3484 213.572 74.4499C212.055 74.7939 209.952 75.4306 207.857 76.1565C205.761 76.8821 203.651 77.701 202.068 78.3977C201.276 78.7465 200.611 79.0686 200.183 79.3054C200.044 79.3824 199.985 79.4233 199.907 79.4731ZM199.242 93.9565C199.183 94.0051 199.121 94.0723 199.058 94.1672C198.93 94.3597 198.802 94.6614 198.694 95.1354C198.478 96.0836 198.502 97.4956 198.801 98.8546C199.1 100.214 199.674 101.527 200.285 102.337C200.897 103.148 201.34 103.318 201.61 103.313C201.666 103.312 202.833 103.099 204.147 102.654C205.46 102.209 207.064 101.57 208.686 100.838C211.788 99.4378 214.987 97.5924 216.341 96.424C217.561 94.2756 217.676 92.896 217.357 91.8024C217.091 90.8895 216.413 89.9913 215.37 89.0685L199.409 93.8596C199.358 93.8782 199.302 93.9082 199.242 93.9565Z" fill="#377AE3"/>
<path d="M86.2899 63.9026C86.3043 63.9178 86.3184 63.9332 86.3322 63.9488C86.337 63.9542 86.3418 63.9585 86.3468 63.9635C86.3254 63.9408 86.3206 63.9348 86.2899 63.9026ZM86.4192 63.7512C86.4137 63.9364 86.4733 64.0705 86.4886 64.1107C89.8263 67.7817 93.4542 69.3372 97.3254 72.8181C101.178 76.283 104.871 81.5934 108.002 92.2369L116.783 98.4811C117.017 98.6476 117.208 98.8642 117.34 99.1139C117.473 99.3636 117.543 99.6395 117.545 99.9199L117.639 110.114L115.9 113.064L140.858 113.591L139.102 110.658V99.1524C139.102 98.8863 139.163 98.6235 139.281 98.3827C139.398 98.142 139.569 97.9292 139.782 97.7596C143.19 95.0428 146.46 93.7373 148.086 90.1377L160.983 49.8535C160.871 47.3471 160.563 45.3455 159.822 44.1038C159.192 43.046 158.266 42.3177 156.366 41.9039C155.885 43 154.293 46.6302 152.228 51.3816C151.05 54.0923 149.874 56.811 148.998 58.861C148.561 59.886 148.198 60.7455 147.951 61.3456C147.827 61.6453 147.732 61.8823 147.676 62.028C147.66 62.0697 147.657 62.0788 147.649 62.1017C147.654 62.1332 147.671 62.1619 147.508 62.4827C147.407 62.6824 145.301 63.4252 145.301 63.4252C145.301 63.4252 144.045 62.2919 144.002 62.1256C143.869 61.6154 143.95 61.527 143.964 61.426C143.97 61.3858 143.975 61.3752 143.98 61.348C143.983 61.3219 143.987 61.289 143.995 61.2201C144.015 61.0413 144.044 60.7527 144.08 60.3799C144.152 59.6341 144.253 58.546 144.371 57.2324C144.609 54.6047 144.92 51.0699 145.228 47.5166C145.536 43.9634 145.842 40.391 146.068 37.6854C146.182 36.3328 146.275 35.1963 146.339 34.3901C146.372 33.9871 146.397 33.6658 146.413 33.4456C146.419 33.3562 146.423 33.297 146.426 33.2447C146.303 31.6471 145.816 30.8151 145.306 30.3563C144.79 29.8913 144.147 29.6987 143.331 29.7387C141.726 29.8174 139.85 31.1156 139.434 32.3824L136.018 57.4997C135.958 57.9407 135.731 58.3449 135.381 58.6349C135.031 58.9248 134.582 59.0802 134.121 59.0714C133.659 59.0625 133.217 58.8899 132.88 58.5868C132.542 58.2836 132.332 57.871 132.29 57.428C132.29 57.428 131.641 50.5183 130.967 43.5191C130.629 40.019 130.285 36.4963 130.013 33.8074C129.877 32.4626 129.759 31.3257 129.669 30.5092C129.624 30.1014 129.586 29.772 129.558 29.5455C129.545 29.4418 129.517 29.3161 129.501 29.241C128.856 27.0503 128.007 25.9878 127.406 25.5925C126.792 25.1887 126.345 25.1922 125.604 25.4886C124.124 26.0804 122.314 28.5588 122.202 30.1627L121.439 58.3558C121.427 58.7997 121.246 59.2238 120.93 59.5473C120.614 59.8707 120.186 60.0708 119.727 60.1094C119.268 60.148 118.81 60.0224 118.441 59.7566C118.072 59.4908 117.817 59.1033 117.725 58.6681C117.725 58.6681 116.434 52.539 115.111 46.2339C114.45 43.0814 113.78 39.8851 113.26 37.3879C112.74 34.8904 112.388 33.2 112.298 32.6978C111.956 30.7916 111.199 29.9138 110.388 29.4553C109.578 28.9969 108.537 28.922 107.434 29.2552C105.502 29.8381 103.721 31.5571 103.668 33.9096C103.66 34.2454 103.688 34.5945 103.756 34.9549C103.758 34.9676 103.76 34.9803 103.762 34.9931L108.695 64.9124C110.858 66.4208 112.008 67.8249 113.484 69.7236C125.38 70.1298 131.313 72.224 134.447 75.2132C137.664 78.283 137.453 82.1229 137.763 83.315L134.123 84.1923C133.491 81.7551 133.901 79.7798 131.808 77.7828C129.714 75.7857 124.589 73.6077 112.465 73.296C112.182 73.2886 111.904 73.2196 111.653 73.0942C111.402 72.9688 111.183 72.7901 111.013 72.5716C109.076 70.0759 108.454 69.1144 106.035 67.5354L89.6877 60.3994C88.0216 60.6131 87.2518 61.4063 86.792 62.3357C86.5436 62.8378 86.4296 63.3804 86.4192 63.7512Z" fill="#2DC89E"/>
<path d="M47.8281 166H43.2969C43.1927 166 43.1406 165.935 43.1406 165.805L43.2188 138.324C43.2188 138.22 43.2708 138.168 43.375 138.168H51.4609C52.9062 138.168 54.2344 138.52 55.4453 139.223C56.6562 139.926 57.6198 140.87 58.3359 142.055C59.0651 143.24 59.4297 144.581 59.4297 146.078C59.4297 147.055 59.2799 147.94 58.9805 148.734C58.681 149.529 58.3294 150.199 57.9258 150.746C57.5352 151.293 57.1771 151.697 56.8516 151.957C58.2969 153.559 59.0195 155.44 59.0195 157.602L59.0586 165.805C59.0586 165.935 58.9935 166 58.8633 166H54.332C54.2279 166 54.1758 165.961 54.1758 165.883V157.602C54.1758 156.638 53.8372 155.805 53.1602 155.102C52.4831 154.398 51.6497 154.047 50.6602 154.047H48.0234L47.9844 165.805C47.9844 165.935 47.9323 166 47.8281 166ZM51.4609 142.953H48.0234V149.242H51.4609C52.2812 149.242 53.0104 148.936 53.6484 148.324C54.2995 147.712 54.625 146.964 54.625 146.078C54.625 145.232 54.3125 144.503 53.6875 143.891C53.0625 143.266 52.3203 142.953 51.4609 142.953ZM69.8398 166.391C68.4206 166.391 67.112 166.026 65.9141 165.297C64.7292 164.568 63.7721 163.598 63.043 162.387C62.3268 161.163 61.9688 159.822 61.9688 158.363L62.0078 145.688C62.0078 144.203 62.3659 142.868 63.082 141.684C63.7852 140.486 64.7357 139.529 65.9336 138.812C67.1315 138.083 68.4336 137.719 69.8398 137.719C71.2982 137.719 72.6068 138.077 73.7656 138.793C74.9375 139.509 75.875 140.473 76.5781 141.684C77.2943 142.882 77.6523 144.216 77.6523 145.688L77.6914 158.363C77.6914 159.822 77.3398 161.156 76.6367 162.367C75.9206 163.591 74.9701 164.568 73.7852 165.297C72.6003 166.026 71.2852 166.391 69.8398 166.391ZM69.8398 161.566C70.6471 161.566 71.3503 161.241 71.9492 160.59C72.5482 159.926 72.8477 159.184 72.8477 158.363L72.8086 145.688C72.8086 144.802 72.5286 144.053 71.9688 143.441C71.4089 142.829 70.6992 142.523 69.8398 142.523C69.0195 142.523 68.3164 142.823 67.7305 143.422C67.1445 144.021 66.8516 144.776 66.8516 145.688V158.363C66.8516 159.236 67.1445 159.991 67.7305 160.629C68.3164 161.254 69.0195 161.566 69.8398 161.566ZM88.082 166.391C86.6367 166.391 85.3151 166.026 84.1172 165.297C82.9323 164.568 81.9883 163.591 81.2852 162.367C80.5951 161.13 80.25 159.757 80.25 158.246L80.2891 145.766C80.2891 144.281 80.6276 142.94 81.3047 141.742C81.9818 140.531 82.9128 139.561 84.0977 138.832C85.2956 138.09 86.6237 137.719 88.082 137.719C89.5664 137.719 90.888 138.077 92.0469 138.793C93.2188 139.509 94.1497 140.479 94.8398 141.703C95.543 142.914 95.8945 144.268 95.8945 145.766V147.602C95.8945 147.706 95.8424 147.758 95.7383 147.758H91.2461C91.1419 147.758 91.0898 147.706 91.0898 147.602V145.766C91.0898 144.88 90.8034 144.118 90.2305 143.48C89.6576 142.842 88.9414 142.523 88.082 142.523C87.1315 142.523 86.4023 142.849 85.8945 143.5C85.3867 144.151 85.1328 144.906 85.1328 145.766V158.246C85.1328 159.223 85.4193 160.023 85.9922 160.648C86.5651 161.26 87.2617 161.566 88.082 161.566C88.9414 161.566 89.6576 161.228 90.2305 160.551C90.8034 159.861 91.0898 159.092 91.0898 158.246V156.391C91.0898 156.286 91.1419 156.234 91.2461 156.234H95.7773C95.8815 156.234 95.9336 156.286 95.9336 156.391V158.246C95.9336 159.743 95.582 161.111 94.8789 162.348C94.1628 163.572 93.2188 164.555 92.0469 165.297C90.875 166.026 89.5534 166.391 88.082 166.391ZM103.531 166H99C98.8958 166 98.8438 165.935 98.8438 165.805L98.9219 138.363C98.9219 138.233 98.974 138.168 99.0781 138.168H103.57C103.674 138.168 103.727 138.233 103.727 138.363V147.836L109.996 138.324C110.1 138.22 110.198 138.168 110.289 138.168H114.879C114.996 138.168 115.022 138.22 114.957 138.324L108.043 149.359L115.797 165.844C115.862 165.948 115.797 166 115.602 166H110.719C110.589 166 110.51 165.948 110.484 165.844L105.074 154.086L103.688 156.273V165.805C103.688 165.935 103.635 166 103.531 166ZM132.672 166H128.18C128.049 166 127.984 165.935 127.984 165.805L128.062 138.324C128.062 138.22 128.115 138.168 128.219 138.168H135.914C138.362 138.168 140.296 138.917 141.715 140.414C143.147 141.898 143.863 143.923 143.863 146.488C143.863 148.363 143.492 149.997 142.75 151.391C141.995 152.771 141.018 153.839 139.82 154.594C138.622 155.349 137.32 155.727 135.914 155.727H132.867V165.805C132.867 165.935 132.802 166 132.672 166ZM135.914 142.914L132.867 142.953V150.883H135.914C136.76 150.883 137.496 150.479 138.121 149.672C138.746 148.852 139.059 147.79 139.059 146.488C139.059 145.447 138.779 144.594 138.219 143.93C137.659 143.253 136.891 142.914 135.914 142.914ZM144.918 165.805L149.879 138.324C149.905 138.22 149.97 138.168 150.074 138.168H155.875C155.979 138.168 156.044 138.22 156.07 138.324L160.836 165.805C160.849 165.935 160.797 166 160.68 166H156.246C156.116 166 156.044 165.935 156.031 165.805L155.602 162.875H150.152L149.723 165.805C149.71 165.935 149.645 166 149.527 166H145.074C144.97 166 144.918 165.935 144.918 165.805ZM152.75 147.367L150.953 158.598H154.801L153.16 147.367L152.926 145.883L152.75 147.367ZM168.023 166H163.531C163.401 166 163.336 165.935 163.336 165.805L163.414 138.324C163.414 138.22 163.466 138.168 163.57 138.168H171.266C173.714 138.168 175.647 138.917 177.066 140.414C178.499 141.898 179.215 143.923 179.215 146.488C179.215 148.363 178.844 149.997 178.102 151.391C177.346 152.771 176.37 153.839 175.172 154.594C173.974 155.349 172.672 155.727 171.266 155.727H168.219V165.805C168.219 165.935 168.154 166 168.023 166ZM171.266 142.914L168.219 142.953V150.883H171.266C172.112 150.883 172.848 150.479 173.473 149.672C174.098 148.852 174.41 147.79 174.41 146.488C174.41 145.447 174.13 144.594 173.57 143.93C173.01 143.253 172.242 142.914 171.266 142.914ZM195.016 166H182.086C181.982 166 181.93 165.935 181.93 165.805L181.969 138.324C181.969 138.22 182.021 138.168 182.125 138.168H194.977C195.081 138.168 195.133 138.233 195.133 138.363V142.836C195.133 142.94 195.081 142.992 194.977 142.992H186.773V149.242H194.977C195.081 149.242 195.133 149.294 195.133 149.398L195.172 153.93C195.172 154.034 195.12 154.086 195.016 154.086H186.773V161.078H195.016C195.12 161.078 195.172 161.143 195.172 161.273V165.844C195.172 165.948 195.12 166 195.016 166ZM203.414 166H198.883C198.779 166 198.727 165.935 198.727 165.805L198.805 138.324C198.805 138.22 198.857 138.168 198.961 138.168H207.047C208.492 138.168 209.82 138.52 211.031 139.223C212.242 139.926 213.206 140.87 213.922 142.055C214.651 143.24 215.016 144.581 215.016 146.078C215.016 147.055 214.866 147.94 214.566 148.734C214.267 149.529 213.915 150.199 213.512 150.746C213.121 151.293 212.763 151.697 212.438 151.957C213.883 153.559 214.605 155.44 214.605 157.602L214.645 165.805C214.645 165.935 214.579 166 214.449 166H209.918C209.814 166 209.762 165.961 209.762 165.883V157.602C209.762 156.638 209.423 155.805 208.746 155.102C208.069 154.398 207.236 154.047 206.246 154.047H203.609L203.57 165.805C203.57 165.935 203.518 166 203.414 166ZM207.047 142.953H203.609V149.242H207.047C207.867 149.242 208.596 148.936 209.234 148.324C209.885 147.712 210.211 146.964 210.211 146.078C210.211 145.232 209.898 144.503 209.273 143.891C208.648 143.266 207.906 142.953 207.047 142.953ZM34.5342 229.684C32.0505 229.684 29.7604 229.046 27.6641 227.77C25.5905 226.493 23.9271 224.796 22.6738 222.677C21.4434 220.535 20.8281 218.188 20.8281 215.636V212.423C20.8281 212.172 20.9421 212.047 21.1699 212.047H29.0312C29.2135 212.047 29.3047 212.172 29.3047 212.423V215.636C29.3047 217.162 29.8174 218.484 30.8428 219.601C31.8682 220.694 33.0986 221.241 34.5342 221.241C35.9925 221.241 37.2344 220.683 38.2598 219.566C39.2852 218.427 39.7979 217.117 39.7979 215.636C39.7979 213.927 38.6813 212.434 36.4482 211.158C36.0837 210.93 35.6051 210.657 35.0127 210.338C34.443 209.996 33.7594 209.609 32.9619 209.176C32.1644 208.743 31.3896 208.321 30.6377 207.911C29.8857 207.478 29.1566 207.068 28.4502 206.681C25.8981 205.177 23.9954 203.297 22.7422 201.041C21.5117 198.762 20.8965 196.21 20.8965 193.385C20.8965 190.787 21.5345 188.44 22.8105 186.344C24.0866 184.27 25.75 182.63 27.8008 181.422C29.8743 180.191 32.1188 179.576 34.5342 179.576C37.0179 179.576 39.2965 180.191 41.3701 181.422C43.4437 182.675 45.0957 184.339 46.3262 186.412C47.5794 188.486 48.2061 190.81 48.2061 193.385V199.127C48.2061 199.309 48.1149 199.4 47.9326 199.4H40.0713C39.889 199.4 39.7979 199.309 39.7979 199.127L39.7295 193.385C39.7295 191.744 39.2168 190.411 38.1914 189.386C37.166 188.36 35.9469 187.848 34.5342 187.848C33.0986 187.848 31.8682 188.395 30.8428 189.488C29.8174 190.582 29.3047 191.881 29.3047 193.385C29.3047 194.911 29.6237 196.188 30.2617 197.213C30.9225 198.238 32.1188 199.218 33.8506 200.152C34.0329 200.243 34.4544 200.471 35.1152 200.836C35.776 201.201 36.5052 201.611 37.3027 202.066C38.123 202.499 38.8636 202.898 39.5244 203.263C40.1852 203.604 40.584 203.81 40.7207 203.878C43.0449 205.177 44.8792 206.772 46.2236 208.663C47.5908 210.554 48.2744 212.879 48.2744 215.636C48.2744 218.302 47.6592 220.694 46.4287 222.813C45.1755 224.933 43.512 226.607 41.4385 227.838C39.3649 229.068 37.0635 229.684 34.5342 229.684ZM61.3311 229H53.4014C53.2191 229 53.1279 228.886 53.1279 228.658L53.1963 180.567C53.1963 180.385 53.3102 180.294 53.5381 180.294H61.3311C61.5589 180.294 61.6729 180.385 61.6729 180.567L61.6045 199.605H72.0977V180.567C72.0977 180.385 72.1888 180.294 72.3711 180.294H80.1641C80.3919 180.294 80.5059 180.385 80.5059 180.567L80.6426 228.658C80.6426 228.886 80.5286 229 80.3008 229H72.4395C72.2116 229 72.0977 228.886 72.0977 228.658V208.082H61.6045V228.658C61.6045 228.886 61.5133 229 61.3311 229ZM83.9922 228.658L92.6738 180.567C92.7194 180.385 92.8333 180.294 93.0156 180.294H103.167C103.349 180.294 103.463 180.385 103.509 180.567L111.849 228.658C111.871 228.886 111.78 229 111.575 229H103.816C103.589 229 103.463 228.886 103.44 228.658L102.688 223.531H93.1523L92.4004 228.658C92.3776 228.886 92.2637 229 92.0586 229H84.2656C84.0833 229 83.9922 228.886 83.9922 228.658ZM97.6982 196.393L94.5537 216.046H101.287L98.416 196.393L98.0059 193.795L97.6982 196.393ZM156.85 228.658L165.531 180.567C165.577 180.385 165.691 180.294 165.873 180.294H176.024C176.207 180.294 176.321 180.385 176.366 180.567L184.706 228.658C184.729 228.886 184.638 229 184.433 229H176.674C176.446 229 176.321 228.886 176.298 228.658L175.546 223.531H166.01L165.258 228.658C165.235 228.886 165.121 229 164.916 229H157.123C156.941 229 156.85 228.886 156.85 228.658ZM170.556 196.393L167.411 216.046H174.145L171.273 196.393L170.863 193.795L170.556 196.393ZM197.284 229H189.354C189.172 229 189.081 228.886 189.081 228.658L189.218 180.567C189.218 180.385 189.309 180.294 189.491 180.294H198.036C198.218 180.294 198.378 180.385 198.515 180.567L204.906 189.796L211.264 180.567C211.4 180.385 211.571 180.294 211.776 180.294H220.355C220.561 180.294 220.663 180.385 220.663 180.567L220.8 228.658C220.8 228.886 220.709 229 220.526 229H212.597C212.414 229 212.323 228.886 212.323 228.658L212.255 192.94L204.906 203.604L197.626 192.94L197.558 228.658C197.558 228.886 197.466 229 197.284 229ZM233.275 216.114H228.49C228.285 216.114 228.171 216 228.148 215.772L226.679 199.674V180.636C226.679 180.408 226.77 180.294 226.952 180.294H234.813C235.041 180.294 235.155 180.408 235.155 180.636L235.087 199.674L233.617 215.772C233.594 216 233.48 216.114 233.275 216.114ZM234.813 229H226.952C226.77 229 226.679 228.886 226.679 228.658V221.036C226.679 220.831 226.77 220.729 226.952 220.729H234.813C234.996 220.729 235.087 220.831 235.087 221.036V228.658C235.087 228.886 234.996 229 234.813 229Z" fill="white"/>
<path d="M122.044 185.487L129.483 178H158L134.443 204.652H153.196L121.424 234L132.893 212.289H116L139.557 185.487H122.044Z" fill="#FFC700"/>
</svg>
