<svg width="266" height="266" viewBox="0 0 266 266" fill="none" xmlns="http://www.w3.org/2000/svg">
<rect x="8" y="8" width="250" height="250" rx="50" stroke="#377AE3" stroke-width="15"/>
<path d="M35.4444 107.262C38.2419 110.107 42.3061 112.834 47.7169 115.361L68.9813 110.512C69.2607 110.449 69.5516 110.456 69.8273 110.535C70.1029 110.613 70.3542 110.759 70.558 110.961L84.7757 124.987L100.578 109.142L88.0349 96.425C87.7811 96.1676 87.616 95.8361 87.5637 95.4787C87.5113 95.1213 87.5744 94.7566 87.7438 94.4374C90.1385 89.9223 89.6054 85.4661 87.8178 81.251C86.3353 77.755 83.9566 74.5365 81.7803 72.0337C80.6105 73.448 79.1081 74.9342 77.3382 76.0158C76.0656 76.7931 74.6242 77.3704 73.0469 77.4029C71.7719 77.4294 70.4393 77.0505 69.2382 76.2456C68.3909 77.7368 67.1424 78.8448 65.79 79.5915C63.7789 80.7019 61.5644 81.2803 59.6402 81.9609C59.639 81.9619 59.6378 81.963 59.6366 81.964C58.3262 83.0304 56.8902 84.6009 55.2295 85.8244C54.399 86.4361 53.4926 86.977 52.4269 87.2479C51.7423 87.4219 50.983 87.4565 50.2289 87.3171L47.8509 92.8312C52.8081 89.9546 57.6319 89.4176 61.5622 89.9004C64.2225 90.2274 66.4835 90.984 68.1835 91.7035C69.8835 92.4227 71.2137 93.19 71.3133 93.2368L69.8644 96.3131C69.1712 95.9879 68.3434 95.4635 66.8539 94.8335C65.3645 94.2029 63.4044 93.5518 61.1465 93.2742C56.6302 92.7193 50.9582 93.5384 44.9249 99.2727C44.6407 99.5429 44.2718 99.7069 43.8804 99.7369C43.489 99.7669 43.0993 99.661 42.7771 99.4372C42.455 99.2134 42.2202 98.8853 42.1125 98.5086C42.0048 98.1319 42.0308 97.7296 42.1861 97.3698L47.4738 85.1084C46.5241 82.4822 45.2961 81.1963 43.8215 80.4035C42.4775 79.6809 40.7779 79.3848 38.9347 79.1348C35.79 83.128 33.2088 87.7794 30.8988 92.7797C29.9171 97.2028 30.6763 101.083 33.3914 104.847C33.9779 105.661 34.6614 106.466 35.4444 107.262ZM22.8488 85.5344L28.5478 89.7726C30.6308 85.4294 32.9658 81.2809 35.8066 77.5657C32.9795 73.6178 30.832 72.8309 27.7225 71.0191C24.2272 73.0174 21.562 75.0968 20.5539 77.1421C20.01 78.2457 19.8457 79.3186 20.1547 80.6787C20.4561 82.0062 21.2823 83.628 22.8488 85.5344ZM30.6353 68.7882C33.2307 70.2561 35.801 71.7231 38.6114 75.6386C40.799 75.9097 43.1883 76.2016 45.4364 77.4106C47.613 78.5807 49.5114 80.6657 50.7074 83.9511C51.0047 84.0502 51.2473 84.0394 51.5863 83.9534C52.015 83.8444 52.5793 83.5515 53.2066 83.0894C54.1566 82.3897 55.237 81.344 56.3821 80.3118C52.2703 73.1265 47.5812 66.553 42.1134 60.7882C39.552 60.4431 37.2515 60.6677 35.3724 61.7499C33.427 62.8708 31.7429 64.9408 30.6353 68.7882ZM59.2863 78.4754C61.115 77.8442 62.8523 77.3286 64.1409 76.617C65.7785 75.7128 66.6981 74.7825 66.8918 72.4987C65.3862 65.8201 61.5245 60.3066 57.2619 54.7513C54.3737 54.1672 51.7052 53.811 49.8287 54.3121C47.8927 54.8289 46.4886 55.9605 45.5975 59.526C50.8188 65.2141 55.3314 71.5826 59.2863 78.4754ZM70.301 72.8085C70.4382 72.8777 70.5654 72.9651 70.6791 73.0684C71.5212 73.8207 72.2089 74.02 72.976 74.0041C73.7426 73.9883 74.6353 73.6812 75.5599 73.1163C77.1528 72.143 78.7167 70.4491 79.799 69.0171C77.772 63.2059 75.276 57.7486 70.8809 53.0629C67.7501 51.0218 66.007 50.9318 64.4723 51.3967C63.2813 51.7576 62.0938 52.6321 60.6907 53.6183C64.8137 59.0459 68.7362 64.825 70.2893 72.0411C70.3218 72.1921 70.3335 72.3468 70.3241 72.501C70.318 72.6043 70.3098 72.7065 70.3003 72.8078L70.301 72.8085Z" fill="#E943E9"/>
<path d="M172.083 64.0136C171.049 65.0908 170.183 66.3116 169.444 67.6471C166.044 73.7919 165.683 82.945 166.703 91.731C166.741 92.0569 166.707 92.387 166.603 92.6983C166.499 93.0095 166.329 93.2944 166.103 93.5328L154.203 106.105L152.576 104.571L152.574 104.575L172.738 125L185.916 111.881C186.32 111.479 186.862 111.245 187.432 111.226C188.003 111.208 188.559 111.406 188.988 111.781C188.779 111.599 189.975 112.152 191.605 112.214C193.236 112.275 195.313 112.122 197.301 111.803C198.827 111.558 200.311 111.211 201.503 110.828C201.223 110.535 200.966 110.226 200.735 109.908C199.601 108.345 198.872 106.452 198.459 104.495C198.045 102.539 197.947 100.525 198.356 98.6545C198.61 97.4877 199.125 96.2846 199.979 95.3555C198.537 91.3278 197.099 85.9245 200.203 80.4635C200.388 80.138 200.553 79.9371 200.707 79.7909C200.861 79.6448 201.004 79.5537 201.144 79.4488C201.227 79.387 201.312 79.3322 201.396 79.275C196.939 79.3953 192.892 78.499 189.133 77.0965C191.483 84.3416 189.663 92.0221 187.819 98.0443L183.514 96.7303C185.789 89.2982 187.584 80.736 182.448 73.7832C182.146 73.3741 181.992 72.875 182.011 72.3673C182.03 71.8596 182.221 71.3733 182.552 70.9877C182.884 70.6021 183.336 70.34 183.836 70.2442C184.336 70.1484 184.854 70.2245 185.305 70.4602C190.88 73.3754 196.451 75.3456 203.173 74.6554C205.551 73.9664 207.697 70.7447 205.758 66.6869C200.631 63.7204 197.106 61.3114 191.323 59.3321C181.594 58.1577 175.774 60.167 172.083 64.0136ZM215.06 28.1122C214.284 28.9047 213.481 29.8689 212.674 31.0237L196.242 56.3972C199.817 57.9206 202.653 59.6309 205.735 61.4624C206.635 60.0862 209.723 55.3643 213.339 49.8082C215.43 46.595 217.536 43.3502 219.148 40.8484C219.953 39.5975 220.636 38.5315 221.128 37.7536C221.373 37.3647 221.572 37.0468 221.71 36.8214C221.813 36.6537 221.912 36.4648 221.91 36.4747C223.36 33.396 223.804 30.7739 223.649 28.8892C223.493 26.9867 222.793 25.9237 222.035 25.4276C221.277 24.9316 220.252 24.7637 218.601 25.4928C217.572 25.9477 216.354 26.7914 215.06 28.1122ZM209.607 64.2579C211.81 68.4383 211.195 72.8425 208.968 75.8C209.506 75.595 210.051 75.3922 210.598 75.1954C212.849 74.3846 215.092 73.6685 216.936 73.2335C217.388 73.1267 217.813 73.0358 218.221 72.9659C227.614 65.7464 237.77 56.297 243.439 49.6231C244.65 48.1971 245.013 46.989 245 46.1013C244.987 45.2139 244.651 44.5541 243.958 43.9848C242.571 42.8454 239.4 42.2722 235.357 44.6019C230.922 47.1572 224.922 51.5279 219.703 55.6605C215.409 59.061 211.578 62.3787 209.607 64.2579ZM203.995 82.9501C202.101 86.5123 202.856 89.9081 204.039 93.2862L219.529 88.322C220.163 88.0714 220.395 87.7738 220.632 86.9552C220.872 86.128 220.907 84.8278 220.716 83.4274C220.406 81.1602 219.589 78.8903 218.978 77.4316C218.658 77.4808 218.429 77.4983 217.971 77.6063C216.42 77.9722 214.269 78.6495 212.126 79.4218C209.983 80.1938 207.825 81.0649 206.206 81.8061C205.396 82.1771 204.716 82.5198 204.278 82.7717C204.136 82.8536 204.075 82.8972 203.995 82.9501ZM203.316 98.358C203.255 98.4097 203.192 98.4812 203.127 98.5822C202.997 98.7869 202.865 99.1078 202.755 99.6122C202.535 100.621 202.559 102.123 202.865 103.569C203.17 105.014 203.757 106.412 204.383 107.274C205.008 108.136 205.462 108.318 205.737 108.312C205.794 108.31 206.989 108.084 208.332 107.611C209.675 107.137 211.316 106.458 212.974 105.679C216.147 104.189 219.419 102.226 220.803 100.983C222.051 98.6974 222.169 97.2298 221.843 96.0664C221.57 95.0952 220.877 94.1397 219.81 93.158L203.486 98.2549C203.435 98.2747 203.377 98.3066 203.316 98.358Z" fill="#377AE3"/>
<path d="M87.7965 66.3858C87.8112 66.4019 87.8257 66.4183 87.8398 66.4349C87.8447 66.4407 87.8496 66.4452 87.8547 66.4505C87.8328 66.4264 87.8279 66.42 87.7965 66.3858ZM87.9287 66.2246C87.9231 66.4217 87.9841 66.5644 87.9997 66.6071C91.4133 70.5124 95.1237 72.1672 99.0828 75.8703C103.023 79.5564 106.8 85.2057 110.002 96.5286L118.983 103.171C119.222 103.348 119.417 103.579 119.553 103.845C119.688 104.11 119.76 104.404 119.762 104.702L119.858 115.546L118.08 118.685L143.605 119.246L141.809 116.125V103.886C141.809 103.602 141.871 103.323 141.991 103.067C142.112 102.811 142.287 102.584 142.505 102.404C145.99 99.5136 149.334 98.1248 150.997 94.2954L164.187 51.4399C164.072 48.7735 163.757 46.6442 163 45.3232C162.355 44.1979 161.408 43.4231 159.465 42.9829C158.974 44.149 157.345 48.0109 155.233 53.0656C154.028 55.9492 152.825 58.8414 151.93 61.0223C151.482 62.1127 151.111 63.0271 150.859 63.6656C150.732 63.9844 150.635 64.2365 150.578 64.3915C150.561 64.4359 150.559 64.4455 150.55 64.4699C150.555 64.5034 150.572 64.534 150.406 64.8752C150.302 65.0876 148.149 65.8778 148.149 65.8778C148.149 65.8778 146.864 64.6722 146.82 64.4953C146.685 63.9525 146.767 63.8585 146.782 63.751C146.788 63.7083 146.792 63.697 146.797 63.6681C146.801 63.6404 146.805 63.6053 146.813 63.532C146.833 63.3418 146.863 63.0348 146.9 62.6382C146.974 61.8448 147.077 60.6872 147.198 59.2898C147.441 56.4943 147.759 52.7339 148.075 48.9539C148.389 45.1738 148.702 41.3734 148.934 38.4951C149.05 37.0562 149.145 35.8472 149.211 34.9894C149.244 34.5608 149.269 34.2189 149.286 33.9847C149.292 33.8896 149.296 33.8266 149.3 33.771C149.174 32.0714 148.675 31.1863 148.154 30.6982C147.626 30.2036 146.968 29.9986 146.134 30.0412C144.493 30.1249 142.574 31.506 142.149 32.8537L138.655 59.5742C138.593 60.0433 138.361 60.4733 138.003 60.7818C137.645 61.0902 137.186 61.2556 136.714 61.2461C136.242 61.2367 135.79 61.0531 135.445 60.7306C135.1 60.408 134.885 59.9691 134.842 59.4979C134.842 59.4979 134.178 52.1472 133.489 44.7011C133.143 40.9777 132.791 37.2301 132.513 34.3695C132.374 32.9389 132.253 31.7295 132.161 30.8609C132.115 30.4271 132.077 30.0766 132.048 29.8356C132.034 29.7253 132.006 29.5916 131.99 29.5117C131.33 27.1812 130.462 26.0508 129.847 25.6303C129.219 25.2008 128.762 25.2044 128.004 25.5198C126.491 26.1493 124.64 28.786 124.525 30.4922L123.744 60.4849C123.732 60.9572 123.547 61.4083 123.224 61.7524C122.901 62.0965 122.463 62.3093 121.993 62.3504C121.524 62.3915 121.056 62.2579 120.678 61.9751C120.301 61.6923 120.04 61.2801 119.946 60.8172C119.946 60.8172 118.626 54.2968 117.273 47.5893C116.596 44.2355 115.912 40.8352 115.38 38.1787C114.848 35.5217 114.488 33.7234 114.396 33.1891C114.045 31.1613 113.271 30.2275 112.442 29.7397C111.613 29.252 110.549 29.1723 109.421 29.5268C107.445 30.1469 105.623 31.9756 105.569 34.4783C105.562 34.8356 105.59 35.207 105.659 35.5903C105.662 35.6038 105.664 35.6174 105.666 35.6309L110.71 67.46C112.923 69.0647 114.099 70.5584 115.608 72.5783C127.775 73.0104 133.843 75.2382 137.048 78.4183C140.338 81.684 140.123 85.769 140.439 87.0372L136.717 87.9706C136.07 85.3777 136.49 83.2764 134.349 81.1519C132.208 79.0273 126.966 76.7103 114.566 76.3787C114.277 76.3709 113.993 76.2975 113.736 76.1641C113.479 76.0306 113.255 75.8406 113.082 75.6081C111.1 72.9531 110.465 71.9302 107.99 70.2504L91.2715 62.6589C89.5675 62.8863 88.7803 63.7301 88.31 64.7188C88.0559 65.253 87.9393 65.8302 87.9287 66.2246Z" fill="#2DC89E"/>
<path d="M51.8281 169H47.2969C47.1927 169 47.1406 168.935 47.1406 168.805L47.2188 141.324C47.2188 141.22 47.2708 141.168 47.375 141.168H55.4609C56.9062 141.168 58.2344 141.52 59.4453 142.223C60.6562 142.926 61.6198 143.87 62.3359 145.055C63.0651 146.24 63.4297 147.581 63.4297 149.078C63.4297 150.055 63.2799 150.94 62.9805 151.734C62.681 152.529 62.3294 153.199 61.9258 153.746C61.5352 154.293 61.1771 154.697 60.8516 154.957C62.2969 156.559 63.0195 158.44 63.0195 160.602L63.0586 168.805C63.0586 168.935 62.9935 169 62.8633 169H58.332C58.2279 169 58.1758 168.961 58.1758 168.883V160.602C58.1758 159.638 57.8372 158.805 57.1602 158.102C56.4831 157.398 55.6497 157.047 54.6602 157.047H52.0234L51.9844 168.805C51.9844 168.935 51.9323 169 51.8281 169ZM55.4609 145.953H52.0234V152.242H55.4609C56.2812 152.242 57.0104 151.936 57.6484 151.324C58.2995 150.712 58.625 149.964 58.625 149.078C58.625 148.232 58.3125 147.503 57.6875 146.891C57.0625 146.266 56.3203 145.953 55.4609 145.953ZM73.8398 169.391C72.4206 169.391 71.112 169.026 69.9141 168.297C68.7292 167.568 67.7721 166.598 67.043 165.387C66.3268 164.163 65.9688 162.822 65.9688 161.363L66.0078 148.688C66.0078 147.203 66.3659 145.868 67.082 144.684C67.7852 143.486 68.7357 142.529 69.9336 141.812C71.1315 141.083 72.4336 140.719 73.8398 140.719C75.2982 140.719 76.6068 141.077 77.7656 141.793C78.9375 142.509 79.875 143.473 80.5781 144.684C81.2943 145.882 81.6523 147.216 81.6523 148.688L81.6914 161.363C81.6914 162.822 81.3398 164.156 80.6367 165.367C79.9206 166.591 78.9701 167.568 77.7852 168.297C76.6003 169.026 75.2852 169.391 73.8398 169.391ZM73.8398 164.566C74.6471 164.566 75.3503 164.241 75.9492 163.59C76.5482 162.926 76.8477 162.184 76.8477 161.363L76.8086 148.688C76.8086 147.802 76.5286 147.053 75.9688 146.441C75.4089 145.829 74.6992 145.523 73.8398 145.523C73.0195 145.523 72.3164 145.823 71.7305 146.422C71.1445 147.021 70.8516 147.776 70.8516 148.688V161.363C70.8516 162.236 71.1445 162.991 71.7305 163.629C72.3164 164.254 73.0195 164.566 73.8398 164.566ZM92.082 169.391C90.6367 169.391 89.3151 169.026 88.1172 168.297C86.9323 167.568 85.9883 166.591 85.2852 165.367C84.5951 164.13 84.25 162.757 84.25 161.246L84.2891 148.766C84.2891 147.281 84.6276 145.94 85.3047 144.742C85.9818 143.531 86.9128 142.561 88.0977 141.832C89.2956 141.09 90.6237 140.719 92.082 140.719C93.5664 140.719 94.888 141.077 96.0469 141.793C97.2188 142.509 98.1497 143.479 98.8398 144.703C99.543 145.914 99.8945 147.268 99.8945 148.766V150.602C99.8945 150.706 99.8424 150.758 99.7383 150.758H95.2461C95.1419 150.758 95.0898 150.706 95.0898 150.602V148.766C95.0898 147.88 94.8034 147.118 94.2305 146.48C93.6576 145.842 92.9414 145.523 92.082 145.523C91.1315 145.523 90.4023 145.849 89.8945 146.5C89.3867 147.151 89.1328 147.906 89.1328 148.766V161.246C89.1328 162.223 89.4193 163.023 89.9922 163.648C90.5651 164.26 91.2617 164.566 92.082 164.566C92.9414 164.566 93.6576 164.228 94.2305 163.551C94.8034 162.861 95.0898 162.092 95.0898 161.246V159.391C95.0898 159.286 95.1419 159.234 95.2461 159.234H99.7773C99.8815 159.234 99.9336 159.286 99.9336 159.391V161.246C99.9336 162.743 99.582 164.111 98.8789 165.348C98.1628 166.572 97.2188 167.555 96.0469 168.297C94.875 169.026 93.5534 169.391 92.082 169.391ZM107.531 169H103C102.896 169 102.844 168.935 102.844 168.805L102.922 141.363C102.922 141.233 102.974 141.168 103.078 141.168H107.57C107.674 141.168 107.727 141.233 107.727 141.363V150.836L113.996 141.324C114.1 141.22 114.198 141.168 114.289 141.168H118.879C118.996 141.168 119.022 141.22 118.957 141.324L112.043 152.359L119.797 168.844C119.862 168.948 119.797 169 119.602 169H114.719C114.589 169 114.51 168.948 114.484 168.844L109.074 157.086L107.688 159.273V168.805C107.688 168.935 107.635 169 107.531 169ZM136.672 169H132.18C132.049 169 131.984 168.935 131.984 168.805L132.062 141.324C132.062 141.22 132.115 141.168 132.219 141.168H139.914C142.362 141.168 144.296 141.917 145.715 143.414C147.147 144.898 147.863 146.923 147.863 149.488C147.863 151.363 147.492 152.997 146.75 154.391C145.995 155.771 145.018 156.839 143.82 157.594C142.622 158.349 141.32 158.727 139.914 158.727H136.867V168.805C136.867 168.935 136.802 169 136.672 169ZM139.914 145.914L136.867 145.953V153.883H139.914C140.76 153.883 141.496 153.479 142.121 152.672C142.746 151.852 143.059 150.79 143.059 149.488C143.059 148.447 142.779 147.594 142.219 146.93C141.659 146.253 140.891 145.914 139.914 145.914ZM148.918 168.805L153.879 141.324C153.905 141.22 153.97 141.168 154.074 141.168H159.875C159.979 141.168 160.044 141.22 160.07 141.324L164.836 168.805C164.849 168.935 164.797 169 164.68 169H160.246C160.116 169 160.044 168.935 160.031 168.805L159.602 165.875H154.152L153.723 168.805C153.71 168.935 153.645 169 153.527 169H149.074C148.97 169 148.918 168.935 148.918 168.805ZM156.75 150.367L154.953 161.598H158.801L157.16 150.367L156.926 148.883L156.75 150.367ZM172.023 169H167.531C167.401 169 167.336 168.935 167.336 168.805L167.414 141.324C167.414 141.22 167.466 141.168 167.57 141.168H175.266C177.714 141.168 179.647 141.917 181.066 143.414C182.499 144.898 183.215 146.923 183.215 149.488C183.215 151.363 182.844 152.997 182.102 154.391C181.346 155.771 180.37 156.839 179.172 157.594C177.974 158.349 176.672 158.727 175.266 158.727H172.219V168.805C172.219 168.935 172.154 169 172.023 169ZM175.266 145.914L172.219 145.953V153.883H175.266C176.112 153.883 176.848 153.479 177.473 152.672C178.098 151.852 178.41 150.79 178.41 149.488C178.41 148.447 178.13 147.594 177.57 146.93C177.01 146.253 176.242 145.914 175.266 145.914ZM199.016 169H186.086C185.982 169 185.93 168.935 185.93 168.805L185.969 141.324C185.969 141.22 186.021 141.168 186.125 141.168H198.977C199.081 141.168 199.133 141.233 199.133 141.363V145.836C199.133 145.94 199.081 145.992 198.977 145.992H190.773V152.242H198.977C199.081 152.242 199.133 152.294 199.133 152.398L199.172 156.93C199.172 157.034 199.12 157.086 199.016 157.086H190.773V164.078H199.016C199.12 164.078 199.172 164.143 199.172 164.273V168.844C199.172 168.948 199.12 169 199.016 169ZM207.414 169H202.883C202.779 169 202.727 168.935 202.727 168.805L202.805 141.324C202.805 141.22 202.857 141.168 202.961 141.168H211.047C212.492 141.168 213.82 141.52 215.031 142.223C216.242 142.926 217.206 143.87 217.922 145.055C218.651 146.24 219.016 147.581 219.016 149.078C219.016 150.055 218.866 150.94 218.566 151.734C218.267 152.529 217.915 153.199 217.512 153.746C217.121 154.293 216.763 154.697 216.438 154.957C217.883 156.559 218.605 158.44 218.605 160.602L218.645 168.805C218.645 168.935 218.579 169 218.449 169H213.918C213.814 169 213.762 168.961 213.762 168.883V160.602C213.762 159.638 213.423 158.805 212.746 158.102C212.069 157.398 211.236 157.047 210.246 157.047H207.609L207.57 168.805C207.57 168.935 207.518 169 207.414 169ZM211.047 145.953H207.609V152.242H211.047C211.867 152.242 212.596 151.936 213.234 151.324C213.885 150.712 214.211 149.964 214.211 149.078C214.211 148.232 213.898 147.503 213.273 146.891C212.648 146.266 211.906 145.953 211.047 145.953ZM38.5342 232.684C36.0505 232.684 33.7604 232.046 31.6641 230.77C29.5905 229.493 27.9271 227.796 26.6738 225.677C25.4434 223.535 24.8281 221.188 24.8281 218.636V215.423C24.8281 215.172 24.9421 215.047 25.1699 215.047H33.0312C33.2135 215.047 33.3047 215.172 33.3047 215.423V218.636C33.3047 220.162 33.8174 221.484 34.8428 222.601C35.8682 223.694 37.0986 224.241 38.5342 224.241C39.9925 224.241 41.2344 223.683 42.2598 222.566C43.2852 221.427 43.7979 220.117 43.7979 218.636C43.7979 216.927 42.6813 215.434 40.4482 214.158C40.0837 213.93 39.6051 213.657 39.0127 213.338C38.443 212.996 37.7594 212.609 36.9619 212.176C36.1644 211.743 35.3896 211.321 34.6377 210.911C33.8857 210.478 33.1566 210.068 32.4502 209.681C29.8981 208.177 27.9954 206.297 26.7422 204.041C25.5117 201.762 24.8965 199.21 24.8965 196.385C24.8965 193.787 25.5345 191.44 26.8105 189.344C28.0866 187.27 29.75 185.63 31.8008 184.422C33.8743 183.191 36.1188 182.576 38.5342 182.576C41.0179 182.576 43.2965 183.191 45.3701 184.422C47.4437 185.675 49.0957 187.339 50.3262 189.412C51.5794 191.486 52.2061 193.81 52.2061 196.385V202.127C52.2061 202.309 52.1149 202.4 51.9326 202.4H44.0713C43.889 202.4 43.7979 202.309 43.7979 202.127L43.7295 196.385C43.7295 194.744 43.2168 193.411 42.1914 192.386C41.166 191.36 39.9469 190.848 38.5342 190.848C37.0986 190.848 35.8682 191.395 34.8428 192.488C33.8174 193.582 33.3047 194.881 33.3047 196.385C33.3047 197.911 33.6237 199.188 34.2617 200.213C34.9225 201.238 36.1188 202.218 37.8506 203.152C38.0329 203.243 38.4544 203.471 39.1152 203.836C39.776 204.201 40.5052 204.611 41.3027 205.066C42.123 205.499 42.8636 205.898 43.5244 206.263C44.1852 206.604 44.584 206.81 44.7207 206.878C47.0449 208.177 48.8792 209.772 50.2236 211.663C51.5908 213.554 52.2744 215.879 52.2744 218.636C52.2744 221.302 51.6592 223.694 50.4287 225.813C49.1755 227.933 47.512 229.607 45.4385 230.838C43.3649 232.068 41.0635 232.684 38.5342 232.684ZM65.3311 232H57.4014C57.2191 232 57.1279 231.886 57.1279 231.658L57.1963 183.567C57.1963 183.385 57.3102 183.294 57.5381 183.294H65.3311C65.5589 183.294 65.6729 183.385 65.6729 183.567L65.6045 202.605H76.0977V183.567C76.0977 183.385 76.1888 183.294 76.3711 183.294H84.1641C84.3919 183.294 84.5059 183.385 84.5059 183.567L84.6426 231.658C84.6426 231.886 84.5286 232 84.3008 232H76.4395C76.2116 232 76.0977 231.886 76.0977 231.658V211.082H65.6045V231.658C65.6045 231.886 65.5133 232 65.3311 232ZM87.9922 231.658L96.6738 183.567C96.7194 183.385 96.8333 183.294 97.0156 183.294H107.167C107.349 183.294 107.463 183.385 107.509 183.567L115.849 231.658C115.871 231.886 115.78 232 115.575 232H107.816C107.589 232 107.463 231.886 107.44 231.658L106.688 226.531H97.1523L96.4004 231.658C96.3776 231.886 96.2637 232 96.0586 232H88.2656C88.0833 232 87.9922 231.886 87.9922 231.658ZM101.698 199.393L98.5537 219.046H105.287L102.416 199.393L102.006 196.795L101.698 199.393ZM160.85 231.658L169.531 183.567C169.577 183.385 169.691 183.294 169.873 183.294H180.024C180.207 183.294 180.321 183.385 180.366 183.567L188.706 231.658C188.729 231.886 188.638 232 188.433 232H180.674C180.446 232 180.321 231.886 180.298 231.658L179.546 226.531H170.01L169.258 231.658C169.235 231.886 169.121 232 168.916 232H161.123C160.941 232 160.85 231.886 160.85 231.658ZM174.556 199.393L171.411 219.046H178.145L175.273 199.393L174.863 196.795L174.556 199.393ZM201.284 232H193.354C193.172 232 193.081 231.886 193.081 231.658L193.218 183.567C193.218 183.385 193.309 183.294 193.491 183.294H202.036C202.218 183.294 202.378 183.385 202.515 183.567L208.906 192.796L215.264 183.567C215.4 183.385 215.571 183.294 215.776 183.294H224.355C224.561 183.294 224.663 183.385 224.663 183.567L224.8 231.658C224.8 231.886 224.709 232 224.526 232H216.597C216.414 232 216.323 231.886 216.323 231.658L216.255 195.94L208.906 206.604L201.626 195.94L201.558 231.658C201.558 231.886 201.466 232 201.284 232ZM237.275 219.114H232.49C232.285 219.114 232.171 219 232.148 218.772L230.679 202.674V183.636C230.679 183.408 230.77 183.294 230.952 183.294H238.813C239.041 183.294 239.155 183.408 239.155 183.636L239.087 202.674L237.617 218.772C237.594 219 237.48 219.114 237.275 219.114ZM238.813 232H230.952C230.77 232 230.679 231.886 230.679 231.658V224.036C230.679 223.831 230.77 223.729 230.952 223.729H238.813C238.996 223.729 239.087 223.831 239.087 224.036V231.658C239.087 231.886 238.996 232 238.813 232Z" fill="white"/>
<path d="M125.044 188.487L132.483 181H161L137.443 207.652H156.196L124.424 237L135.893 215.289H119L142.557 188.487H125.044Z" fill="#FFC700"/>
</svg>
