<svg width="193" height="202" viewBox="0 0 193 202" fill="none" xmlns="http://www.w3.org/2000/svg">
<path d="M122.495 23.6017C122.495 35.532 112.823 45.2034 100.893 45.2034C88.9627 45.2034 79.2913 35.532 79.2913 23.6017C79.2913 11.6714 88.9627 2 100.893 2C112.823 2 122.495 11.6714 122.495 23.6017Z" fill="#2DC89E" stroke="white" stroke-width="4"/>
<path d="M113.052 187.626C113.052 194.342 107.608 199.786 100.893 199.786C94.1774 199.786 88.7334 194.342 88.7334 187.626C88.7334 180.911 94.1774 175.467 100.893 175.467C107.608 175.467 113.052 180.911 113.052 187.626Z" fill="#E943E9" stroke="white" stroke-width="4"/>
<path d="M62.1429 47.6171C62.1429 58.2447 53.5274 66.8601 42.8998 66.8601C32.2721 66.8601 23.6567 58.2447 23.6567 47.6171C23.6567 36.9894 32.2721 28.374 42.8998 28.374C53.5274 28.374 62.1429 36.9894 62.1429 47.6171Z" fill="#E943E9" stroke="white" stroke-width="4"/>
<path d="M168.687 163.596C168.687 169.009 164.299 173.397 158.886 173.397C153.473 173.397 149.085 169.009 149.085 163.596C149.085 158.183 153.473 153.795 158.886 153.795C164.299 153.795 168.687 158.183 168.687 163.596Z" fill="#377AE3" stroke="white" stroke-width="4"/>
<path d="M35.7535 105.618C35.7535 114.939 28.1975 122.495 18.8768 122.495C9.55599 122.495 2 114.939 2 105.618C2 96.2972 9.55599 88.7412 18.8768 88.7412C28.1975 88.7412 35.7535 96.2972 35.7535 105.618Z" fill="#377AE3" stroke="white" stroke-width="4"/>
<path d="M190.336 105.61C190.336 109.716 187.008 113.045 182.902 113.045C178.796 113.045 175.467 109.716 175.467 105.61C175.467 101.504 178.796 98.1758 182.902 98.1758C187.008 98.1758 190.336 101.504 190.336 105.61Z" fill="#2DC89E" stroke="white" stroke-width="4"/>
<path d="M32.6356 153.347L32.6356 153.347L32.6431 153.34C38.3079 147.614 47.4875 147.657 53.1621 153.345L53.1638 153.347C58.8384 159.022 58.8384 168.201 53.1638 173.875L53.163 173.876C47.4962 179.55 38.3031 179.55 32.6364 173.876L32.6356 173.875C26.961 168.201 26.961 159.022 32.6356 153.347Z" fill="#2DC89E" stroke="white" stroke-width="4"/>
<path d="M163.955 47.6179C163.955 50.4213 161.682 52.6938 158.879 52.6938C156.075 52.6938 153.803 50.4213 153.803 47.6179C153.803 44.8146 156.075 42.542 158.879 42.542C161.682 42.542 163.955 44.8146 163.955 47.6179Z" fill="#E943E9" stroke="white" stroke-width="4"/>
</svg>
