<svg width="366" height="857" viewBox="0 0 366 857" fill="none" xmlns="http://www.w3.org/2000/svg">
<path d="M48.6141 247.025C48.4478 264.706 52.6488 285.985 61.7294 310.851L144.129 362.215C145.211 362.889 146.105 363.824 146.727 364.933C147.348 366.041 147.678 367.288 147.686 368.557L148.203 811.293L248.125 811.06L248.752 377.677C248.765 376.074 249.292 374.518 250.257 373.233C251.221 371.948 252.573 371.001 254.116 370.53C275.939 363.864 288.341 348.217 296.024 329.399C302.397 313.791 305.066 296.248 306.111 281.584C297.951 282.358 288.515 282.316 279.514 280.168C273.043 278.622 266.672 275.921 261.594 271.084C257.489 267.176 254.483 261.815 253.238 255.53C245.852 257.555 238.412 257.122 231.786 255.23C221.933 252.417 213.12 247.298 204.9 243.409C204.893 243.409 204.886 243.408 204.879 243.408C197.375 242.65 187.882 243.081 178.776 241.72C174.223 241.039 169.655 239.898 165.437 237.411C162.728 235.813 160.224 233.545 158.286 230.747L133.357 240.599C158.085 247.095 174.998 260.512 185.87 274.331C193.228 283.686 197.968 293.138 201.057 300.717C204.146 308.295 205.917 314.867 206.083 315.325L191.79 320.439C190.632 317.248 189.678 313.012 186.971 306.373C184.265 299.732 180.14 291.553 173.896 283.613C161.404 267.733 140.924 252.545 103.77 251.644C102.019 251.602 100.337 250.961 99.0077 249.83C97.6784 248.699 96.7837 247.146 96.4749 245.436C96.1662 243.725 96.4623 241.961 97.3132 240.442C98.1641 238.923 99.5176 237.743 101.145 237.1L156.575 215.193C161.88 203.982 162.07 196.103 159.925 189C157.969 182.526 153.543 176.276 148.52 169.721C125.98 172.402 103.138 178.912 80.0477 187.365C62.9719 198.166 53.1046 212.713 49.7705 233.023C49.0505 237.409 48.6614 242.079 48.6141 247.029V247.025ZM77.5543 139.435L82.1359 170.572C102.433 163.469 122.909 157.766 143.612 155.006C147.172 133.771 142.884 124.58 138.802 109.162C121.462 104.487 106.483 102.666 96.839 105.925C91.6352 107.685 87.7263 110.536 84.4023 115.769C81.1577 120.877 78.6381 128.551 77.5543 139.435ZM155.041 111.283C158.589 124.013 162.059 136.661 158.55 157.742C164.593 165.441 171.208 173.837 174.477 184.668C177.645 195.153 177.044 207.636 170.433 221.686C171.057 222.928 171.857 223.653 173.198 224.445C174.894 225.445 177.601 226.293 181.039 226.808C186.247 227.587 192.96 227.689 199.835 228.036C209.574 192.624 215.558 157.324 216.53 122.123C209.541 113.021 201.575 106.524 192.228 104.035C182.549 101.461 170.694 102.682 155.041 111.283ZM214.799 231.368C222.562 235.113 229.672 238.935 235.986 240.737C244.009 243.027 249.85 242.988 257.679 236.431C274.037 210.768 279.281 181.383 283.393 150.612C276.128 139.738 268.837 130.266 261.334 125.963C253.594 121.523 245.589 120.677 231.51 129.071C230.002 163.26 224.109 197.365 214.799 231.368ZM267.453 248.076C267.667 248.722 267.792 249.395 267.824 250.075C268.103 255.071 269.643 257.849 272.112 260.201C274.58 262.552 278.367 264.383 283.068 265.506C291.169 267.439 301.456 267.022 309.395 265.919C321.368 241.344 330.742 216.411 331.688 187.953C328.263 171.749 323.049 166.009 316.739 162.663C311.841 160.066 305.332 159.092 297.789 157.792C293.641 187.726 287.749 218.134 269.842 245.632C269.467 246.207 269.015 246.729 268.498 247.184C268.152 247.489 267.803 247.783 267.453 248.072V248.076Z" fill="#FFC700"/>
</svg>
